# WaveFront *.obj file (generated by Cheetah3D)

mtllib arch_4_8.mtl

g arch_4_8
v -0.000000 -1.500001 0.000000
v 0.750000 -2.400001 -0.000000
v 0.750000 -1.521322 2.121320
v 0.000000 -0.884925 1.484924
v -0.000000 -3.300001 0.000000
v 0.000000 -2.157718 2.757716
v -0.750000 -2.400001 0.000000
v -0.750000 -1.521322 2.121320
v 0.750000 0.599999 3.000000
v 0.000000 0.599999 2.100000
v 0.000000 0.599999 3.900000
v -0.750000 0.599999 3.000000
v 0.750000 2.721319 2.121321
v 0.000000 2.084923 1.484925
v 0.000000 3.357715 2.757717
v -0.750000 2.721319 2.121321
v 0.750000 3.599999 -0.000000
v 0.000000 2.699999 -0.000000
v 0.000000 4.499999 -0.000000
v -0.750000 3.599999 0.000000
v 0.750000 2.721319 -2.121320
v -0.000000 2.084923 -1.484924
v -0.000000 3.357716 -2.757716
v -0.750000 2.721319 -2.121320
v 0.750000 0.599999 -3.000000
v -0.000000 0.599999 -2.100000
v -0.000000 0.599999 -3.900000
v -0.750000 0.599999 -3.000000
v 0.750000 -1.521323 -2.121319
v -0.000000 -0.884926 -1.484923
v -0.000000 -2.157719 -2.757715
v -0.750000 -1.521323 -2.121319

vt 0.000000 1.000000
vt 0.000000 0.750000
vt 0.125000 0.750000
vt 0.125000 1.000000
vt 0.000000 0.500000
vt 0.125000 0.500000
vt 0.000000 0.250000
vt 0.125000 0.250000
vt 0.000000 0.000000
vt 0.125000 0.000000
vt 0.250000 0.750000
vt 0.250000 1.000000
vt 0.250000 0.500000
vt 0.250000 0.250000
vt 0.250000 0.000000
vt 0.375000 0.750000
vt 0.375000 1.000000
vt 0.375000 0.500000
vt 0.375000 0.250000
vt 0.375000 0.000000
vt 0.500000 0.750000
vt 0.500000 1.000000
vt 0.500000 0.500000
vt 0.500000 0.250000
vt 0.500000 0.000000
vt 0.625000 0.750000
vt 0.625000 1.000000
vt 0.625000 0.500000
vt 0.625000 0.250000
vt 0.625000 0.000000
vt 0.750000 0.750000
vt 0.750000 1.000000
vt 0.750000 0.500000
vt 0.750000 0.250000
vt 0.750000 0.000000
vt 0.875000 0.750000
vt 0.875000 1.000000
vt 0.875000 0.500000
vt 0.875000 0.250000
vt 0.875000 0.000000
vt 1.000000 0.750000
vt 1.000000 1.000000
vt 1.000000 0.500000
vt 1.000000 0.250000
vt 1.000000 0.000000

vn 0.768221 0.640184 -0.000000
vn 0.768221 0.452679 -0.452679
vn 0.768221 -0.640184 0.000000
vn 0.768221 -0.452679 0.452679
vn -0.768221 -0.640184 0.000000
vn -0.768221 -0.452679 0.452679
vn -0.768221 0.640184 -0.000000
vn -0.768221 0.452679 -0.452679
vn 0.768221 0.000000 -0.640184
vn 0.768221 -0.000000 0.640184
vn -0.768221 0.000000 0.640185
vn -0.768221 0.000000 -0.640184
vn 0.768221 -0.452679 -0.452679
vn 0.768221 0.452679 0.452679
vn -0.768221 0.452679 0.452679
vn -0.768221 -0.452679 -0.452679

usemtl border
f 4/4/2 3/3/2 2/2/1 1/1/1
f 3/3/4 6/6/4 5/5/3 2/2/3
f 6/6/6 8/8/6 7/7/5 5/5/5
f 8/8/8 4/10/8 1/9/7 7/7/7
f 10/12/9 9/11/9 3/3/2 4/4/2
f 9/11/10 11/13/10 6/6/4 3/3/4
f 11/13/11 12/14/11 8/8/6 6/6/6
f 12/14/12 10/15/12 4/10/8 8/8/8
f 14/17/13 13/16/13 9/11/9 10/12/9
f 13/16/14 15/18/14 11/13/10 9/11/10
f 15/18/15 16/19/15 12/14/11 11/13/11
f 16/19/16 14/20/16 10/15/12 12/14/12
f 18/22/3 17/21/3 13/16/13 14/17/13
f 17/21/1 19/23/1 15/18/14 13/16/14
f 19/23/7 20/24/7 16/19/15 15/18/15
f 20/24/5 18/25/5 14/20/16 16/19/16
f 22/27/4 21/26/4 17/21/3 18/22/3
f 21/26/2 23/28/2 19/23/1 17/21/1
f 23/28/8 24/29/8 20/24/7 19/23/7
f 24/29/6 22/30/6 18/25/5 20/24/5
f 26/32/10 25/31/10 21/26/4 22/27/4
f 25/31/9 27/33/9 23/28/2 21/26/2
f 27/33/12 28/34/12 24/29/8 23/28/8
f 28/34/11 26/35/11 22/30/6 24/29/6
f 30/37/14 29/36/14 25/31/10 26/32/10
f 29/36/13 31/38/13 27/33/9 25/31/9
f 31/38/16 32/39/16 28/34/12 27/33/12
f 32/39/15 30/40/15 26/35/11 28/34/11
f 1/42/1 2/41/1 29/36/14 30/37/14
f 2/41/3 5/43/3 31/38/13 29/36/13
f 5/43/5 7/44/5 32/39/16 31/38/16
f 7/44/7 1/45/7 30/40/15 32/39/15

usemtl default

