# WaveFront *.obj file (generated by Cheetah3D)

mtllib arch_4_5.mtl

g arch_4_5
v 0.000001 2.699999 0.000000
v -0.749999 3.599999 0.000000
v -0.749998 1.527050 2.853170
v 0.000001 1.248935 1.997219
v 0.000001 4.499999 0.000000
v 0.000001 1.805165 3.709121
v 0.750000 3.599999 -0.000000
v 0.750000 1.527050 2.853170
v -0.749998 -1.827053 1.763356
v 0.000001 -1.098938 1.234349
v 0.000001 -2.555168 2.292363
v 0.750001 -1.827054 1.763356
v -0.749999 -1.827053 -1.763356
v 0.000001 -1.098938 -1.234349
v 0.000001 -2.555169 -2.292363
v 0.750000 -1.827054 -1.763356
v -0.749999 1.527051 -2.853169
v 0.000001 1.248935 -1.997219
v 0.000001 1.805167 -3.709120
v 0.750000 1.527051 -2.853169

vt 0.000000 1.000000
vt 0.000000 0.750000
vt 0.200000 0.750000
vt 0.200000 1.000000
vt 0.000000 0.500000
vt 0.200000 0.500000
vt 0.000000 0.250000
vt 0.200000 0.250000
vt 0.000000 0.000000
vt 0.200000 0.000000
vt 0.400000 0.750000
vt 0.400000 1.000000
vt 0.400000 0.500000
vt 0.400000 0.250000
vt 0.400000 0.000000
vt 0.600000 0.750000
vt 0.600000 1.000000
vt 0.600000 0.500000
vt 0.600000 0.250000
vt 0.600000 0.000000
vt 0.800000 0.750000
vt 0.800000 1.000000
vt 0.800000 0.500000
vt 0.800000 0.250000
vt 0.800000 0.000000
vt 1.000000 0.750000
vt 1.000000 1.000000
vt 1.000000 0.500000
vt 1.000000 0.250000
vt 1.000000 0.000000

vn -0.696562 -0.580467 -0.421734
vn -0.696561 0.580467 0.421734
vn 0.696562 0.580467 0.421734
vn 0.696561 -0.580467 -0.421734
vn -0.696561 0.221719 -0.682380
vn -0.696561 -0.221719 0.682380
vn 0.696561 -0.221719 0.682380
vn 0.696562 0.221719 -0.682380
vn -0.696561 0.717497 0.000000
vn -0.696562 -0.717497 0.000000
vn 0.696561 -0.717497 0.000000
vn 0.696562 0.717497 -0.000000
vn -0.696561 0.221719 0.682380
vn -0.696561 -0.221719 -0.682380
vn 0.696561 -0.221719 -0.682381
vn 0.696562 0.221719 0.682380
vn -0.696562 -0.580467 0.421734
vn -0.696561 0.580468 -0.421734
vn 0.696562 0.580467 -0.421734
vn 0.696562 -0.580467 0.421734

usemtl border
f 4/4/1 3/3/1 2/2/1 1/1/1
f 3/3/2 6/6/2 5/5/2 2/2/2
f 6/6/3 8/8/3 7/7/3 5/5/3
f 8/8/4 4/10/4 1/9/4 7/7/4
f 10/12/5 9/11/5 3/3/5 4/4/5
f 9/11/6 11/13/6 6/6/6 3/3/6
f 11/13/7 12/14/7 8/8/7 6/6/7
f 12/14/8 10/15/8 4/10/8 8/8/8
f 14/17/9 13/16/9 9/11/9 10/12/9
f 13/16/10 15/18/10 11/13/10 9/11/10
f 15/18/11 16/19/11 12/14/11 11/13/11
f 16/19/12 14/20/12 10/15/12 12/14/12
f 18/22/13 17/21/13 13/16/13 14/17/13
f 17/21/14 19/23/14 15/18/14 13/16/14
f 19/23/15 20/24/15 16/19/15 15/18/15
f 20/24/16 18/25/16 14/20/16 16/19/16
f 1/27/17 2/26/17 17/21/17 18/22/17
f 2/26/18 5/28/18 19/23/18 17/21/18
f 5/28/19 7/29/19 20/24/19 19/23/19
f 7/29/20 1/30/20 18/25/20 20/24/20

usemtl default

