# WaveFront *.obj file (generated by Cheetah3D)

mtllib arch_5_12.mtl

g arch_5_12
v -0.000000 -1.500001 0.000000
v 0.713292 -2.121886 -0.000000
v 0.713292 -1.757222 1.360942
v 0.000000 -1.218654 1.050000
v 0.440839 -3.128116 -0.000000
v 0.440839 -2.628644 1.864058
v -0.440839 -3.128116 0.000000
v -0.440839 -2.628644 1.864058
v -0.713292 -2.121886 0.000000
v -0.713292 -1.757222 1.360942
v 0.713293 -0.760943 2.357222
v 0.000000 -0.450001 1.818653
v 0.440839 -1.264058 3.228643
v -0.440839 -1.264058 3.228643
v -0.713292 -0.760943 2.357221
v 0.713293 0.599999 2.721885
v 0.000000 0.599999 2.100000
v 0.440839 0.599999 3.728116
v -0.440839 0.599999 3.728116
v -0.713292 0.599999 2.721885
v 0.713293 1.960941 2.357222
v 0.000000 1.649999 1.818653
v 0.440839 2.464056 3.228643
v -0.440839 2.464056 3.228643
v -0.713292 1.960941 2.357221
v 0.713293 2.957220 1.360943
v 0.000000 2.418653 1.050000
v 0.440839 3.828641 1.864058
v -0.440839 3.828641 1.864058
v -0.713292 2.957220 1.360943
v 0.713293 3.321884 -0.000000
v 0.000000 2.699999 -0.000000
v 0.440839 4.328115 -0.000000
v -0.440839 4.328115 0.000000
v -0.713292 3.321884 0.000000
v 0.713292 2.957220 -1.360943
v -0.000000 2.418653 -1.050000
v 0.440839 3.828642 -1.864058
v -0.440839 3.828642 -1.864058
v -0.713292 2.957220 -1.360943
v 0.713292 1.960942 -2.357221
v -0.000000 1.649999 -1.818653
v 0.440839 2.464057 -3.228643
v -0.440839 2.464057 -3.228643
v -0.713292 1.960942 -2.357221
v 0.713292 0.599999 -2.721885
v -0.000000 0.599999 -2.100000
v 0.440839 0.599999 -3.728116
v -0.440839 0.599999 -3.728116
v -0.713293 0.599999 -2.721885
v 0.713292 -0.760944 -2.357221
v -0.000000 -0.450001 -1.818653
v 0.440839 -1.264059 -3.228642
v -0.440839 -1.264059 -3.228642
v -0.713293 -0.760944 -2.357221
v 0.713292 -1.757222 -1.360942
v -0.000000 -1.218654 -1.050000
v 0.440839 -2.628644 -1.864057
v -0.440839 -2.628644 -1.864057
v -0.713293 -1.757222 -1.360942

vt 0.000000 1.000000
vt 0.000000 0.800000
vt 0.083333 0.800000
vt 0.083333 1.000000
vt 0.000000 0.600000
vt 0.083333 0.600000
vt 0.000000 0.400000
vt 0.083333 0.400000
vt 0.000000 0.200000
vt 0.083333 0.200000
vt 0.000000 0.000000
vt 0.083333 0.000000
vt 0.166667 0.800000
vt 0.166667 1.000000
vt 0.166667 0.600000
vt 0.166667 0.400000
vt 0.166667 0.200000
vt 0.166667 0.000000
vt 0.250000 0.800000
vt 0.250000 1.000000
vt 0.250000 0.600000
vt 0.250000 0.400000
vt 0.250000 0.200000
vt 0.250000 0.000000
vt 0.333333 0.800000
vt 0.333333 1.000000
vt 0.333333 0.600000
vt 0.333333 0.400000
vt 0.333333 0.200000
vt 0.333333 0.000000
vt 0.416667 0.800000
vt 0.416667 1.000000
vt 0.416667 0.600000
vt 0.416667 0.400000
vt 0.416667 0.200000
vt 0.416667 0.000000
vt 0.500000 0.800000
vt 0.500000 1.000000
vt 0.500000 0.600000
vt 0.500000 0.400000
vt 0.500000 0.200000
vt 0.500000 0.000000
vt 0.583333 0.800000
vt 0.583333 1.000000
vt 0.583333 0.600000
vt 0.583333 0.400000
vt 0.583333 0.200000
vt 0.583333 0.000000
vt 0.666667 0.800000
vt 0.666667 1.000000
vt 0.666667 0.600000
vt 0.666667 0.400000
vt 0.666667 0.200000
vt 0.666667 0.000000
vt 0.750000 0.800000
vt 0.750000 1.000000
vt 0.750000 0.600000
vt 0.750000 0.400000
vt 0.750000 0.200000
vt 0.750000 0.000000
vt 0.833333 0.800000
vt 0.833333 1.000000
vt 0.833333 0.600000
vt 0.833333 0.400000
vt 0.833333 0.200000
vt 0.833333 0.000000
vt 0.916667 0.800000
vt 0.916667 1.000000
vt 0.916667 0.600000
vt 0.916667 0.400000
vt 0.916667 0.200000
vt 0.916667 0.000000
vt 1.000000 0.800000
vt 1.000000 1.000000
vt 1.000000 0.600000
vt 1.000000 0.400000
vt 1.000000 0.200000
vt 1.000000 0.000000

vn 0.657159 0.753752 -0.000000
vn 0.657159 0.652768 -0.376876
vn 0.965243 -0.261355 -0.000000
vn 0.965243 -0.226340 0.130678
vn 0.000000 -1.000000 0.000000
vn 0.000000 -0.866025 0.500000
vn -0.965243 -0.261355 0.000000
vn -0.965243 -0.226340 0.130678
vn -0.657159 0.753752 0.000000
vn -0.657159 0.652768 -0.376876
vn 0.657159 0.376876 -0.652768
vn 0.965243 -0.130678 0.226340
vn -0.000000 -0.500000 0.866025
vn -0.965243 -0.130678 0.226340
vn -0.657159 0.376876 -0.652768
vn 0.657159 -0.000000 -0.753752
vn 0.965243 -0.000000 0.261355
vn 0.000000 0.000000 1.000000
vn -0.965243 0.000000 0.261355
vn -0.657159 0.000000 -0.753752
vn 0.657159 -0.376876 -0.652768
vn 0.965243 0.130678 0.226340
vn 0.000000 0.500000 0.866025
vn -0.965243 0.130678 0.226340
vn -0.657159 -0.376876 -0.652768
vn 0.657159 -0.652768 -0.376876
vn 0.965243 0.226340 0.130678
vn 0.000000 0.866025 0.500000
vn -0.965243 0.226340 0.130678
vn -0.657159 -0.652768 -0.376876
vn 0.657159 -0.753752 -0.000000
vn 0.965243 0.261355 -0.000000
vn 0.000000 1.000000 0.000000
vn -0.965243 0.261355 0.000000
vn -0.657159 -0.753752 0.000000
vn 0.657159 -0.652768 0.376876
vn 0.965243 0.226340 -0.130678
vn 0.000000 0.866025 -0.500000
vn -0.965243 0.226340 -0.130677
vn -0.657159 -0.652768 0.376876
vn 0.657159 -0.376876 0.652768
vn 0.965243 0.130678 -0.226340
vn 0.000000 0.500000 -0.866025
vn -0.965243 0.130678 -0.226340
vn -0.657159 -0.376876 0.652768
vn 0.657159 0.000000 0.753752
vn 0.965243 -0.000000 -0.261355
vn 0.000000 -0.000000 -1.000000
vn -0.965243 0.000000 -0.261355
vn -0.657159 0.000000 0.753752
vn 0.657159 0.376876 0.652768
vn 0.965243 -0.130678 -0.226340
vn -0.000000 -0.500000 -0.866025
vn -0.965243 -0.130678 -0.226340
vn -0.657159 0.376876 0.652768
vn 0.657159 0.652768 0.376876
vn 0.965243 -0.226340 -0.130678
vn 0.000000 -0.866025 -0.500000
vn -0.965243 -0.226340 -0.130677
vn -0.657159 0.652768 0.376876

usemtl border
f 4/4/2 3/3/2 2/2/1 1/1/1
f 3/3/4 6/6/4 5/5/3 2/2/3
f 6/6/6 8/8/6 7/7/5 5/5/5
f 8/8/8 10/10/8 9/9/7 7/7/7
f 10/10/10 4/12/10 1/11/9 9/9/9
f 12/14/11 11/13/11 3/3/2 4/4/2
f 11/13/12 13/15/12 6/6/4 3/3/4
f 13/15/13 14/16/13 8/8/6 6/6/6
f 14/16/14 15/17/14 10/10/8 8/8/8
f 15/17/15 12/18/15 4/12/10 10/10/10
f 17/20/16 16/19/16 11/13/11 12/14/11
f 16/19/17 18/21/17 13/15/12 11/13/12
f 18/21/18 19/22/18 14/16/13 13/15/13
f 19/22/19 20/23/19 15/17/14 14/16/14
f 20/23/20 17/24/20 12/18/15 15/17/15
f 22/26/21 21/25/21 16/19/16 17/20/16
f 21/25/22 23/27/22 18/21/17 16/19/17
f 23/27/23 24/28/23 19/22/18 18/21/18
f 24/28/24 25/29/24 20/23/19 19/22/19
f 25/29/25 22/30/25 17/24/20 20/23/20
f 27/32/26 26/31/26 21/25/21 22/26/21
f 26/31/27 28/33/27 23/27/22 21/25/22
f 28/33/28 29/34/28 24/28/23 23/27/23
f 29/34/29 30/35/29 25/29/24 24/28/24
f 30/35/30 27/36/30 22/30/25 25/29/25
f 32/38/31 31/37/31 26/31/26 27/32/26
f 31/37/32 33/39/32 28/33/27 26/31/27
f 33/39/33 34/40/33 29/34/28 28/33/28
f 34/40/34 35/41/34 30/35/29 29/34/29
f 35/41/35 32/42/35 27/36/30 30/35/30
f 37/44/36 36/43/36 31/37/31 32/38/31
f 36/43/37 38/45/37 33/39/32 31/37/32
f 38/45/38 39/46/38 34/40/33 33/39/33
f 39/46/39 40/47/39 35/41/34 34/40/34
f 40/47/40 37/48/40 32/42/35 35/41/35
f 42/50/41 41/49/41 36/43/36 37/44/36
f 41/49/42 43/51/42 38/45/37 36/43/37
f 43/51/43 44/52/43 39/46/38 38/45/38
f 44/52/44 45/53/44 40/47/39 39/46/39
f 45/53/45 42/54/45 37/48/40 40/47/40
f 47/56/46 46/55/46 41/49/41 42/50/41
f 46/55/47 48/57/47 43/51/42 41/49/42
f 48/57/48 49/58/48 44/52/43 43/51/43
f 49/58/49 50/59/49 45/53/44 44/52/44
f 50/59/50 47/60/50 42/54/45 45/53/45
f 52/62/51 51/61/51 46/55/46 47/56/46
f 51/61/52 53/63/52 48/57/47 46/55/47
f 53/63/53 54/64/53 49/58/48 48/57/48
f 54/64/54 55/65/54 50/59/49 49/58/49
f 55/65/55 52/66/55 47/60/50 50/59/50
f 57/68/56 56/67/56 51/61/51 52/62/51
f 56/67/57 58/69/57 53/63/52 51/61/52
f 58/69/58 59/70/58 54/64/53 53/63/53
f 59/70/59 60/71/59 55/65/54 54/64/54
f 60/71/60 57/72/60 52/66/55 55/65/55
f 1/74/1 2/73/1 56/67/56 57/68/56
f 2/73/3 5/75/3 58/69/57 56/67/57
f 5/75/5 7/76/5 59/70/58 58/69/58
f 7/76/7 9/77/7 60/71/59 59/70/59
f 9/77/9 1/78/9 57/72/60 60/71/60

usemtl default

