# WaveFront *.obj file (generated by Cheetah3D)

mtllib bush_2.mtl

g bush_2
v -0.025226 3.922002 0.005920
v -0.012841 2.459714 -1.836879
v 1.411926 2.513797 -0.436794
v 0.924098 2.392486 1.283797
v -1.077764 2.348222 1.248749
v -1.720076 2.478924 -0.352104
v 1.196506 0.738581 -1.743253
v 1.458248 0.268887 0.475347
v -0.052809 0.404504 1.876498
v -1.819198 0.769089 0.626413
v -1.027456 0.274387 -1.514357
v 0.343868 1.469710 -1.403006
v -0.410513 1.465500 -1.581993
v -0.091176 0.395405 -1.994195
v 1.245565 3.221743 0.377865
v 1.541080 1.774368 1.207493
v 0.548303 3.371546 0.766139
v 1.014853 3.672319 -0.331783
v 1.499012 1.617677 -0.083848
v -0.016537 3.026903 1.604823
v -0.666913 1.557340 1.524439
v -0.797981 3.656141 0.975603
v 0.586489 1.635020 1.540676
v -1.364869 2.834349 0.445537
v -1.434617 1.604282 -0.027233
v -1.182518 3.609587 -0.307295
v -1.325151 1.703039 1.040593
v -0.995270 3.052907 -1.312109
v -0.005305 3.755428 -1.251871
v -1.640750 1.790889 -0.965075
v 1.540074 2.022809 -0.892065
v 1.902276 0.699747 -0.549766
v 1.402423 1.006897 1.871970
v -0.994421 0.395492 1.380492
v -2.057493 0.922106 -0.676229
v 0.984440 3.088709 -1.247556

vt 7864320.000000 1.000000
vt 3932160.000000 1.000000
vt 0.000000 1.000000
vt 1966080.000000 1.000000

vn 0.183601 0.340058 -0.922307
vn 0.265141 0.300131 -0.916309
vn -0.094446 0.365137 -0.926151
vn 0.220118 -0.323934 -0.920117
vn -0.293416 0.218331 -0.930720
vn -0.509679 0.098802 -0.854673
vn -0.237492 0.272078 -0.932508
vn 0.984628 0.044027 0.169024
vn 0.999574 -0.014253 0.025474
vn 0.988735 0.148140 -0.021400
vn 0.972001 0.182618 0.147870
vn 0.450182 0.349319 0.821774
vn 0.449836 0.635270 0.627758
vn 0.472075 0.681946 0.558655
vn 0.351401 0.433906 0.829604
vn -0.005759 0.995412 0.095508
vn 0.376209 0.925390 0.046039
vn 0.969325 0.244367 -0.026353
vn 0.949189 0.296061 -0.106715
vn -0.215198 0.147264 0.965403
vn -0.430763 0.073180 0.899493
vn 0.006896 0.236523 0.971601
vn 0.167280 0.247243 0.954405
vn -0.650292 0.142144 0.746268
vn -0.670298 0.235907 0.703597
vn -0.224310 0.156385 0.961888
vn 0.425514 0.586365 0.689285
vn -0.201256 0.916981 0.344443
vn 0.170516 0.314243 0.933903
vn 0.257998 0.413185 0.873336
vn -0.918211 0.370104 0.141110
vn -0.910192 0.343372 0.231617
vn -0.902176 0.329460 0.278451
vn -0.932639 0.238048 0.271141
vn -0.965239 -0.040902 0.258148
vn -0.926239 0.163852 0.339462
vn -0.931507 0.212702 0.295047
vn -0.949158 0.222149 0.223044
vn -0.570467 0.688300 0.448119
vn -0.884019 0.394448 0.250842
vn -0.683858 0.690385 -0.236025
vn -0.775930 0.107920 0.621520
vn -0.692945 0.403569 0.597460
vn -0.423540 0.152485 -0.892951
vn -0.565102 0.214050 -0.796770
vn -0.648102 0.152867 -0.746053
vn -0.367276 0.196065 -0.909212
vn -0.687678 0.606316 -0.399350
vn -0.007077 0.943204 -0.332138
vn -0.835291 0.360574 -0.415061
vn -0.773084 0.256433 -0.580157
vn -0.558702 0.352251 -0.750847
vn 0.913888 0.232607 0.332721
vn 0.965826 0.234940 -0.109465
vn 0.914374 0.257604 -0.312348
vn 0.623537 0.173679 -0.762258
vn 0.959574 0.216012 -0.180434
vn 0.977595 0.205518 0.045501
vn 0.004162 0.470742 0.882261
vn 0.990790 -0.099289 0.092070
vn 0.224919 0.372658 0.900298
vn -0.668607 0.024086 0.743225
vn -0.687397 0.074579 0.722443
vn -0.575239 0.036645 0.817164
vn -0.617459 0.034921 -0.785828
vn -0.954419 -0.252219 0.159591
vn -0.820956 0.515002 0.246584
vn -0.888068 0.450767 -0.090244
vn 0.468117 0.277067 -0.839107
vn 0.372240 0.174344 -0.911615
vn 0.864418 0.473973 -0.167720
vn 0.736759 0.617636 -0.275160
vn 0.666580 0.741360 -0.077824
vn 0.444301 0.126516 -0.886899

usemtl rock_dark
f 14/2/3 12/2/2 7/1/1
f 13/3/4 2/3/4 12/2/4
f 14/2/3 11/3/6 13/3/5
f 14/2/3 13/3/7 12/2/2
f 23/2/23 20/4/22 21/2/21 9/1/20
f 21/2/21 20/4/26 22/3/25 5/3/24
f 27/2/34 24/4/33 25/2/32 10/1/31
f 25/2/38 24/4/37 26/3/36 6/3/35
f 22/3/43 24/4/33 27/2/42 5/3/24
f 30/2/46 28/4/45 13/2/44 11/1/6
f 13/2/5 28/4/45 29/3/47 2/3/47
f 26/3/41 28/4/52 30/2/51 6/3/50
f 32/2/53 19/2/11 8/1/8
f 31/3/54 3/3/18 19/2/11
f 32/2/57 7/3/56 31/3/55
f 32/2/58 31/3/54 19/2/11
f 33/2/59 23/2/29 9/1/20
f 33/2/59 16/3/15 23/2/61
f 34/2/64 27/2/63 10/1/62
f 21/3/21 5/3/24 27/2/63
f 34/2/64 9/3/20 21/3/21
f 34/2/64 21/3/21 27/2/63
f 35/2/65 30/2/46 11/1/6
f 25/3/35 6/3/35 30/2/66
f 35/2/67 10/3/31 25/3/32
f 35/2/67 25/3/32 30/2/68
f 12/2/2 36/4/70 31/2/56 7/1/69
f 31/2/54 36/4/72 18/3/71 3/3/18
f 29/3/74 36/4/70 12/2/2 2/3/74

usemtl bush_dark
f 19/2/11 15/4/10 16/2/9 8/1/8
f 16/2/15 15/4/14 17/3/13 4/3/12
f 17/3/13 15/4/14 18/3/17 1/3/16
f 18/3/19 15/4/10 19/2/11 3/3/18
f 22/3/28 20/4/27 17/3/13 1/3/16
f 17/3/13 20/4/30 23/2/29 4/3/12
f 26/3/41 24/4/40 22/3/39 1/3/16
f 29/3/49 28/4/48 26/3/41 1/3/16
f 16/3/15 4/3/12 23/2/29
f 33/2/60 8/3/8 16/3/9
f 18/3/73 36/4/72 29/3/49 1/3/16

usemtl default

