# WaveFront *.obj file (generated by Cheetah3D)

mtllib bush_1.mtl

g bush_1
v -0.000003 3.197614 0.000000
v 0.000000 2.273292 -2.146690
v 1.447677 1.902002 -0.470379
v 1.190997 2.201685 1.639267
v -1.040201 2.049159 1.431714
v -1.716195 2.069859 -0.557626
v 1.608869 0.424526 -2.214417
v 1.878389 0.184058 0.610326
v 0.000000 0.255957 2.202926
v -2.497775 0.389549 0.811576
v -1.237665 0.225261 -1.703500
v 0.509743 1.411623 -1.996452
v -0.506242 1.404376 -1.980649
v 0.000000 0.238395 -2.174083
v 1.718072 2.974096 0.558236
v 1.568023 1.400950 1.299745
v 0.765874 3.030062 1.054139
v 1.218115 3.027302 -0.395790
v 2.022746 1.396549 -0.128912
v 0.000000 2.543272 1.946491
v -0.762426 1.413119 1.917847
v -0.900552 3.066907 1.239504
v 0.747159 1.395981 1.882747
v -1.397374 2.209835 0.454034
v -1.825558 1.307852 -0.109900
v -1.438130 3.048623 -0.467277
v -1.418586 1.311604 1.167501
v -1.139836 2.538181 -1.568849
v 0.000000 3.091992 -1.559509
v -1.849189 1.467725 -1.165314
v 1.786000 1.434891 -1.128103
v 2.578101 0.395761 -0.837676
v 1.569830 0.384026 2.160686
v -1.273683 0.236295 1.753074
v -2.452745 0.357113 -0.796945
v 1.180743 2.586809 -1.625154

vt 7864320.000000 1.000000
vt 3932160.000000 1.000000
vt 0.000000 1.000000
vt 1966080.000000 1.000000

vn 0.253228 0.255971 -0.932928
vn 0.158535 0.164912 -0.973484
vn -0.141177 0.110057 -0.983848
vn 0.059186 0.120521 -0.990945
vn -0.025554 0.167944 -0.985465
vn -0.263032 0.077335 -0.961683
vn -0.491241 0.043025 -0.869960
vn 0.941822 0.127237 0.311098
vn 0.847271 0.146510 0.510556
vn 0.842367 0.246906 0.479016
vn 0.936870 0.276910 0.213530
vn 0.549498 0.264085 0.792660
vn 0.509502 0.429199 0.745785
vn 0.793851 0.239180 0.559100
vn -0.076681 0.996893 0.017998
vn 0.176686 0.981111 -0.078765
vn 0.117790 0.992427 0.034850
vn 0.087809 0.979864 0.179321
vn 0.852013 0.465306 -0.239926
vn 0.791677 0.536674 -0.291940
vn 0.793350 0.305251 -0.526704
vn 0.898976 0.335659 -0.281380
vn -0.104173 0.132653 0.985673
vn -0.289212 0.140286 0.946930
vn -0.062818 0.294078 0.953715
vn 0.300234 0.271840 0.914310
vn -0.748438 0.236945 0.619433
vn -0.743652 0.277702 0.608164
vn -0.263788 0.206823 0.942147
vn -0.497187 0.170488 0.850728
vn 0.056312 0.946371 0.318137
vn -0.256446 0.933648 0.250074
vn 0.183936 0.272122 0.944520
vn -0.776989 0.517259 0.358791
vn -0.902121 0.412261 0.127356
vn -0.833575 0.479466 0.274346
vn -0.774774 0.313066 0.549286
vn -0.961434 0.274983 -0.005328
vn -0.855467 0.516973 0.030258
vn -0.555666 0.762910 0.330459
vn -0.744488 0.666436 -0.040012
vn -0.721338 0.484178 0.495220
vn -0.623410 0.272507 -0.732871
vn -0.693508 0.172970 -0.699377
vn -0.030496 0.346829 -0.937432
vn -0.390197 0.919858 -0.040095
vn -0.213071 0.946343 -0.242972
vn 0.009527 0.974972 -0.222125
vn -0.867349 0.261621 -0.423392
vn 0.906751 0.390505 0.159087
vn 0.793297 0.498162 -0.350021
vn 0.646888 0.377209 -0.662758
vn 0.789419 0.503684 -0.350885
vn 0.919810 0.392153 -0.012841
vn 0.901008 0.426138 -0.081190
vn 0.246121 0.437614 0.864823
vn 0.718921 0.255983 0.646239
vn 0.899789 0.216181 0.379006
vn 0.973268 0.149407 0.174433
vn 0.598874 0.313346 0.736997
vn -0.705953 0.459726 0.538778
vn -0.559583 0.203297 0.803454
vn -0.608614 0.177689 0.773315
vn -0.593147 0.055953 -0.803148
vn -0.933056 0.354195 -0.062862
vn -0.822344 0.557907 0.111760
vn -0.844399 0.534833 0.030724
vn 0.443101 0.329886 -0.833568
vn 0.732122 0.527068 -0.431505
vn 0.421934 0.324933 -0.846399
vn 0.199685 0.250802 -0.947219
vn 0.939667 0.341783 -0.014525
vn 0.825106 0.521661 -0.216957
vn 0.232097 0.953972 -0.189916

usemtl rock_dark
f 14/2/3 12/2/2 7/1/1
f 13/3/6 2/3/5 12/2/4
f 14/2/3 11/3/7 13/3/6
f 14/2/3 13/3/6 12/2/2
f 23/2/26 20/4/25 21/2/24 9/1/23
f 21/2/30 20/4/29 22/3/28 5/3/27
f 27/2/37 24/4/36 25/2/35 10/1/34
f 25/2/35 24/4/36 26/3/39 6/3/38
f 22/3/42 24/4/36 27/2/37 5/3/27
f 30/2/44 28/4/43 13/2/6 11/1/7
f 13/2/6 28/4/43 29/3/45 2/3/5
f 26/3/39 28/4/43 30/2/49 6/3/38
f 32/2/50 19/2/11 8/1/8
f 31/3/51 3/3/19 19/2/20
f 32/2/53 7/3/52 31/3/51
f 32/2/55 31/3/51 19/2/54
f 33/2/56 23/2/26 9/1/23
f 33/2/56 16/3/60 23/2/26
f 34/2/62 27/2/37 10/1/61
f 21/3/63 5/3/27 27/2/37
f 34/2/62 9/3/23 21/3/30
f 34/2/62 21/3/63 27/2/37
f 35/2/64 30/2/44 11/1/7
f 25/3/35 6/3/38 30/2/65
f 35/2/67 10/3/66 25/3/35
f 35/2/67 25/3/35 30/2/65
f 12/2/71 36/4/70 31/2/69 7/1/68
f 31/2/73 36/4/72 18/3/22 3/3/19
f 29/3/45 36/4/70 12/2/2 2/3/5

usemtl bush_dark
f 19/2/11 15/4/10 16/2/9 8/1/8
f 16/2/14 15/4/10 17/3/13 4/3/12
f 17/3/18 15/4/17 18/3/16 1/3/15
f 18/3/22 15/4/21 19/2/20 3/3/19
f 22/3/32 20/4/31 17/3/18 1/3/15
f 17/3/13 20/4/33 23/2/26 4/3/12
f 26/3/41 24/4/36 22/3/40 1/3/15
f 29/3/48 28/4/47 26/3/46 1/3/15
f 16/3/57 4/3/12 23/2/26
f 33/2/59 8/3/8 16/3/58
f 18/3/16 36/4/74 29/3/48 1/3/15

usemtl default

