# WaveFront *.obj file (generated by Cheetah3D)

mtllib cog_4.mtl

g cog_4
v 2.000000 -0.500000 0.000000
v 2.000000 0.500000 0.000000
v 1.414214 0.500000 -1.414213
v 1.414214 -0.500000 -1.414213
v 1.590990 0.500000 -1.590990
v 1.590990 -0.500000 -1.590990
v 1.388926 0.500000 -2.078674
v 1.388926 -0.500000 -2.078674
v 0.487725 0.500000 -2.451963
v 0.487725 -0.500000 -2.451963
v -0.000000 0.500000 -2.250000
v -0.000000 -0.500000 -2.250000
v -0.000000 0.500000 -2.000000
v -0.000000 -0.500000 -2.000000
v -1.414214 0.500000 -1.414213
v -1.414214 -0.500000 -1.414213
v -1.590990 0.500000 -1.590990
v -1.590990 -0.500000 -1.590990
v -2.078674 0.500000 -1.388925
v -2.078674 -0.500000 -1.388925
v -2.451963 0.500000 -0.487725
v -2.451963 -0.500000 -0.487725
v -2.250000 0.500000 0.000001
v -2.250000 -0.500000 0.000001
v -2.000000 0.500000 0.000001
v -2.000000 -0.500000 0.000001
v -1.414213 0.500000 1.414214
v -1.414213 -0.500000 1.414214
v -1.590990 0.500000 1.590991
v -1.590990 -0.500000 1.590991
v -1.388925 0.500000 2.078675
v -1.388925 -0.500000 2.078675
v -0.487726 0.500000 2.451963
v -0.487726 -0.500000 2.451963
v 0.000000 0.500000 2.250000
v 0.000000 -0.500000 2.250000
v 0.000000 0.500000 2.000000
v 0.000000 -0.500000 2.000000
v 1.414214 0.500000 1.414213
v 1.414214 -0.500000 1.414213
v 1.590991 0.500000 1.590990
v 1.590991 -0.500000 1.590990
v 2.078675 0.500000 1.388925
v 2.078675 -0.500000 1.388925
v 2.451963 0.500000 0.487726
v 2.451963 -0.500000 0.487726
v 2.250000 0.500000 -0.000000
v 2.250000 -0.500000 -0.000000

vt 0.000000 1.000000
vt 1.000000 1.000000
vt 1.000000 -0.530733
vt 0.000000 -0.530733
vt 1.000000 -0.780733
vt 0.000000 -0.780733
vt 1.000000 -1.308621
vt 0.000000 -1.308621
vt 1.000000 -2.284073
vt 0.000000 -2.284073
vt 1.000000 -2.811961
vt 0.000000 -2.811961
vt 1.000000 -3.061961
vt 0.000000 -3.061961
vt 1.000000 -4.592695
vt 0.000000 -4.592695
vt 1.000000 -4.842695
vt 0.000000 -4.842695
vt 1.000000 -5.370583
vt 0.000000 -5.370583
vt 1.000000 -6.346034
vt 0.000000 -6.346034
vt 1.000000 -6.873922
vt 0.000000 -6.873922
vt 1.000000 -7.123921
vt 0.000000 -7.123921
vt 1.000000 -8.654655
vt 0.000000 -8.654655
vt 1.000000 -8.904655
vt 0.000000 -8.904655
vt 1.000000 -9.432544
vt 0.000000 -9.432544
vt 1.000000 -10.407994
vt 0.000000 -10.407994
vt 1.000000 -10.935883
vt 0.000000 -10.935883
vt 1.000000 -11.185883
vt 0.000000 -11.185883
vt 1.000000 -12.716617
vt 0.000000 -12.716617
vt 1.000000 -12.966617
vt 0.000000 -12.966617
vt 1.000000 -13.494505
vt 0.000000 -13.494505
vt 1.000000 -14.469956
vt 0.000000 -14.469956
vt 1.000000 -14.997845
vt 0.000000 -14.997845
vt 1.000000 -15.247845
vt 0.000000 -15.247845
vt 1.590991 2.200000
vt 2.078675 2.200000
vt 1.414214 2.200000
vt -1.590990 2.200000
vt -1.388925 2.200000
vt -1.414213 2.200000
vt 0.000000 2.200000
vt -0.487726 2.200000
vt 2.250000 2.200000
vt 2.000000 2.200000
vt 2.451963 2.200000
vt -2.250000 2.200000
vt -2.000000 2.200000
vt -2.451963 2.200000
vt -0.000000 2.200000
vt 0.487725 2.200000
vt -2.078674 2.200000
vt 1.388926 2.200000

vn 0.923880 0.000000 -0.382683
vn 0.707107 -0.000000 0.707107
vn 0.382683 0.000000 -0.923880
vn -0.382587 0.000000 -0.923919
vn -1.000000 -0.000000 0.000000
vn 0.707107 -0.000000 -0.707107
vn -0.923880 0.000000 -0.382683
vn -0.923919 0.000000 0.382588
vn 0.000000 0.000000 1.000000
vn -0.707107 0.000000 -0.707107
vn -0.382683 0.000000 0.923880
vn 0.382587 -0.000000 0.923919
vn 1.000000 0.000000 -0.000000
vn -0.707107 0.000000 0.707107
vn 0.923880 0.000000 0.382683
vn -0.000000 0.000000 -1.000000
vn 0.000000 -1.000000 0.000000
vn -0.000000 1.000000 -0.000000

usemtl border
f 4/4/1 3/3/1 2/2/1 1/1/1
f 6/6/2 5/5/2 3/3/2 4/4/2
f 8/8/1 7/7/1 5/5/1 6/6/1
f 10/10/3 9/9/3 7/7/3 8/8/3
f 12/12/4 11/11/4 9/9/4 10/10/4
f 14/14/5 13/13/5 11/11/5 12/12/5
f 16/16/4 15/15/4 13/13/4 14/14/4
f 18/18/6 17/17/6 15/15/6 16/16/6
f 20/20/4 19/19/4 17/17/4 18/18/4
f 22/22/7 21/21/7 19/19/7 20/20/7
f 24/24/8 23/23/8 21/21/8 22/22/8
f 26/26/9 25/25/9 23/23/9 24/24/9
f 28/28/8 27/27/8 25/25/8 26/26/8
f 30/30/10 29/29/10 27/27/10 28/28/10
f 32/32/8 31/31/8 29/29/8 30/30/8
f 34/34/11 33/33/11 31/31/11 32/32/11
f 36/36/12 35/35/12 33/33/12 34/34/12
f 38/38/13 37/37/13 35/35/13 36/36/13
f 40/40/12 39/39/12 37/37/12 38/38/12
f 42/42/14 41/41/14 39/39/14 40/40/14
f 44/44/12 43/43/12 41/41/12 42/42/12
f 46/46/15 45/45/15 43/43/15 44/44/15
f 48/48/1 47/47/1 45/45/1 46/46/1
f 1/50/16 2/49/16 47/47/16 48/48/16
f 40/53/17 44/52/17 42/51/17
f 41/51/18 43/52/18 39/53/18
f 28/56/17 32/55/17 30/54/17
f 29/54/18 31/55/18 27/56/18
f 34/58/17 38/57/17 36/57/17
f 35/57/18 37/57/18 33/58/18
f 46/61/17 1/60/17 48/59/17
f 47/59/18 2/60/18 45/61/18
f 22/64/17 26/63/17 24/62/17
f 23/62/18 25/63/18 21/64/18
f 10/66/17 14/65/17 12/65/17
f 11/65/18 13/65/18 9/66/18
f 16/56/17 20/67/17 18/54/17
f 17/54/18 19/67/18 15/56/18
f 4/53/17 8/68/17 6/51/17
f 5/51/18 7/68/18 3/53/18
f 4/53/17 10/66/17 8/68/17
f 7/68/18 9/66/18 3/53/18
f 4/53/17 14/65/17 10/66/17
f 9/66/18 13/65/18 3/53/18
f 20/67/17 26/63/17 22/64/17
f 21/64/18 25/63/18 19/67/18
f 16/56/17 26/63/17 20/67/17
f 19/67/18 25/63/18 15/56/18
f 40/53/17 46/61/17 44/52/17
f 43/52/18 45/61/18 39/53/18
f 40/53/17 1/60/17 46/61/17
f 45/61/18 2/60/18 39/53/18
f 28/56/17 34/58/17 32/55/17
f 31/55/18 33/58/18 27/56/18
f 28/56/17 38/57/17 34/58/17
f 33/58/18 37/57/18 27/56/18
f 40/53/17 4/53/17 1/60/17
f 2/60/18 3/53/18 39/53/18
f 38/57/17 4/53/17 40/53/17
f 39/53/18 3/53/18 37/57/18
f 38/57/17 14/65/17 4/53/17
f 3/53/18 13/65/18 37/57/18
f 28/56/17 14/65/17 38/57/17
f 37/57/18 13/65/18 27/56/18
f 26/63/17 14/65/17 28/56/17
f 27/56/18 13/65/18 25/63/18
f 26/63/17 16/56/17 14/65/17
f 13/65/18 15/56/18 25/63/18

usemtl default

