# WaveFront *.obj file (generated by Cheetah3D)

mtllib cog_5.mtl

g cog_5
v 2.000000 -0.500000 -0.120853
v 2.000000 0.500000 -0.120853
v 1.618034 0.500000 -1.296422
v 1.618034 -0.500000 -1.296422
v 1.820288 0.500000 -1.443368
v 1.820288 -0.500000 -1.443368
v 1.767767 0.500000 -1.888619
v 1.767767 -0.500000 -1.888619
v 1.134976 0.500000 -2.348368
v 1.134976 -0.500000 -2.348368
v 0.695288 0.500000 -2.260729
v 0.695288 -0.500000 -2.260729
v 0.618034 0.500000 -2.022965
v 0.618034 -0.500000 -2.022965
v -0.618035 0.500000 -2.022965
v -0.618035 -0.500000 -2.022965
v -0.695289 0.500000 -2.260729
v -0.695289 -0.500000 -2.260729
v -1.134977 0.500000 -2.348368
v -1.134977 -0.500000 -2.348368
v -1.767767 0.500000 -1.888619
v -1.767767 -0.500000 -1.888619
v -1.820288 0.500000 -1.443369
v -1.820288 -0.500000 -1.443369
v -1.618034 0.500000 -1.296422
v -1.618034 -0.500000 -1.296422
v -2.000000 0.500000 -0.120852
v -2.000000 -0.500000 -0.120852
v -2.250000 0.500000 -0.120852
v -2.250000 -0.500000 -0.120852
v -2.469221 0.500000 0.270234
v -2.469221 -0.500000 0.270234
v -2.227516 0.500000 1.014124
v -2.227516 -0.500000 1.014124
v -1.820288 0.500000 1.201665
v -1.820288 -0.500000 1.201665
v -1.618034 0.500000 1.054719
v -1.618034 -0.500000 1.054719
v -0.618034 0.500000 1.781261
v -0.618034 -0.500000 1.781261
v -0.695288 0.500000 2.019025
v -0.695288 -0.500000 2.019025
v -0.391086 0.500000 2.348368
v -0.391086 -0.500000 2.348368
v 0.391086 0.500000 2.348368
v 0.391086 -0.500000 2.348368
v 0.695288 0.500000 2.019025
v 0.695288 -0.500000 2.019025
v 0.618034 0.500000 1.781261
v 0.618034 -0.500000 1.781261
v 1.618035 0.500000 1.054718
v 1.618035 -0.500000 1.054718
v 1.820289 0.500000 1.201664
v 1.820289 -0.500000 1.201664
v 2.227517 0.500000 1.014123
v 2.227517 -0.500000 1.014123
v 2.469221 0.500000 0.270234
v 2.469221 -0.500000 0.270234
v 2.250000 0.500000 -0.120853
v 2.250000 -0.500000 -0.120853

vt 0.000000 1.000000
vt 1.000000 1.000000
vt 1.000000 -0.236067
vt 0.000000 -0.236067
vt 1.000000 -0.486067
vt 0.000000 -0.486067
vt 1.000000 -0.934404
vt 0.000000 -0.934404
vt 1.000000 -1.716577
vt 0.000000 -1.716577
vt 1.000000 -2.164914
vt 0.000000 -2.164914
vt 1.000000 -2.414914
vt 0.000000 -2.414914
vt 1.000000 -3.650983
vt 0.000000 -3.650983
vt 1.000000 -3.900983
vt 0.000000 -3.900983
vt 1.000000 -4.349320
vt 0.000000 -4.349320
vt 1.000000 -5.131492
vt 0.000000 -5.131492
vt 1.000000 -5.579829
vt 0.000000 -5.579829
vt 1.000000 -5.829829
vt 0.000000 -5.829829
vt 1.000000 -7.065896
vt 0.000000 -7.065896
vt 1.000000 -7.315896
vt 0.000000 -7.315896
vt 1.000000 -7.764234
vt 0.000000 -7.764234
vt 1.000000 -8.546406
vt 0.000000 -8.546406
vt 1.000000 -8.994742
vt 0.000000 -8.994742
vt 1.000000 -9.244742
vt 0.000000 -9.244742
vt 1.000000 -10.480810
vt 0.000000 -10.480810
vt 1.000000 -10.730810
vt 0.000000 -10.730810
vt 1.000000 -11.179147
vt 0.000000 -11.179147
vt 1.000000 -11.961320
vt 0.000000 -11.961320
vt 1.000000 -12.409657
vt 0.000000 -12.409657
vt 1.000000 -12.659656
vt 0.000000 -12.659656
vt 1.000000 -13.895724
vt 0.000000 -13.895724
vt 1.000000 -14.145723
vt 0.000000 -14.145723
vt 1.000000 -14.594060
vt 0.000000 -14.594060
vt 1.000000 -15.376232
vt 0.000000 -15.376232
vt 1.000000 -15.824570
vt 0.000000 -15.824570
vt 1.000000 -16.074570
vt 0.000000 -16.074570
vt -1.820288 2.200000
vt -1.618034 2.200000
vt -2.227516 2.200000
vt -0.695289 2.200000
vt -1.134977 2.200000
vt -0.618035 2.200000
vt -1.767767 2.200000
vt 0.695288 2.200000
vt 0.618034 2.200000
vt 1.134976 2.200000
vt 1.820289 2.200000
vt 2.227517 2.200000
vt 1.618034 2.200000
vt -2.250000 2.200000
vt -2.469221 2.200000
vt -2.000000 2.200000
vt 2.250000 2.200000
vt 2.000000 2.200000
vt 2.469221 2.200000
vt 0.391086 2.200000
vt -0.391086 2.200000
vt 1.767767 2.200000

vn 0.951057 -0.000000 -0.309017
vn 0.587786 -0.000000 0.809017
vn 0.993115 -0.000000 -0.117146
vn 0.587785 0.000000 -0.809017
vn -0.195476 0.000000 -0.980709
vn -0.951057 -0.000000 -0.309017
vn -0.000000 0.000000 -1.000000
vn 0.195476 -0.000000 -0.980709
vn -0.587785 -0.000000 -0.809017
vn -0.993115 0.000000 -0.117147
vn -0.587786 0.000000 0.809017
vn -0.872304 0.000000 -0.488964
vn -0.951057 0.000000 0.309017
vn -0.418302 0.000000 0.908308
vn -0.734589 0.000000 0.678512
vn 0.000000 0.000000 1.000000
vn 0.734589 -0.000000 0.678512
vn 0.418303 0.000000 0.908308
vn 0.951057 0.000000 0.309017
vn 0.872304 0.000000 -0.488964
vn 0.000000 -1.000000 0.000000
vn -0.000000 -1.000000 0.000000
vn 0.000000 1.000000 0.000000
vn -0.000000 1.000000 -0.000000

usemtl border
f 4/4/1 3/3/1 2/2/1 1/1/1
f 6/6/2 5/5/2 3/3/2 4/4/2
f 8/8/3 7/7/3 5/5/3 6/6/3
f 10/10/4 9/9/4 7/7/4 8/8/4
f 12/12/5 11/11/5 9/9/5 10/10/5
f 14/14/6 13/13/6 11/11/6 12/12/6
f 16/16/7 15/15/7 13/13/7 14/14/7
f 18/18/1 17/17/1 15/15/1 16/16/1
f 20/20/8 19/19/8 17/17/8 18/18/8
f 22/22/9 21/21/9 19/19/9 20/20/9
f 24/24/10 23/23/10 21/21/10 22/22/10
f 26/26/11 25/25/11 23/23/11 24/24/11
f 28/28/6 27/27/6 25/25/6 26/26/6
f 30/30/7 29/29/7 27/27/7 28/28/7
f 32/32/12 31/31/12 29/29/12 30/30/12
f 34/34/13 33/33/13 31/31/13 32/32/13
f 36/36/14 35/35/14 33/33/14 34/34/14
f 38/38/2 37/37/2 35/35/2 36/36/2
f 40/40/11 39/39/11 37/37/11 38/38/11
f 42/42/6 41/41/6 39/39/6 40/40/6
f 44/44/15 43/43/15 41/41/15 42/42/15
f 46/46/16 45/45/16 43/43/16 44/44/16
f 48/48/17 47/47/17 45/45/17 46/46/17
f 50/50/1 49/49/1 47/47/1 48/48/1
f 52/52/2 51/51/2 49/49/2 50/50/2
f 54/54/11 53/53/11 51/51/11 52/52/11
f 56/56/18 55/55/18 53/53/18 54/54/18
f 58/58/19 57/57/19 55/55/19 56/56/19
f 60/60/20 59/59/20 57/57/20 58/58/20
f 1/62/7 2/61/7 59/59/7 60/60/7
f 34/65/22 38/64/22 36/63/21
f 35/63/23 37/64/23 33/65/23
f 16/68/21 20/67/21 18/66/21
f 17/66/23 19/67/23 15/68/24
f 22/69/21 26/64/21 24/63/21
f 23/63/23 25/64/24 21/69/23
f 10/72/21 14/71/21 12/70/21
f 11/70/23 13/71/23 9/72/23
f 52/75/21 56/74/22 54/73/21
f 53/73/23 55/74/23 51/75/24
f 28/78/21 32/77/21 30/76/21
f 29/76/23 31/77/23 27/78/24
f 58/81/22 1/80/22 60/79/21
f 59/79/23 2/80/24 57/81/23
f 46/82/21 50/71/21 48/70/21
f 47/70/23 49/71/24 45/82/23
f 40/68/22 44/83/21 42/66/21
f 41/66/23 43/83/23 39/68/23
f 4/75/22 8/84/21 6/73/21
f 5/73/23 7/84/23 3/75/24
f 4/75/22 10/72/21 8/84/21
f 7/84/23 9/72/23 3/75/24
f 4/75/22 14/71/21 10/72/21
f 9/72/23 13/71/23 3/75/24
f 32/77/21 38/64/22 34/65/22
f 33/65/23 37/64/23 31/77/23
f 28/78/21 38/64/22 32/77/21
f 31/77/23 37/64/23 27/78/24
f 16/68/21 22/69/21 20/67/21
f 19/67/23 21/69/23 15/68/24
f 16/68/21 26/64/21 22/69/21
f 21/69/23 25/64/24 15/68/24
f 56/74/22 1/80/22 58/81/22
f 57/81/23 2/80/24 55/74/23
f 52/75/21 1/80/22 56/74/22
f 55/74/23 2/80/24 51/75/24
f 40/68/22 46/82/21 44/83/21
f 43/83/23 45/82/23 39/68/23
f 40/68/22 50/71/21 46/82/21
f 45/82/23 49/71/24 39/68/23
f 52/75/21 4/75/22 1/80/22
f 2/80/24 3/75/24 51/75/24
f 28/78/21 40/68/22 38/64/22
f 37/64/23 39/68/23 27/78/24
f 16/68/21 28/78/21 26/64/21
f 25/64/24 27/78/24 15/68/24
f 16/68/21 40/68/22 28/78/21
f 27/78/24 39/68/23 15/68/24
f 16/68/21 50/71/21 40/68/22
f 39/68/23 49/71/24 15/68/24
f 16/68/21 52/75/21 50/71/21
f 49/71/24 51/75/24 15/68/24
f 16/68/21 4/75/22 52/75/21
f 51/75/24 3/75/24 15/68/24
f 16/68/21 14/71/21 4/75/22
f 3/75/24 13/71/23 15/68/24

usemtl default

