# WaveFront *.obj file (generated by Cheetah3D)

mtllib cyl_6.mtl

g cyl_6
v -0.000000 -0.500000 2.700001
v -0.000000 0.500000 2.700001
v 2.338270 0.500000 1.350001
v 2.338270 -0.500000 1.350001
v 2.338270 0.500000 -1.350001
v 2.338270 -0.500000 -1.350001
v 0.000000 0.500000 -2.700001
v 0.000000 -0.500000 -2.700001
v -2.338270 0.500000 -1.350001
v -2.338270 -0.500000 -1.350001
v -2.338270 0.500000 1.350001
v -2.338270 -0.500000 1.350001

vt 0.000000 1.000000
vt 1.000000 1.000000
vt 1.000000 -1.700001
vt 0.000000 -1.700001
vt 1.000000 -4.400002
vt 0.000000 -4.400002
vt 1.000000 -7.100004
vt 0.000000 -7.100004
vt 1.000000 -9.800005
vt 0.000000 -9.800005
vt 1.000000 -12.500006
vt 0.000000 -12.500006
vt 1.000000 -15.200006
vt 0.000000 -15.200006
vt 0.000000 2.000000
vt -2.338270 2.000000
vt 2.338270 2.000000

vn 0.500000 0.000000 0.866025
vn 1.000000 0.000000 0.000000
vn 0.500000 0.000000 -0.866025
vn -0.500000 0.000000 -0.866025
vn -1.000000 0.000000 0.000000
vn -0.500000 0.000000 0.866025
vn 0.000000 -1.000000 0.000000
vn 0.000000 1.000000 0.000000

usemtl border
f 4/4/1 3/3/1 2/2/1 1/1/1
f 6/6/2 5/5/2 3/3/2 4/4/2
f 8/8/3 7/7/3 5/5/3 6/6/3
f 10/10/4 9/9/4 7/7/4 8/8/4
f 12/12/5 11/11/5 9/9/5 10/10/5
f 1/14/6 2/13/6 11/11/6 12/12/6
f 6/17/7 10/16/7 8/15/7
f 7/15/8 9/16/8 5/17/8
f 4/17/7 10/16/7 6/17/7
f 5/17/8 9/16/8 3/17/8
f 4/17/7 12/16/7 10/16/7
f 9/16/8 11/16/8 3/17/8
f 4/17/7 1/15/7 12/16/7
f 11/16/8 2/15/8 3/17/8

usemtl default

