# WaveFront *.obj file (generated by Cheetah3D)

mtllib cyl_7.mtl

g cyl_7
v -0.000000 -0.500000 2.566309
v -0.000000 0.500000 2.566309
v 2.110946 0.500000 1.549731
v 2.110946 -0.500000 1.549731
v 2.632307 0.500000 -0.734499
v 2.632307 -0.500000 -0.734499
v 1.171487 0.500000 -2.566309
v 1.171487 -0.500000 -2.566309
v -1.171487 0.500000 -2.566309
v -1.171487 -0.500000 -2.566309
v -2.632307 0.500000 -0.734499
v -2.632307 -0.500000 -0.734499
v -2.110946 0.500000 1.549731
v -2.110946 -0.500000 1.549731

vt 0.000000 1.000000
vt 1.000000 1.000000
vt 1.000000 -1.342973
vt 0.000000 -1.342973
vt 1.000000 -3.685946
vt 0.000000 -3.685946
vt 1.000000 -6.028920
vt 0.000000 -6.028920
vt 1.000000 -8.371893
vt 0.000000 -8.371893
vt 1.000000 -10.714866
vt 0.000000 -10.714866
vt 1.000000 -13.057838
vt 0.000000 -13.057838
vt 1.000000 -15.400812
vt 0.000000 -15.400812
vt -1.171487 2.000000
vt -2.632307 2.000000
vt 1.171487 2.000000
vt 2.632307 2.000000
vt 2.110946 2.000000
vt -0.000000 2.000000
vt -2.110946 2.000000

vn 0.433884 0.000000 0.900969
vn 0.974928 0.000000 0.222521
vn 0.781832 -0.000000 -0.623490
vn 0.000000 0.000000 -1.000000
vn -0.781832 0.000000 -0.623490
vn -0.974928 -0.000000 0.222521
vn -0.433884 0.000000 0.900969
vn 0.000000 -1.000000 0.000000
vn 0.000000 1.000000 0.000000

usemtl border
f 4/4/1 3/3/1 2/2/1 1/1/1
f 6/6/2 5/5/2 3/3/2 4/4/2
f 8/8/3 7/7/3 5/5/3 6/6/3
f 10/10/4 9/9/4 7/7/4 8/8/4
f 12/12/5 11/11/5 9/9/5 10/10/5
f 14/14/6 13/13/6 11/11/6 12/12/6
f 1/16/7 2/15/7 13/13/7 14/14/7
f 8/19/8 12/18/8 10/17/8
f 9/17/9 11/18/9 7/19/9
f 6/20/8 12/18/8 8/19/8
f 7/19/9 11/18/9 5/20/9
f 4/21/8 12/18/8 6/20/8
f 5/20/9 11/18/9 3/21/9
f 1/22/8 12/18/8 4/21/8
f 3/21/9 11/18/9 2/22/9
f 1/22/8 14/23/8 12/18/8
f 11/18/9 13/23/9 2/22/9

usemtl default

