# WaveFront *.obj file (generated by Cheetah3D)

mtllib cyl_10.mtl

g cyl_10
v -0.000000 -0.500000 2.700001
v -0.000000 0.500000 2.700001
v 1.587021 0.500000 2.184347
v 1.587021 -0.500000 2.184347
v 2.567854 0.500000 0.834346
v 2.567854 -0.500000 0.834346
v 2.567854 0.500000 -0.834346
v 2.567854 -0.500000 -0.834346
v 1.587021 0.500000 -2.184347
v 1.587021 -0.500000 -2.184347
v 0.000000 0.500000 -2.700001
v 0.000000 -0.500000 -2.700001
v -1.587021 0.500000 -2.184347
v -1.587021 -0.500000 -2.184347
v -2.567854 0.500000 -0.834346
v -2.567854 -0.500000 -0.834346
v -2.567854 0.500000 0.834346
v -2.567854 -0.500000 0.834346
v -1.587021 0.500000 2.184347
v -1.587021 -0.500000 2.184347

vt 0.000000 1.000000
vt 1.000000 1.000000
vt 1.000000 -0.668692
vt 0.000000 -0.668692
vt 1.000000 -2.337385
vt 0.000000 -2.337385
vt 1.000000 -4.006077
vt 0.000000 -4.006077
vt 1.000000 -5.674770
vt 0.000000 -5.674770
vt 1.000000 -7.343463
vt 0.000000 -7.343463
vt 1.000000 -9.012156
vt 0.000000 -9.012156
vt 1.000000 -10.680848
vt 0.000000 -10.680848
vt 1.000000 -12.349542
vt 0.000000 -12.349542
vt 1.000000 -14.018234
vt 0.000000 -14.018234
vt 1.000000 -15.686926
vt 0.000000 -15.686926
vt 0.000000 2.000000
vt -1.587021 2.000000
vt 1.587021 2.000000
vt -0.000000 2.000000
vt 2.567854 2.000000
vt -2.567854 2.000000

vn 0.309017 -0.000000 0.951057
vn 0.809017 0.000000 0.587785
vn 1.000000 0.000000 0.000000
vn 0.809017 0.000000 -0.587785
vn 0.309017 -0.000000 -0.951057
vn -0.309017 -0.000000 -0.951057
vn -0.809017 0.000000 -0.587785
vn -1.000000 0.000000 0.000000
vn -0.809017 0.000000 0.587785
vn -0.309017 -0.000000 0.951057
vn 0.000000 -1.000000 0.000000
vn 0.000000 1.000000 0.000000

usemtl border
f 4/4/1 3/3/1 2/2/1 1/1/1
f 6/6/2 5/5/2 3/3/2 4/4/2
f 8/8/3 7/7/3 5/5/3 6/6/3
f 10/10/4 9/9/4 7/7/4 8/8/4
f 12/12/5 11/11/5 9/9/5 10/10/5
f 14/14/6 13/13/6 11/11/6 12/12/6
f 16/16/7 15/15/7 13/13/7 14/14/7
f 18/18/8 17/17/8 15/15/8 16/16/8
f 20/20/9 19/19/9 17/17/9 18/18/9
f 1/22/10 2/21/10 19/19/10 20/20/10
f 10/25/11 14/24/11 12/23/11
f 11/23/12 13/24/12 9/25/12
f 20/24/11 4/25/11 1/26/11
f 2/26/12 3/25/12 19/24/12
f 6/27/11 10/25/11 8/27/11
f 7/27/12 9/25/12 5/27/12
f 6/27/11 14/24/11 10/25/11
f 9/25/12 13/24/12 5/27/12
f 4/25/11 14/24/11 6/27/11
f 5/27/12 13/24/12 3/25/12
f 20/24/11 14/24/11 4/25/11
f 3/25/12 13/24/12 19/24/12
f 18/28/11 14/24/11 20/24/11
f 19/24/12 13/24/12 17/28/12
f 18/28/11 16/28/11 14/24/11
f 13/24/12 15/28/12 17/28/12

usemtl default

