# WaveFront *.obj file (generated by Cheetah3D)

mtllib cyl_8.mtl

g cyl_8
v -0.000000 -0.500000 2.700001
v -0.000000 0.500000 2.700001
v 1.909189 0.500000 1.909189
v 1.909189 -0.500000 1.909189
v 2.700001 0.500000 0.000000
v 2.700001 -0.500000 0.000000
v 1.909189 0.500000 -1.909189
v 1.909189 -0.500000 -1.909189
v 0.000000 0.500000 -2.700001
v 0.000000 -0.500000 -2.700001
v -1.909189 0.500000 -1.909189
v -1.909189 -0.500000 -1.909189
v -2.700001 0.500000 -0.000000
v -2.700001 -0.500000 -0.000000
v -1.909189 0.500000 1.909189
v -1.909189 -0.500000 1.909189

vt 0.000000 1.000000
vt 1.000000 1.000000
vt 1.000000 -1.066492
vt 0.000000 -1.066492
vt 1.000000 -3.132983
vt 0.000000 -3.132983
vt 1.000000 -5.199474
vt 0.000000 -5.199474
vt 1.000000 -7.265966
vt 0.000000 -7.265966
vt 1.000000 -9.332458
vt 0.000000 -9.332458
vt 1.000000 -11.398950
vt 0.000000 -11.398950
vt 1.000000 -13.465442
vt 0.000000 -13.465442
vt 1.000000 -15.531933
vt 0.000000 -15.531933
vt 0.000000 2.000000
vt -1.909189 2.000000
vt 1.909189 2.000000
vt 2.700001 2.000000
vt -0.000000 2.000000
vt -2.700001 2.000000

vn 0.382683 0.000000 0.923880
vn 0.923880 0.000000 0.382683
vn 0.923880 -0.000000 -0.382683
vn 0.382683 0.000000 -0.923880
vn -0.382683 0.000000 -0.923880
vn -0.923880 0.000000 -0.382683
vn -0.923880 -0.000000 0.382683
vn -0.382683 0.000000 0.923880
vn 0.000000 -1.000000 0.000000
vn 0.000000 1.000000 0.000000

usemtl border
f 4/4/1 3/3/1 2/2/1 1/1/1
f 6/6/2 5/5/2 3/3/2 4/4/2
f 8/8/3 7/7/3 5/5/3 6/6/3
f 10/10/4 9/9/4 7/7/4 8/8/4
f 12/12/5 11/11/5 9/9/5 10/10/5
f 14/14/6 13/13/6 11/11/6 12/12/6
f 16/16/7 15/15/7 13/13/7 14/14/7
f 1/18/8 2/17/8 15/15/8 16/16/8
f 8/21/9 12/20/9 10/19/9
f 9/19/10 11/20/10 7/21/10
f 6/22/9 12/20/9 8/21/9
f 7/21/10 11/20/10 5/22/10
f 4/21/9 12/20/9 6/22/9
f 5/22/10 11/20/10 3/21/10
f 1/23/9 12/20/9 4/21/9
f 3/21/10 11/20/10 2/23/10
f 16/20/9 12/20/9 1/23/9
f 2/23/10 11/20/10 15/20/10
f 16/20/9 14/24/9 12/20/9
f 11/20/10 13/24/10 15/20/10

usemtl default

