# WaveFront *.obj file (generated by Cheetah3D)

mtllib obstacle_flower_4.mtl

g flower_4
v 1.300000 -0.500000 0.000000
v 1.300000 0.500000 0.000000
v 1.375184 0.500000 -0.333488
v 1.375184 -0.500000 -0.333488
v 1.574212 0.500000 -0.520918
v 1.574212 -0.500000 -0.520918
v 2.184664 0.500000 -0.652092
v 2.184664 -0.500000 -0.652092
v 2.813082 0.500000 -0.782501
v 2.813082 -0.500000 -0.782501
v 3.034568 0.500000 -0.968975
v 3.034568 -0.500000 -0.968975
v 3.141192 0.500000 -1.301124
v 3.141192 -0.500000 -1.301124
v 3.052053 0.500000 -2.075953
v 3.052053 -0.500000 -2.075953
v 2.678285 0.500000 -2.678285
v 2.678285 -0.500000 -2.678285
v 2.075954 0.500000 -3.052052
v 2.075954 -0.500000 -3.052052
v 1.301125 0.500000 -3.141191
v 1.301125 -0.500000 -3.141191
v 0.968975 0.500000 -3.034568
v 0.968975 -0.500000 -3.034568
v 0.782502 0.500000 -2.813082
v 0.782502 -0.500000 -2.813082
v 0.652092 0.500000 -2.184664
v 0.652092 -0.500000 -2.184664
v 0.520918 0.500000 -1.574212
v 0.520918 -0.500000 -1.574212
v 0.333488 0.500000 -1.375184
v 0.333488 -0.500000 -1.375184
v 0.000000 0.500000 -1.300000
v 0.000000 -0.500000 -1.300000
v -0.333488 0.500000 -1.375184
v -0.333488 -0.500000 -1.375184
v -0.520918 0.500000 -1.574212
v -0.520918 -0.500000 -1.574212
v -0.652092 0.500000 -2.184664
v -0.652092 -0.500000 -2.184664
v -0.782501 0.500000 -2.813082
v -0.782501 -0.500000 -2.813082
v -0.968975 0.500000 -3.034568
v -0.968975 -0.500000 -3.034568
v -1.301125 0.500000 -3.141191
v -1.301125 -0.500000 -3.141191
v -2.075954 0.500000 -3.052052
v -2.075954 -0.500000 -3.052052
v -2.678285 0.500000 -2.678285
v -2.678285 -0.500000 -2.678285
v -3.052052 0.500000 -2.075953
v -3.052052 -0.500000 -2.075953
v -3.141191 0.500000 -1.301124
v -3.141191 -0.500000 -1.301124
v -3.034568 0.500000 -0.968975
v -3.034568 -0.500000 -0.968975
v -2.813082 0.500000 -0.782501
v -2.813082 -0.500000 -0.782501
v -2.184664 0.500000 -0.652092
v -2.184664 -0.500000 -0.652092
v -1.574212 0.500000 -0.520918
v -1.574212 -0.500000 -0.520918
v -1.375184 0.500000 -0.333488
v -1.375184 -0.500000 -0.333488
v -1.300000 0.500000 -0.000000
v -1.300000 -0.500000 -0.000000
v -1.375184 0.500000 0.333488
v -1.375184 -0.500000 0.333488
v -1.574212 0.500000 0.520917
v -1.574212 -0.500000 0.520917
v -2.184664 0.500000 0.652092
v -2.184664 -0.500000 0.652092
v -2.813082 0.500000 0.782501
v -2.813082 -0.500000 0.782501
v -3.034568 0.500000 0.968974
v -3.034568 -0.500000 0.968974
v -3.141192 0.500000 1.301124
v -3.141192 -0.500000 1.301124
v -3.052053 0.500000 2.075953
v -3.052053 -0.500000 2.075953
v -2.678285 0.500000 2.678284
v -2.678285 -0.500000 2.678284
v -2.075954 0.500000 3.052052
v -2.075954 -0.500000 3.052052
v -1.301125 0.500000 3.141191
v -1.301125 -0.500000 3.141191
v -0.968975 0.500000 3.034568
v -0.968975 -0.500000 3.034568
v -0.782502 0.500000 2.813082
v -0.782502 -0.500000 2.813082
v -0.652092 0.500000 2.184664
v -0.652092 -0.500000 2.184664
v -0.520918 0.500000 1.574212
v -0.520918 -0.500000 1.574212
v -0.333488 0.500000 1.375184
v -0.333488 -0.500000 1.375184
v -0.000000 0.500000 1.300000
v -0.000000 -0.500000 1.300000
v 0.333488 0.500000 1.375184
v 0.333488 -0.500000 1.375184
v 0.520918 0.500000 1.574212
v 0.520918 -0.500000 1.574212
v 0.652092 0.500000 2.184664
v 0.652092 -0.500000 2.184664
v 0.782501 0.500000 2.813082
v 0.782501 -0.500000 2.813082
v 0.968975 0.500000 3.034568
v 0.968975 -0.500000 3.034568
v 1.301124 0.500000 3.141191
v 1.301124 -0.500000 3.141191
v 2.075953 0.500000 3.052053
v 2.075953 -0.500000 3.052053
v 2.678284 0.500000 2.678285
v 2.678284 -0.500000 2.678285
v 3.052052 0.500000 2.075953
v 3.052052 -0.500000 2.075953
v 3.141191 0.500000 1.301124
v 3.141191 -0.500000 1.301124
v 3.034568 0.500000 0.968975
v 3.034568 -0.500000 0.968975
v 2.813082 0.500000 0.782501
v 2.813082 -0.500000 0.782501
v 2.184664 0.500000 0.652092
v 2.184664 -0.500000 0.652092
v 1.574212 0.500000 0.520918
v 1.574212 -0.500000 0.520918
v 1.375184 0.500000 0.333488
v 1.375184 -0.500000 0.333488

vt 0.000000 1.000000
vt 1.000000 1.000000
vt 1.000000 0.658142
vt 0.000000 0.658142
vt 1.000000 0.384752
vt 0.000000 0.384752
vt 1.000000 -0.239635
vt 0.000000 -0.239635
vt 1.000000 -0.881441
vt 0.000000 -0.881441
vt 1.000000 -1.170973
vt 0.000000 -1.170973
vt 1.000000 -1.519816
vt 0.000000 -1.519816
vt 1.000000 -2.299756
vt 0.000000 -2.299756
vt 1.000000 -3.008632
vt 0.000000 -3.008632
vt 1.000000 -3.717508
vt 0.000000 -3.717508
vt 1.000000 -4.497448
vt 0.000000 -4.497448
vt 1.000000 -4.846292
vt 0.000000 -4.846292
vt 1.000000 -5.135823
vt 0.000000 -5.135823
vt 1.000000 -5.777630
vt 0.000000 -5.777630
vt 1.000000 -6.402017
vt 0.000000 -6.402017
vt 1.000000 -6.675406
vt 0.000000 -6.675406
vt 1.000000 -7.017264
vt 0.000000 -7.017264
vt 1.000000 -7.359122
vt 0.000000 -7.359122
vt 1.000000 -7.632512
vt 0.000000 -7.632512
vt 1.000000 -8.256899
vt 0.000000 -8.256899
vt 1.000000 -8.898705
vt 0.000000 -8.898705
vt 1.000000 -9.188236
vt 0.000000 -9.188236
vt 1.000000 -9.537080
vt 0.000000 -9.537080
vt 1.000000 -10.317019
vt 0.000000 -10.317019
vt 1.000000 -11.025895
vt 0.000000 -11.025895
vt 1.000000 -11.734771
vt 0.000000 -11.734771
vt 1.000000 -12.514710
vt 0.000000 -12.514710
vt 1.000000 -12.863554
vt 0.000000 -12.863554
vt 1.000000 -13.153085
vt 0.000000 -13.153085
vt 1.000000 -13.794892
vt 0.000000 -13.794892
vt 1.000000 -14.419278
vt 0.000000 -14.419278
vt 1.000000 -14.692668
vt 0.000000 -14.692668
vt 1.000000 -15.034525
vt 0.000000 -15.034525
vt 1.000000 -15.376383
vt 0.000000 -15.376383
vt 1.000000 -15.649773
vt 0.000000 -15.649773
vt 1.000000 -16.274158
vt 0.000000 -16.274158
vt 1.000000 -16.915966
vt 0.000000 -16.915966
vt 1.000000 -17.205498
vt 0.000000 -17.205498
vt 1.000000 -17.554340
vt 0.000000 -17.554340
vt 1.000000 -18.334280
vt 0.000000 -18.334280
vt 1.000000 -19.043156
vt 0.000000 -19.043156
vt 1.000000 -19.752031
vt 0.000000 -19.752031
vt 1.000000 -20.531971
vt 0.000000 -20.531971
vt 1.000000 -20.880816
vt 0.000000 -20.880816
vt 1.000000 -21.170345
vt 0.000000 -21.170345
vt 1.000000 -21.812151
vt 0.000000 -21.812151
vt 1.000000 -22.436539
vt 0.000000 -22.436539
vt 1.000000 -22.709929
vt 0.000000 -22.709929
vt 1.000000 -23.051788
vt 0.000000 -23.051788
vt 1.000000 -23.393646
vt 0.000000 -23.393646
vt 1.000000 -23.667036
vt 0.000000 -23.667036
vt 1.000000 -24.291424
vt 0.000000 -24.291424
vt 1.000000 -24.933229
vt 0.000000 -24.933229
vt 1.000000 -25.222761
vt 0.000000 -25.222761
vt 1.000000 -25.571606
vt 0.000000 -25.571606
vt 1.000000 -26.351543
vt 0.000000 -26.351543
vt 1.000000 -27.060419
vt 0.000000 -27.060419
vt 1.000000 -27.769295
vt 0.000000 -27.769295
vt 1.000000 -28.549234
vt 0.000000 -28.549234
vt 1.000000 -28.898079
vt 0.000000 -28.898079
vt 1.000000 -29.187609
vt 0.000000 -29.187609
vt 1.000000 -29.829414
vt 0.000000 -29.829414
vt 1.000000 -30.453802
vt 0.000000 -30.453802
vt 1.000000 -30.727192
vt 0.000000 -30.727192
vt 1.000000 -31.069050
vt 0.000000 -31.069050
vt 0.782502 2.010453
vt 1.301125 2.010453
vt 0.968975 2.010453
vt -0.782502 2.010453
vt -1.301125 2.010453
vt -0.968975 2.010453
vt 2.813082 2.010453
vt 3.141191 2.010453
vt 3.034568 2.010453
vt -2.813082 2.010453
vt -3.141191 2.010453
vt -3.034568 2.010453
vt -2.184664 2.010453
vt -3.052052 2.010453
vt -2.678285 2.010453
vt -2.075954 2.010453
vt -1.574212 2.010453
vt -0.652092 2.010453
vt -0.520918 2.010453
vt -0.333488 2.010453
vt -1.375184 2.010453
vt -1.300000 2.010453
vt 0.000000 2.010453
vt 2.184664 2.010453
vt 3.052052 2.010453
vt 2.678284 2.010453
vt 2.075953 2.010453
vt 1.574212 2.010453
vt 0.652092 2.010453
vt 0.520918 2.010453
vt 1.375184 2.010453
vt 0.333488 2.010453
vt -0.000000 2.010453
vt 1.300000 2.010453

vn 0.975516 0.000000 0.219927
vn 0.685576 -0.000000 0.728001
vn 0.210085 0.000000 0.977683
vn 0.206639 0.000000 0.978417
vn 0.203191 0.000000 0.979139
vn 0.644054 0.000000 0.764980
vn 0.952144 0.000000 0.305650
vn 0.993447 0.000000 -0.114290
vn 0.849699 0.000000 -0.527268
vn 0.527268 0.000000 -0.849699
vn 0.114290 0.000000 -0.993447
vn -0.305649 0.000000 -0.952144
vn -0.764980 -0.000000 -0.644054
vn -0.979139 0.000000 -0.203191
vn -0.978417 -0.000000 -0.206639
vn -0.977683 -0.000000 -0.210085
vn -0.728000 0.000000 -0.685577
vn -0.219927 -0.000000 -0.975516
vn 0.219927 -0.000000 -0.975516
vn 0.728000 0.000000 -0.685577
vn 0.977683 -0.000000 -0.210085
vn 0.978417 -0.000000 -0.206639
vn 0.979139 0.000000 -0.203191
vn 0.764980 -0.000000 -0.644054
vn 0.305649 0.000000 -0.952144
vn -0.114290 0.000000 -0.993447
vn -0.527268 -0.000000 -0.849699
vn -0.849699 0.000000 -0.527268
vn -0.993447 0.000000 -0.114290
vn -0.952144 -0.000000 0.305649
vn -0.644054 -0.000000 0.764980
vn -0.203191 0.000000 0.979139
vn -0.206639 0.000000 0.978417
vn -0.210085 0.000000 0.977683
vn -0.685577 0.000000 0.728000
vn -0.975516 0.000000 0.219927
vn -0.975516 -0.000000 -0.219928
vn -0.685577 0.000000 -0.728001
vn -0.210085 0.000000 -0.977683
vn -0.206639 0.000000 -0.978417
vn -0.203191 0.000000 -0.979139
vn -0.644054 0.000000 -0.764980
vn -0.952144 0.000000 -0.305651
vn -0.993447 -0.000000 0.114290
vn -0.849699 0.000000 0.527268
vn -0.527269 -0.000000 0.849699
vn -0.114290 0.000000 0.993447
vn 0.305649 0.000000 0.952144
vn 0.764980 -0.000000 0.644054
vn 0.979139 0.000000 0.203191
vn 0.978417 -0.000000 0.206639
vn 0.977683 -0.000000 0.210085
vn 0.728000 0.000000 0.685577
vn 0.219927 -0.000000 0.975516
vn -0.219927 -0.000000 0.975516
vn -0.728000 0.000000 0.685577
vn -0.977683 0.000000 0.210085
vn -0.978417 0.000000 0.206639
vn -0.979139 0.000000 0.203191
vn -0.764980 0.000000 0.644054
vn -0.305649 0.000000 0.952144
vn 0.114289 0.000000 0.993448
vn 0.527269 0.000000 0.849699
vn 0.849699 0.000000 0.527268
vn 0.993447 0.000000 0.114290
vn 0.952144 0.000000 -0.305650
vn 0.644054 -0.000000 -0.764980
vn 0.203191 -0.000000 -0.979139
vn 0.206639 -0.000000 -0.978417
vn 0.210085 0.000000 -0.977683
vn 0.685576 0.000000 -0.728001
vn 0.975516 0.000000 -0.219927
vn -0.000000 -1.000000 -0.000000
vn 0.000000 -1.000000 0.000000
vn 0.000000 1.000000 0.000000
vn -0.000000 1.000000 0.000000

usemtl border
f 4/4/1 3/3/1 2/2/1 1/1/1
f 6/6/2 5/5/2 3/3/2 4/4/2
f 8/8/4 7/7/4 5/5/3 6/6/3
f 10/10/5 9/9/5 7/7/4 8/8/4
f 12/12/6 11/11/6 9/9/6 10/10/6
f 14/14/7 13/13/7 11/11/7 12/12/7
f 16/16/8 15/15/8 13/13/8 14/14/8
f 18/18/9 17/17/9 15/15/9 16/16/9
f 20/20/10 19/19/10 17/17/10 18/18/10
f 22/22/11 21/21/11 19/19/11 20/20/11
f 24/24/12 23/23/12 21/21/12 22/22/12
f 26/26/13 25/25/13 23/23/13 24/24/13
f 28/28/15 27/27/15 25/25/14 26/26/14
f 30/30/16 29/29/16 27/27/15 28/28/15
f 32/32/17 31/31/17 29/29/17 30/30/17
f 34/34/18 33/33/18 31/31/18 32/32/18
f 36/36/19 35/35/19 33/33/19 34/34/19
f 38/38/20 37/37/20 35/35/20 36/36/20
f 40/40/22 39/39/22 37/37/21 38/38/21
f 42/42/23 41/41/23 39/39/22 40/40/22
f 44/44/24 43/43/24 41/41/24 42/42/24
f 46/46/25 45/45/25 43/43/25 44/44/25
f 48/48/26 47/47/26 45/45/26 46/46/26
f 50/50/27 49/49/27 47/47/27 48/48/27
f 52/52/28 51/51/28 49/49/28 50/50/28
f 54/54/29 53/53/29 51/51/29 52/52/29
f 56/56/30 55/55/30 53/53/30 54/54/30
f 58/58/31 57/57/31 55/55/31 56/56/31
f 60/60/33 59/59/33 57/57/32 58/58/32
f 62/62/34 61/61/34 59/59/33 60/60/33
f 64/64/35 63/63/35 61/61/35 62/62/35
f 66/66/36 65/65/36 63/63/36 64/64/36
f 68/68/37 67/67/37 65/65/37 66/66/37
f 70/70/38 69/69/38 67/67/38 68/68/38
f 72/72/40 71/71/40 69/69/39 70/70/39
f 74/74/41 73/73/41 71/71/40 72/72/40
f 76/76/42 75/75/42 73/73/42 74/74/42
f 78/78/43 77/77/43 75/75/43 76/76/43
f 80/80/44 79/79/44 77/77/44 78/78/44
f 82/82/45 81/81/45 79/79/45 80/80/45
f 84/84/46 83/83/46 81/81/46 82/82/46
f 86/86/47 85/85/47 83/83/47 84/84/47
f 88/88/48 87/87/48 85/85/48 86/86/48
f 90/90/49 89/89/49 87/87/49 88/88/49
f 92/92/51 91/91/51 89/89/50 90/90/50
f 94/94/52 93/93/52 91/91/51 92/92/51
f 96/96/53 95/95/53 93/93/53 94/94/53
f 98/98/54 97/97/54 95/95/54 96/96/54
f 100/100/55 99/99/55 97/97/55 98/98/55
f 102/102/56 101/101/56 99/99/56 100/100/56
f 104/104/58 103/103/58 101/101/57 102/102/57
f 106/106/59 105/105/59 103/103/58 104/104/58
f 108/108/60 107/107/60 105/105/60 106/106/60
f 110/110/61 109/109/61 107/107/61 108/108/61
f 112/112/62 111/111/62 109/109/62 110/110/62
f 114/114/63 113/113/63 111/111/63 112/112/63
f 116/116/64 115/115/64 113/113/64 114/114/64
f 118/118/65 117/117/65 115/115/65 116/116/65
f 120/120/66 119/119/66 117/117/66 118/118/66
f 122/122/67 121/121/67 119/119/67 120/120/67
f 124/124/69 123/123/69 121/121/68 122/122/68
f 126/126/70 125/125/70 123/123/69 124/124/69
f 128/128/71 127/127/71 125/125/71 126/126/71
f 1/130/72 2/129/72 127/127/72 128/128/72
f 24/133/74 22/132/73 26/131/73
f 25/131/75 21/132/75 23/133/75
f 88/136/74 86/135/73 90/134/73
f 89/134/75 85/135/75 87/136/75
f 44/136/74 42/134/73 46/135/74
f 45/135/76 41/134/75 43/136/75
f 120/139/73 118/138/73 122/137/73
f 121/137/75 117/138/75 119/139/75
f 56/142/73 54/141/73 58/140/73
f 57/140/75 53/141/75 55/142/75
f 76/142/74 74/140/74 78/141/74
f 77/141/75 73/140/75 75/142/75
f 108/133/74 106/131/73 110/132/74
f 109/132/76 105/131/75 107/133/75
f 12/139/74 10/137/74 14/138/74
f 13/138/75 9/137/75 11/139/75
f 58/140/73 54/141/73 60/143/73
f 59/143/76 53/141/75 57/140/75
f 54/141/73 52/144/73 60/143/73
f 59/143/76 51/144/76 53/141/75
f 52/144/73 50/145/74 60/143/73
f 59/143/76 49/145/76 51/144/76
f 50/145/74 48/146/73 60/143/73
f 59/143/76 47/146/75 49/145/76
f 60/143/73 48/146/73 62/147/74
f 61/147/75 47/146/75 59/143/76
f 48/146/73 46/135/74 62/147/74
f 61/147/75 45/135/76 47/146/75
f 46/135/74 42/134/73 62/147/74
f 61/147/75 41/134/75 45/135/76
f 42/134/73 40/148/73 62/147/74
f 61/147/75 39/148/75 41/134/75
f 40/148/73 38/149/74 62/147/74
f 61/147/75 37/149/75 39/148/75
f 38/149/74 36/150/74 62/147/74
f 61/147/75 35/150/75 37/149/75
f 62/147/74 36/150/74 64/151/74
f 63/151/75 35/150/75 61/147/75
f 64/151/74 36/150/74 66/152/73
f 65/152/75 35/150/75 63/151/75
f 36/150/74 34/153/73 66/152/73
f 65/152/75 33/153/75 35/150/75
f 122/137/73 118/138/73 124/154/73
f 123/154/76 117/138/75 121/137/75
f 118/138/73 116/155/73 124/154/73
f 123/154/76 115/155/76 117/138/75
f 116/155/73 114/156/74 124/154/73
f 123/154/76 113/156/76 115/155/76
f 114/156/74 112/157/73 124/154/73
f 123/154/76 111/157/75 113/156/76
f 124/154/73 112/157/73 126/158/74
f 125/158/75 111/157/75 123/154/76
f 112/157/73 110/132/74 126/158/74
f 125/158/75 109/132/76 111/157/75
f 110/132/74 106/131/73 126/158/74
f 125/158/75 105/131/75 109/132/76
f 106/131/73 104/159/73 126/158/74
f 125/158/75 103/159/75 105/131/75
f 104/159/73 102/160/74 126/158/74
f 125/158/75 101/160/75 103/159/75
f 126/158/74 102/160/74 128/161/74
f 127/161/75 101/160/75 125/158/75
f 102/160/74 100/162/74 128/161/74
f 127/161/75 99/162/75 101/160/75
f 100/162/74 98/163/74 128/161/74
f 127/161/75 97/163/75 99/162/75
f 128/161/74 98/163/74 1/164/74
f 2/164/75 97/163/75 127/161/75
f 26/131/73 22/132/73 28/159/73
f 27/159/75 21/132/75 25/131/75
f 22/132/73 20/157/74 28/159/73
f 27/159/75 19/157/76 21/132/75
f 20/157/74 18/156/74 28/159/73
f 27/159/75 17/156/76 19/157/76
f 18/156/74 16/155/74 28/159/73
f 27/159/75 15/155/76 17/156/76
f 28/159/73 16/155/74 30/160/73
f 29/160/75 15/155/76 27/159/75
f 16/155/74 14/138/74 30/160/73
f 29/160/75 13/138/75 15/155/76
f 14/138/74 10/137/74 30/160/73
f 29/160/75 9/137/75 13/138/75
f 10/137/74 8/154/73 30/160/73
f 29/160/75 7/154/75 9/137/75
f 8/154/73 6/158/73 30/160/73
f 29/160/75 5/158/75 7/154/75
f 30/160/73 6/158/73 32/162/73
f 31/162/75 5/158/75 29/160/75
f 6/158/73 4/161/73 32/162/73
f 31/162/75 3/161/75 5/158/75
f 32/162/73 4/161/73 34/153/73
f 33/153/75 3/161/75 31/162/75
f 34/153/73 4/161/73 66/152/73
f 65/152/75 3/161/75 33/153/75
f 4/161/73 1/164/74 66/152/73
f 65/152/75 2/164/75 3/161/75
f 1/164/74 98/163/74 66/152/73
f 65/152/75 97/163/75 2/164/75
f 98/163/74 96/150/73 66/152/73
f 65/152/75 95/150/75 97/163/75
f 66/152/73 96/150/73 68/151/73
f 67/151/75 95/150/75 65/152/75
f 68/151/73 96/150/73 70/147/73
f 69/147/75 95/150/75 67/151/75
f 96/150/73 94/149/73 70/147/73
f 69/147/75 93/149/75 95/150/75
f 90/134/73 86/135/73 92/148/73
f 91/148/75 85/135/75 89/134/75
f 86/135/73 84/146/74 92/148/73
f 91/148/75 83/146/76 85/135/75
f 84/146/74 82/145/74 92/148/73
f 91/148/75 81/145/76 83/146/76
f 82/145/74 80/144/74 92/148/73
f 91/148/75 79/144/76 81/145/76
f 92/148/73 80/144/74 94/149/73
f 93/149/75 79/144/76 91/148/75
f 94/149/73 80/144/74 70/147/73
f 69/147/75 79/144/76 93/149/75
f 70/147/73 80/144/74 72/143/74
f 71/143/75 79/144/76 69/147/75
f 80/144/74 78/141/74 72/143/74
f 71/143/75 77/141/75 79/144/76
f 78/141/74 74/140/74 72/143/74
f 71/143/75 73/140/75 77/141/75

usemtl default

