# WaveFront *.obj file (generated by Cheetah3D)

mtllib obstacle_flower_5.mtl

g flower_5
v 1.478690 -0.500000 0.000000
v 1.478690 0.500000 0.000000
v 1.559777 0.500000 -0.346110
v 1.559777 -0.500000 -0.346110
v 1.775709 0.500000 -0.524778
v 1.775709 -0.500000 -0.524778
v 2.448132 0.500000 -0.594150
v 2.448132 -0.500000 -0.594150
v 3.168008 0.500000 -0.636836
v 3.168008 -0.500000 -0.636836
v 3.443257 0.500000 -0.782148
v 3.443257 -0.500000 -0.782148
v 3.607388 0.500000 -1.081559
v 3.607388 -0.500000 -1.081559
v 3.667127 0.500000 -1.786765
v 3.667127 -0.500000 -1.786765
v 3.470924 0.500000 -2.319293
v 3.470924 -0.500000 -2.319293
v 3.025090 0.500000 -2.670454
v 3.025090 -0.500000 -2.670454
v 2.335939 0.500000 -2.831559
v 2.335939 -0.500000 -2.831559
v 2.000463 0.500000 -2.767984
v 2.000463 -0.500000 -2.767984
v 1.777207 0.500000 -2.551111
v 1.777207 -0.500000 -2.551111
v 1.514155 0.500000 -1.879659
v 1.514155 -0.500000 -1.879659
v 1.240388 0.500000 -1.261584
v 1.240388 -0.500000 -1.261584
v 1.003738 0.500000 -1.111432
v 1.003738 -0.500000 -1.111432
v 0.649511 0.500000 -1.141267
v 0.649511 -0.500000 -1.141267
v 0.345398 0.500000 -1.325340
v 0.345398 -0.500000 -1.325340
v 0.242201 0.500000 -1.585915
v 0.242201 -0.500000 -1.585915
v 0.384014 0.500000 -2.246864
v 0.384014 -0.500000 -2.246864
v 0.565871 0.500000 -2.944698
v 0.565871 -0.500000 -2.944698
v 0.512728 0.500000 -3.251379
v 0.512728 -0.500000 -3.251379
v 0.278690 0.500000 -3.500000
v 0.278690 -0.500000 -3.500000
v -0.373540 0.500000 -3.774736
v -0.373540 -0.500000 -3.774736
v -0.940634 0.500000 -3.752695
v -0.940634 -0.500000 -3.752695
v -1.412378 0.500000 -3.437197
v -1.412378 -0.500000 -3.437197
v -1.778558 0.500000 -2.831560
v -1.778558 -0.500000 -2.831560
v -1.821762 0.500000 -2.492857
v -1.821762 -0.500000 -2.492857
v -1.684493 0.500000 -2.213510
v -1.684493 -0.500000 -2.213510
v -1.127192 0.500000 -1.755843
v -1.127192 -0.500000 -1.755843
v -0.623966 0.500000 -1.304480
v -0.623966 -0.500000 -1.304480
v -0.554292 0.500000 -1.033013
v -0.554292 -0.500000 -1.033013
v -0.692130 0.500000 -0.705342
v -0.692130 -0.500000 -0.705342
v -0.961169 0.500000 -0.472995
v -0.961169 -0.500000 -0.472995
v -1.240880 0.500000 -0.455371
v -1.240880 -0.500000 -0.455371
v -1.825657 0.500000 -0.794488
v -1.825657 -0.500000 -0.794488
v -2.433140 0.500000 -1.183087
v -2.433140 -0.500000 -1.183087
v -2.741233 0.500000 -1.227314
v -2.741233 -0.500000 -1.227314
v -3.050008 0.500000 -1.081559
v -3.050008 -0.500000 -1.081559
v -3.512847 0.500000 -0.546150
v -3.512847 -0.500000 -0.546150
v -3.667127 0.500000 -0.000000
v -3.667127 -0.500000 -0.000000
v -3.512847 0.500000 0.546149
v -3.512847 -0.500000 0.546149
v -3.050008 0.500000 1.081559
v -3.050008 -0.500000 1.081559
v -2.741233 0.500000 1.227314
v -2.741233 -0.500000 1.227314
v -2.433140 0.500000 1.183086
v -2.433140 -0.500000 1.183086
v -1.825657 0.500000 0.794488
v -1.825657 -0.500000 0.794488
v -1.240880 0.500000 0.455371
v -1.240880 -0.500000 0.455371
v -0.961169 0.500000 0.472995
v -0.961169 -0.500000 0.472995
v -0.692130 0.500000 0.705342
v -0.692130 -0.500000 0.705342
v -0.554292 0.500000 1.033013
v -0.554292 -0.500000 1.033013
v -0.623966 0.500000 1.304480
v -0.623966 -0.500000 1.304480
v -1.127192 0.500000 1.755843
v -1.127192 -0.500000 1.755843
v -1.684494 0.500000 2.213510
v -1.684494 -0.500000 2.213510
v -1.821763 0.500000 2.492857
v -1.821763 -0.500000 2.492857
v -1.778558 0.500000 2.831559
v -1.778558 -0.500000 2.831559
v -1.412379 0.500000 3.437196
v -1.412379 -0.500000 3.437196
v -0.940634 0.500000 3.752695
v -0.940634 -0.500000 3.752695
v -0.373540 0.500000 3.774736
v -0.373540 -0.500000 3.774736
v 0.278690 0.500000 3.500000
v 0.278690 -0.500000 3.500000
v 0.512728 0.500000 3.251379
v 0.512728 -0.500000 3.251379
v 0.565871 0.500000 2.944698
v 0.565871 -0.500000 2.944698
v 0.384014 0.500000 2.246864
v 0.384014 -0.500000 2.246864
v 0.242200 0.500000 1.585914
v 0.242200 -0.500000 1.585914
v 0.345397 0.500000 1.325340
v 0.345397 -0.500000 1.325340
v 0.649511 0.500000 1.141268
v 0.649511 -0.500000 1.141268
v 1.003738 0.500000 1.111432
v 1.003738 -0.500000 1.111432
v 1.240388 0.500000 1.261584
v 1.240388 -0.500000 1.261584
v 1.514154 0.500000 1.879659
v 1.514154 -0.500000 1.879659
v 1.777206 0.500000 2.551111
v 1.777206 -0.500000 2.551111
v 2.000463 0.500000 2.767985
v 2.000463 -0.500000 2.767985
v 2.335938 0.500000 2.831559
v 2.335938 -0.500000 2.831559
v 3.025090 0.500000 2.670455
v 3.025090 -0.500000 2.670455
v 3.470923 0.500000 2.319293
v 3.470923 -0.500000 2.319293
v 3.667127 0.500000 1.786765
v 3.667127 -0.500000 1.786765
v 3.607388 0.500000 1.081560
v 3.607388 -0.500000 1.081560
v 3.443257 0.500000 0.782148
v 3.443257 -0.500000 0.782148
v 3.168008 0.500000 0.636837
v 3.168008 -0.500000 0.636837
v 2.448132 0.500000 0.594150
v 2.448132 -0.500000 0.594150
v 1.775709 0.500000 0.524778
v 1.775709 -0.500000 0.524778
v 1.559777 0.500000 0.346110
v 1.559777 -0.500000 0.346110

vt 0.000000 1.000000
vt 1.000000 1.000000
vt 1.000000 0.644518
vt 0.000000 0.644518
vt 1.000000 0.364253
vt 0.000000 0.364253
vt 1.000000 -0.311739
vt 0.000000 -0.311739
vt 1.000000 -1.032880
vt 0.000000 -1.032880
vt 1.000000 -1.344131
vt 0.000000 -1.344131
vt 1.000000 -1.685579
vt 0.000000 -1.685579
vt 1.000000 -2.393310
vt 0.000000 -2.393310
vt 1.000000 -2.960833
vt 0.000000 -2.960833
vt 1.000000 -3.528355
vt 0.000000 -3.528355
vt 1.000000 -4.236086
vt 0.000000 -4.236086
vt 1.000000 -4.577533
vt 0.000000 -4.577533
vt 1.000000 -4.888784
vt 0.000000 -4.888784
vt 1.000000 -5.609926
vt 0.000000 -5.609926
vt 1.000000 -6.285917
vt 0.000000 -6.285917
vt 1.000000 -6.566183
vt 0.000000 -6.566183
vt 1.000000 -6.921665
vt 0.000000 -6.921665
vt 1.000000 -7.277146
vt 0.000000 -7.277146
vt 1.000000 -7.557412
vt 0.000000 -7.557412
vt 1.000000 -8.233404
vt 0.000000 -8.233404
vt 1.000000 -8.954545
vt 0.000000 -8.954545
vt 1.000000 -9.265798
vt 0.000000 -9.265798
vt 1.000000 -9.607244
vt 0.000000 -9.607244
vt 1.000000 -10.314975
vt 0.000000 -10.314975
vt 1.000000 -10.882497
vt 0.000000 -10.882497
vt 1.000000 -11.450019
vt 0.000000 -11.450019
vt 1.000000 -12.157750
vt 0.000000 -12.157750
vt 1.000000 -12.499197
vt 0.000000 -12.499197
vt 1.000000 -12.810449
vt 0.000000 -12.810449
vt 1.000000 -13.531590
vt 0.000000 -13.531590
vt 1.000000 -14.207582
vt 0.000000 -14.207582
vt 1.000000 -14.487847
vt 0.000000 -14.487847
vt 1.000000 -14.843329
vt 0.000000 -14.843329
vt 1.000000 -15.198811
vt 0.000000 -15.198811
vt 1.000000 -15.479076
vt 0.000000 -15.479076
vt 1.000000 -16.155069
vt 0.000000 -16.155069
vt 1.000000 -16.876209
vt 0.000000 -16.876209
vt 1.000000 -17.187462
vt 0.000000 -17.187462
vt 1.000000 -17.528910
vt 0.000000 -17.528910
vt 1.000000 -18.236641
vt 0.000000 -18.236641
vt 1.000000 -18.804163
vt 0.000000 -18.804163
vt 1.000000 -19.371685
vt 0.000000 -19.371685
vt 1.000000 -20.079416
vt 0.000000 -20.079416
vt 1.000000 -20.420862
vt 0.000000 -20.420862
vt 1.000000 -20.732113
vt 0.000000 -20.732113
vt 1.000000 -21.453253
vt 0.000000 -21.453253
vt 1.000000 -22.129244
vt 0.000000 -22.129244
vt 1.000000 -22.409510
vt 0.000000 -22.409510
vt 1.000000 -22.764992
vt 0.000000 -22.764992
vt 1.000000 -23.120474
vt 0.000000 -23.120474
vt 1.000000 -23.400740
vt 0.000000 -23.400740
vt 1.000000 -24.076733
vt 0.000000 -24.076733
vt 1.000000 -24.797873
vt 0.000000 -24.797873
vt 1.000000 -25.109123
vt 0.000000 -25.109123
vt 1.000000 -25.450569
vt 0.000000 -25.450569
vt 1.000000 -26.158300
vt 0.000000 -26.158300
vt 1.000000 -26.725822
vt 0.000000 -26.725822
vt 1.000000 -27.293344
vt 0.000000 -27.293344
vt 1.000000 -28.001076
vt 0.000000 -28.001076
vt 1.000000 -28.342522
vt 0.000000 -28.342522
vt 1.000000 -28.653772
vt 0.000000 -28.653772
vt 1.000000 -29.374912
vt 0.000000 -29.374912
vt 1.000000 -30.050903
vt 0.000000 -30.050903
vt 1.000000 -30.331169
vt 0.000000 -30.331169
vt 1.000000 -30.686651
vt 0.000000 -30.686651
vt 1.000000 -31.042133
vt 0.000000 -31.042133
vt 1.000000 -31.322399
vt 0.000000 -31.322399
vt 1.000000 -31.998390
vt 0.000000 -31.998390
vt 1.000000 -32.719528
vt 0.000000 -32.719528
vt 1.000000 -33.030781
vt 0.000000 -33.030781
vt 1.000000 -33.372227
vt 0.000000 -33.372227
vt 1.000000 -34.079956
vt 0.000000 -34.079956
vt 1.000000 -34.647480
vt 0.000000 -34.647480
vt 1.000000 -35.215000
vt 0.000000 -35.215000
vt 1.000000 -35.922733
vt 0.000000 -35.922733
vt 1.000000 -36.264179
vt 0.000000 -36.264179
vt 1.000000 -36.575432
vt 0.000000 -36.575432
vt 1.000000 -37.296570
vt 0.000000 -37.296570
vt 1.000000 -37.972565
vt 0.000000 -37.972565
vt 1.000000 -38.252831
vt 0.000000 -38.252831
vt 1.000000 -38.608311
vt 0.000000 -38.608311
vt 0.000000 2.010453
vt 0.287181 2.010453
vt 0.234038 2.010453
vt -2.057248 2.010453
vt -1.963184 2.010453
vt -2.100453 2.010453
vt 1.498516 2.010453
vt 2.057249 2.010453
vt 1.721773 2.010453
vt -3.328698 2.010453
vt -2.711830 2.010453
vt -3.019923 2.010453
vt 3.328698 2.010453
vt 2.889318 2.010453
vt 3.164567 2.010453
vt 1.235465 2.010453
vt 2.746400 2.010453
vt 3.192233 2.010453
vt 3.388437 2.010453
vt 2.169441 2.010453
vt 0.961698 2.010453
vt 1.497018 2.010453
vt 0.725048 2.010453
vt 1.281087 2.010453
vt 1.200000 2.010453
vt 0.370820 2.010453
vt -1.405882 2.010453
vt -1.691069 2.010453
vt -1.219324 2.010453
vt -0.652230 2.010453
vt 0.105324 2.010453
vt -0.902656 2.010453
vt -0.036490 2.010453
vt 0.066707 2.010453
vt -0.832983 2.010453
vt -0.970820 2.010453
vt -1.239859 2.010453
vt -2.104347 2.010453
vt -3.791538 2.010453
vt -3.945817 2.010453
vt -1.519570 2.010453

vn 0.973637 0.000000 0.228105
vn 0.637496 0.000000 0.770453
vn 0.102622 0.000000 0.994720
vn 0.080927 0.000000 0.996720
vn 0.059193 0.000000 0.998247
vn 0.466863 0.000000 0.884330
vn 0.876889 0.000000 0.480693
vn 0.996431 0.000000 0.084409
vn 0.938338 0.000000 -0.345720
vn 0.618762 0.000000 -0.785579
vn 0.227636 0.000000 -0.973746
vn -0.186192 -0.000000 -0.982513
vn -0.696778 0.000000 -0.717286
vn -0.931097 0.000000 -0.364771
vn -0.922929 -0.000000 -0.384970
vn -0.914323 -0.000000 -0.404985
vn -0.535748 0.000000 -0.844378
vn 0.083930 0.000000 -0.996472
vn 0.517811 0.000000 -0.855495
vn 0.929742 0.000000 -0.368211
vn 0.977747 0.000000 0.209786
vn 0.972945 -0.000000 0.231037
vn 0.967681 -0.000000 0.252179
vn 0.985316 -0.000000 -0.170740
vn 0.728139 -0.000000 -0.685429
vn 0.388192 0.000000 -0.921579
vn -0.038836 0.000000 -0.999246
vn -0.555922 0.000000 -0.831234
vn -0.855744 0.000000 -0.517399
vn -0.991962 0.000000 -0.126534
vn -0.897496 0.000000 0.441022
vn -0.634643 -0.000000 0.772805
vn -0.651329 0.000000 0.758796
vn -0.667705 0.000000 0.744426
vn -0.968606 -0.000000 0.248599
vn -0.921765 0.000000 -0.387749
vn -0.653612 0.000000 -0.756830
vn -0.062883 0.000000 -0.998021
vn 0.501659 -0.000000 -0.865066
vn 0.520386 -0.000000 -0.853931
vn 0.538866 -0.000000 -0.842391
vn 0.142096 0.000000 -0.989853
vn -0.426874 0.000000 -0.904311
vn -0.756515 0.000000 -0.653976
vn -0.962340 0.000000 -0.271848
vn -0.962340 0.000000 0.271848
vn -0.756515 -0.000000 0.653976
vn -0.426874 0.000000 0.904311
vn 0.142095 0.000000 0.989853
vn 0.538866 0.000000 0.842391
vn 0.520386 0.000000 0.853931
vn 0.501659 0.000000 0.865066
vn -0.062884 -0.000000 0.998021
vn -0.653612 0.000000 0.756830
vn -0.921765 -0.000000 0.387749
vn -0.968606 -0.000000 -0.248600
vn -0.667705 -0.000000 -0.744426
vn -0.651329 -0.000000 -0.758796
vn -0.634643 0.000000 -0.772806
vn -0.897496 -0.000000 -0.441022
vn -0.991962 0.000000 0.126534
vn -0.855744 0.000000 0.517399
vn -0.555923 0.000000 0.831234
vn -0.038837 0.000000 0.999246
vn 0.388192 0.000000 0.921579
vn 0.728139 0.000000 0.685429
vn 0.985316 -0.000000 0.170740
vn 0.967681 0.000000 -0.252179
vn 0.972945 0.000000 -0.231037
vn 0.977747 0.000000 -0.209786
vn 0.929742 0.000000 0.368211
vn 0.517810 0.000000 0.855496
vn 0.083930 0.000000 0.996472
vn -0.535748 0.000000 0.844378
vn -0.914323 0.000000 0.404985
vn -0.922929 -0.000000 0.384969
vn -0.931097 -0.000000 0.364771
vn -0.696778 0.000000 0.717287
vn -0.186193 0.000000 0.982513
vn 0.227636 0.000000 0.973746
vn 0.618762 0.000000 0.785579
vn 0.938338 0.000000 0.345719
vn 0.996431 0.000000 -0.084409
vn 0.876889 0.000000 -0.480693
vn 0.466863 -0.000000 -0.884330
vn 0.059193 0.000000 -0.998247
vn 0.080927 -0.000000 -0.996720
vn 0.102622 -0.000000 -0.994720
vn 0.637496 0.000000 -0.770454
vn 0.973637 0.000000 -0.228105
vn 0.000000 -1.000000 -0.000000
vn 0.000000 1.000000 0.000000
vn -0.000000 1.000000 0.000000
vn -0.000000 -1.000000 -0.000000

usemtl border
f 4/4/1 3/3/1 2/2/1 1/1/1
f 6/6/2 5/5/2 3/3/2 4/4/2
f 8/8/4 7/7/4 5/5/3 6/6/3
f 10/10/5 9/9/5 7/7/4 8/8/4
f 12/12/6 11/11/6 9/9/6 10/10/6
f 14/14/7 13/13/7 11/11/7 12/12/7
f 16/16/8 15/15/8 13/13/8 14/14/8
f 18/18/9 17/17/9 15/15/9 16/16/9
f 20/20/10 19/19/10 17/17/10 18/18/10
f 22/22/11 21/21/11 19/19/11 20/20/11
f 24/24/12 23/23/12 21/21/12 22/22/12
f 26/26/13 25/25/13 23/23/13 24/24/13
f 28/28/15 27/27/15 25/25/14 26/26/14
f 30/30/16 29/29/16 27/27/15 28/28/15
f 32/32/17 31/31/17 29/29/17 30/30/17
f 34/34/18 33/33/18 31/31/18 32/32/18
f 36/36/19 35/35/19 33/33/19 34/34/19
f 38/38/20 37/37/20 35/35/20 36/36/20
f 40/40/22 39/39/22 37/37/21 38/38/21
f 42/42/23 41/41/23 39/39/22 40/40/22
f 44/44/24 43/43/24 41/41/24 42/42/24
f 46/46/25 45/45/25 43/43/25 44/44/25
f 48/48/26 47/47/26 45/45/26 46/46/26
f 50/50/27 49/49/27 47/47/27 48/48/27
f 52/52/28 51/51/28 49/49/28 50/50/28
f 54/54/29 53/53/29 51/51/29 52/52/29
f 56/56/30 55/55/30 53/53/30 54/54/30
f 58/58/31 57/57/31 55/55/31 56/56/31
f 60/60/33 59/59/33 57/57/32 58/58/32
f 62/62/34 61/61/34 59/59/33 60/60/33
f 64/64/35 63/63/35 61/61/35 62/62/35
f 66/66/36 65/65/36 63/63/36 64/64/36
f 68/68/37 67/67/37 65/65/37 66/66/37
f 70/70/38 69/69/38 67/67/38 68/68/38
f 72/72/40 71/71/40 69/69/39 70/70/39
f 74/74/41 73/73/41 71/71/40 72/72/40
f 76/76/42 75/75/42 73/73/42 74/74/42
f 78/78/43 77/77/43 75/75/43 76/76/43
f 80/80/44 79/79/44 77/77/44 78/78/44
f 82/82/45 81/81/45 79/79/45 80/80/45
f 84/84/46 83/83/46 81/81/46 82/82/46
f 86/86/47 85/85/47 83/83/47 84/84/47
f 88/88/48 87/87/48 85/85/48 86/86/48
f 90/90/49 89/89/49 87/87/49 88/88/49
f 92/92/51 91/91/51 89/89/50 90/90/50
f 94/94/52 93/93/52 91/91/51 92/92/51
f 96/96/53 95/95/53 93/93/53 94/94/53
f 98/98/54 97/97/54 95/95/54 96/96/54
f 100/100/55 99/99/55 97/97/55 98/98/55
f 102/102/56 101/101/56 99/99/56 100/100/56
f 104/104/58 103/103/58 101/101/57 102/102/57
f 106/106/59 105/105/59 103/103/58 104/104/58
f 108/108/60 107/107/60 105/105/60 106/106/60
f 110/110/61 109/109/61 107/107/61 108/108/61
f 112/112/62 111/111/62 109/109/62 110/110/62
f 114/114/63 113/113/63 111/111/63 112/112/63
f 116/116/64 115/115/64 113/113/64 114/114/64
f 118/118/65 117/117/65 115/115/65 116/116/65
f 120/120/66 119/119/66 117/117/66 118/118/66
f 122/122/67 121/121/67 119/119/67 120/120/67
f 124/124/69 123/123/69 121/121/68 122/122/68
f 126/126/70 125/125/70 123/123/69 124/124/69
f 128/128/71 127/127/71 125/125/71 126/126/71
f 130/130/72 129/129/72 127/127/72 128/128/72
f 132/132/73 131/131/73 129/129/73 130/130/73
f 134/134/74 133/133/74 131/131/74 132/132/74
f 136/136/76 135/135/76 133/133/75 134/134/75
f 138/138/77 137/137/77 135/135/76 136/136/76
f 140/140/78 139/139/78 137/137/78 138/138/78
f 142/142/79 141/141/79 139/139/79 140/140/79
f 144/144/80 143/143/80 141/141/80 142/142/80
f 146/146/81 145/145/81 143/143/81 144/144/81
f 148/148/82 147/147/82 145/145/82 146/146/82
f 150/150/83 149/149/83 147/147/83 148/148/83
f 152/152/84 151/151/84 149/149/84 150/150/84
f 154/154/85 153/153/85 151/151/85 152/152/85
f 156/156/87 155/155/87 153/153/86 154/154/86
f 158/158/88 157/157/88 155/155/87 156/156/87
f 160/160/89 159/159/89 157/157/89 158/158/89
f 1/162/90 2/161/90 159/159/90 160/160/90
f 44/165/91 42/164/91 46/163/91
f 45/163/93 41/164/93 43/165/92
f 120/165/91 118/163/94 122/164/91
f 121/164/93 117/163/92 119/165/92
f 108/168/94 106/167/94 110/166/94
f 109/166/92 105/167/92 107/168/92
f 24/171/94 22/170/91 26/169/91
f 25/169/93 21/170/93 23/171/92
f 56/168/91 54/166/91 58/167/91
f 57/167/93 53/166/93 55/168/93
f 76/174/91 74/173/94 78/172/91
f 77/172/92 73/173/92 75/174/92
f 12/177/94 10/176/94 14/175/94
f 13/175/92 9/176/92 11/177/92
f 152/177/91 150/175/91 154/176/91
f 153/176/92 149/175/92 151/177/92
f 88/174/91 86/172/91 90/173/91
f 89/173/92 85/172/92 87/174/92
f 140/171/91 138/169/91 142/170/94
f 141/170/92 137/169/92 139/171/93
f 26/169/91 22/170/91 28/178/91
f 27/178/93 21/170/93 25/169/93
f 22/170/91 20/179/94 28/178/91
f 27/178/93 19/179/92 21/170/93
f 20/179/94 18/180/94 28/178/91
f 27/178/93 17/180/92 19/179/92
f 18/180/94 16/181/91 28/178/91
f 27/178/93 15/181/92 17/180/92
f 16/181/91 14/175/94 28/178/91
f 27/178/93 13/175/92 15/181/92
f 14/175/94 10/176/94 28/178/91
f 27/178/93 9/176/92 13/175/92
f 10/176/94 8/182/94 28/178/91
f 27/178/93 7/182/92 9/176/92
f 28/178/91 8/182/94 30/183/94
f 29/183/92 7/182/92 27/178/93
f 8/182/94 6/184/94 30/183/94
f 29/183/92 5/184/92 7/182/92
f 30/183/94 6/184/94 32/185/94
f 31/185/92 5/184/92 29/183/92
f 6/184/94 4/186/94 32/185/94
f 31/185/92 3/186/92 5/184/92
f 4/186/94 1/187/94 32/185/94
f 31/185/92 2/187/92 3/186/92
f 32/185/94 1/187/94 34/188/91
f 33/188/92 2/187/92 31/185/92
f 106/167/94 104/189/94 110/166/94
f 109/166/92 103/189/92 105/167/92
f 110/166/94 104/189/94 112/190/91
f 111/190/93 103/189/92 109/166/92
f 112/190/91 104/189/94 114/191/91
f 113/191/93 103/189/92 111/190/93
f 114/191/91 104/189/94 116/192/94
f 115/192/92 103/189/92 113/191/93
f 116/192/94 104/189/94 118/163/94
f 117/163/92 103/189/92 115/192/92
f 118/163/94 104/189/94 122/164/91
f 121/164/93 103/189/92 117/163/92
f 122/164/91 104/189/94 124/193/91
f 123/193/93 103/189/92 121/164/93
f 104/189/94 102/194/91 124/193/91
f 123/193/93 101/194/92 103/189/92
f 124/193/91 102/194/91 126/195/91
f 125/195/92 101/194/92 123/193/93
f 126/195/91 102/194/91 128/196/91
f 127/196/92 101/194/92 125/195/92
f 102/194/91 100/197/91 128/196/91
f 127/196/92 99/197/92 101/194/92
f 100/197/91 98/198/91 128/196/91
f 127/196/92 97/198/92 99/197/92
f 128/196/91 98/198/91 130/188/94
f 129/188/92 97/198/92 127/196/92
f 154/176/91 150/175/91 156/182/94
f 155/182/92 149/175/92 153/176/92
f 150/175/91 148/181/94 156/182/94
f 155/182/92 147/181/92 149/175/92
f 148/181/94 146/180/91 156/182/94
f 155/182/92 145/180/93 147/181/92
f 146/180/91 144/179/91 156/182/94
f 155/182/92 143/179/93 145/180/93
f 144/179/91 142/170/94 156/182/94
f 155/182/92 141/170/92 143/179/93
f 142/170/94 138/169/91 156/182/94
f 155/182/92 137/169/92 141/170/92
f 138/169/91 136/178/91 156/182/94
f 155/182/92 135/178/92 137/169/92
f 156/182/94 136/178/91 158/184/91
f 157/184/92 135/178/92 155/182/92
f 136/178/91 134/183/91 158/184/91
f 157/184/92 133/183/92 135/178/92
f 134/183/91 132/185/91 158/184/91
f 157/184/92 131/185/92 133/183/92
f 158/184/91 132/185/91 160/186/91
f 159/186/92 131/185/92 157/184/92
f 160/186/91 132/185/91 1/187/94
f 2/187/92 131/185/92 159/186/92
f 132/185/91 130/188/94 1/187/94
f 2/187/92 129/188/92 131/185/92
f 130/188/94 98/198/91 1/187/94
f 2/187/92 97/198/92 129/188/92
f 1/187/94 98/198/91 34/188/91
f 33/188/92 97/198/92 2/187/92
f 98/198/91 96/199/91 34/188/91
f 33/188/92 95/199/92 97/198/92
f 34/188/91 96/199/91 36/196/91
f 35/196/92 95/199/92 33/188/92
f 90/173/91 86/172/91 92/200/94
f 91/200/92 85/172/92 89/173/92
f 86/172/91 84/201/91 92/200/94
f 91/200/92 83/201/92 85/172/92
f 84/201/91 82/202/91 92/200/94
f 91/200/92 81/202/92 83/201/92
f 82/202/91 80/201/91 92/200/94
f 91/200/92 79/201/92 81/202/92
f 80/201/91 78/172/91 92/200/94
f 91/200/92 77/172/92 79/201/92
f 78/172/91 74/173/94 92/200/94
f 91/200/92 73/173/92 77/172/92
f 74/173/94 72/200/94 92/200/94
f 91/200/92 71/200/92 73/173/92
f 72/200/94 70/203/91 92/200/94
f 91/200/92 69/203/92 71/200/92
f 92/200/94 70/203/91 94/203/91
f 93/203/92 69/203/92 91/200/92
f 70/203/91 68/199/91 94/203/91
f 93/203/92 67/199/92 69/203/92
f 94/203/91 68/199/91 96/199/91
f 95/199/92 67/199/92 93/203/92
f 96/199/91 68/199/91 36/196/91
f 35/196/92 67/199/92 95/199/92
f 68/199/91 66/198/91 36/196/91
f 35/196/92 65/198/92 67/199/92
f 66/198/91 64/197/94 36/196/91
f 35/196/92 63/197/92 65/198/92
f 64/197/94 62/194/91 36/196/91
f 35/196/92 61/194/92 63/197/92
f 36/196/91 62/194/91 38/195/91
f 37/195/92 61/194/92 35/196/92
f 62/194/91 60/189/91 38/195/91
f 37/195/92 59/189/92 61/194/92
f 38/195/91 60/189/91 40/193/91
f 39/193/93 59/189/92 37/195/92
f 60/189/91 58/167/91 40/193/91
f 39/193/93 57/167/93 59/189/92
f 58/167/91 54/166/91 40/193/91
f 39/193/93 53/166/93 57/167/93
f 54/166/91 52/190/94 40/193/91
f 39/193/93 51/190/92 53/166/93
f 52/190/94 50/191/94 40/193/91
f 39/193/93 49/191/92 51/190/92
f 50/191/94 48/192/91 40/193/91
f 39/193/93 47/192/93 49/191/92
f 48/192/91 46/163/91 40/193/91
f 39/193/93 45/163/93 47/192/93
f 46/163/91 42/164/91 40/193/91
f 39/193/93 41/164/93 45/163/93

usemtl default

