# WaveFront *.obj file (generated by Cheetah3D)

mtllib polyrock_3.mtl

g polyrock_3
v 2.738239 0.141624 -0.519633
v 2.800968 0.669795 -1.506137
v 2.758297 -0.451748 -1.312253
v 3.206997 0.353210 0.391036
v 2.951075 -0.159345 1.352132
v 2.672117 1.333568 1.282142
v -2.622381 0.296734 0.341337
v -2.666696 1.319700 1.307525
v -2.935288 -0.151406 1.386959
v -2.866717 0.163794 -0.516914
v -2.899812 -0.453604 -1.360572
v -2.530259 0.620784 -1.346420
v 0.000000 0.505979 -2.852231
v 0.537252 1.436629 -2.865302
v -0.540345 1.443574 -2.861227
v 0.000000 -0.464966 -2.848252
v -0.514497 -1.308956 -2.621342
v 0.500343 -1.279779 -2.562277
v 0.000000 0.486030 3.213452
v 0.613222 -0.989824 3.034255
v -0.612471 -0.983553 3.036445
v 0.000000 1.663386 2.792068
v -0.387649 2.336071 2.225982
v 0.385612 2.342483 2.219589
v 0.326426 2.966987 0.094257
v 0.915575 2.562517 -0.370755
v 0.864876 2.765577 0.456271
v -0.329984 2.989331 0.092261
v -0.890086 2.813387 0.462677
v -0.946549 2.620525 -0.386562
v -0.548598 -3.304616 0.072344
v -1.519706 -2.932153 -0.549140
v -1.529044 -2.884962 0.710237
v 0.550566 -3.317925 0.073735
v 1.532931 -2.890870 0.713081
v 1.523621 -2.938788 -0.550286
v 1.328243 1.821043 -2.341382
v 2.192595 1.543038 -1.836860
v 1.520671 2.527640 -1.364220
v 1.840432 2.241647 1.466398
v 0.977117 2.525779 1.796713
v 1.195669 2.803808 1.127622
v -0.988113 2.513659 1.807664
v -1.866457 2.211668 1.478973
v -1.099784 2.538087 1.026513
v -2.201255 1.549472 -1.821019
v -1.329436 1.829972 -2.333731
v -1.526217 2.530541 -1.352597
v -1.826573 -2.147098 1.617436
v -2.452694 -1.109586 1.820880
v -1.480696 -1.461276 2.496940
v -2.373465 -1.376171 -1.742216
v -1.801313 -2.319163 -1.392571
v -1.427759 -1.757239 -2.331547
v 1.428803 -1.760126 -2.328728
v 1.798751 -2.319098 -1.395986
v 2.360989 -1.389140 -1.748861
v 2.456993 -1.155811 1.785997
v 1.824016 -2.163038 1.598977
v 1.491765 -1.493539 2.471128

vt 0.000000 1.000000

vn 0.970982 -0.238401 0.018940
vn 0.998425 -0.029767 0.047550
vn 0.919538 0.188000 0.345117
vn -0.911056 0.390415 -0.132492
vn -0.962158 0.163915 -0.217678
vn -0.877714 0.463742 -0.120672
vn -0.925966 0.321118 -0.198674
vn -0.008613 -0.014345 -0.999860
vn 0.237347 -0.019556 -0.971228
vn -0.252051 -0.006945 -0.967689
vn 0.272466 -0.165709 -0.947789
vn 0.063971 -0.295286 -0.953265
vn 0.001159 -0.120059 0.992766
vn 0.000982 0.644210 0.764848
vn 0.237395 0.914784 -0.326824
vn 0.438965 0.861368 -0.255645
vn 0.622222 0.770731 -0.137162
vn -0.202534 0.925164 -0.321017
vn -0.399920 0.899176 -0.177613
vn -0.375669 -0.926204 0.031921
vn 0.380747 -0.924117 0.032245
vn 0.531911 0.633001 -0.562477
vn 0.431853 0.774182 0.462758
vn -0.199946 0.964322 0.173505
vn -0.350521 0.933192 0.079293
vn -0.533275 0.634215 -0.559812
vn -0.610223 -0.490284 0.622294
vn -0.587630 -0.569613 -0.574658
vn 0.585195 -0.571927 -0.574845
vn 0.610998 -0.498202 0.615204
vn 0.464533 -0.026140 -0.885170
vn 0.530489 0.196590 0.824581
vn -0.524553 0.199613 0.827647
vn -0.484449 -0.001639 -0.874818
vn 0.766669 0.636777 -0.082067
vn -0.042869 0.964095 0.262075
vn -0.804224 0.593033 -0.039201
vn 0.007046 0.895455 -0.445096
vn -0.913211 -0.406901 0.021841
vn 0.000634 -0.809241 -0.587477
vn 0.899748 -0.436284 -0.010524
vn -0.001962 -0.785486 0.618877

usemtl default
f 3/1/1 2/1/2 1/1/1
f 6/1/3 5/1/3 4/1/3
f 9/1/5 8/1/4 7/1/4
f 12/1/6 11/1/7 10/1/6
f 15/1/10 14/1/9 13/1/8
f 18/1/11 17/1/12 16/1/11
f 21/1/13 20/1/13 19/1/13
f 24/1/14 23/1/14 22/1/14
f 27/1/17 26/1/16 25/1/15
f 30/1/18 29/1/19 28/1/18
f 33/1/20 32/1/20 31/1/20
f 36/1/21 35/1/21 34/1/21
f 39/1/22 38/1/22 37/1/22
f 42/1/23 41/1/23 40/1/23
f 45/1/24 44/1/25 43/1/24
f 48/1/26 47/1/26 46/1/26
f 51/1/27 50/1/27 49/1/27
f 54/1/28 53/1/28 52/1/28
f 57/1/29 56/1/29 55/1/29
f 60/1/30 59/1/30 58/1/30
f 37/1/31 38/1/31 2/1/31 3/1/31 57/1/31 55/1/31 18/1/11 16/1/11 13/1/9 14/1/9
f 60/1/32 58/1/32 5/1/32 6/1/32 40/1/32 41/1/32 24/1/32 22/1/32 19/1/32 20/1/32
f 19/1/33 22/1/33 23/1/33 43/1/33 44/1/33 8/1/33 9/1/33 50/1/33 51/1/33 21/1/33
f 13/1/10 16/1/34 17/1/34 54/1/34 52/1/34 11/1/34 12/1/34 46/1/34 47/1/34 15/1/10
f 27/1/17 42/1/35 40/1/35 6/1/35 4/1/35 1/1/35 2/1/35 38/1/35 39/1/35 26/1/17
f 28/1/36 29/1/36 45/1/24 43/1/24 23/1/36 24/1/36 41/1/36 42/1/36 27/1/36 25/1/36
f 30/1/37 48/1/37 46/1/37 12/1/6 10/1/6 7/1/4 8/1/4 44/1/37 45/1/37 29/1/37
f 26/1/15 39/1/38 37/1/38 14/1/38 15/1/38 47/1/38 48/1/38 30/1/18 28/1/18 25/1/15
f 49/1/39 50/1/39 9/1/39 7/1/39 10/1/39 11/1/39 52/1/39 53/1/39 32/1/39 33/1/39
f 32/1/40 53/1/40 54/1/40 17/1/40 18/1/40 55/1/40 56/1/40 36/1/40 34/1/40 31/1/40
f 36/1/41 56/1/41 57/1/41 3/1/1 1/1/1 4/1/41 5/1/41 58/1/41 59/1/41 35/1/41
f 34/1/42 35/1/42 59/1/42 60/1/42 20/1/42 21/1/42 51/1/42 49/1/42 33/1/42 31/1/42

