# WaveFront *.obj file (generated by Cheetah3D)

mtllib polyrock_2.mtl

g polyrock_2
v 4.071088 -0.350684 -0.664774
v 3.614332 0.345779 -1.707086
v 3.644513 -1.070522 -1.969513
v 4.172268 -0.367845 0.645487
v 4.083548 -1.123196 1.920737
v 3.936115 0.320915 1.820964
v -3.603711 -0.368828 0.651584
v -3.203088 0.286516 1.759223
v -3.408612 -1.111902 1.894899
v -4.172268 -0.438082 -0.836279
v -2.424283 -0.808662 -1.550811
v -3.237846 0.375946 -1.858283
v 0.311963 0.279975 -3.309480
v 1.096916 1.669810 -3.930348
v -0.373758 1.466042 -3.468589
v 0.311963 -0.885445 -4.072589
v -0.297694 -1.771055 -3.195364
v 0.958318 -1.864457 -3.365357
v 0.311963 -1.017768 4.072589
v 1.109471 -2.397739 3.994135
v -0.382197 -2.161972 3.528916
v 0.311963 0.327379 3.652300
v -0.291681 1.381227 2.979636
v 0.942381 1.462149 3.107724
v 0.993641 4.115655 -0.054014
v 1.827421 2.564596 -0.672017
v 2.052288 3.149732 0.631913
v -0.246512 3.079485 -0.099737
v -1.561670 3.425113 0.708686
v -1.714762 3.629189 -0.837424
v -0.306057 -4.115655 -0.204144
v -1.344587 -3.566005 -0.826324
v -1.390132 -3.710092 0.437061
v 0.832557 -3.369038 -0.146138
v 1.961845 -3.594024 0.427995
v 1.665666 -2.919353 -0.653765
v 2.008190 1.802204 -2.779874
v 3.428148 1.548058 -2.331560
v 2.551869 2.538461 -1.801268
v 2.842910 1.169857 1.847643
v 1.971438 1.964847 2.774717
v 2.295962 2.390244 1.521061
v -1.296992 1.879790 2.669255
v -2.339241 1.259441 1.949710
v -1.058928 1.580104 1.015512
v -2.663293 1.471838 -2.224898
v -1.492965 1.936631 -2.979585
v -1.939029 2.554012 -1.809772
v -1.680964 -3.108672 1.325457
v -2.373271 -2.035825 1.987765
v -1.447270 -2.687430 2.822056
v -2.613242 -2.065920 -2.416811
v -1.037767 -1.978806 -1.205098
v -1.318754 -2.272525 -2.834829
v 1.404092 -1.551752 -1.889117
v 2.490287 -3.194525 -1.934343
v 2.079041 -1.300271 -1.475806
v 3.513551 -2.437816 2.276094
v 1.644764 -2.019377 0.954328
v 2.146534 -2.818688 2.931715

vt 0.000000 1.000000

vn 0.932242 0.085033 -0.351703
vn 0.934686 0.342260 0.096025
vn 0.984943 0.109782 0.133549
vn -0.908330 0.363405 0.207057
vn -0.954699 0.164377 0.248051
vn -0.417006 -0.485780 -0.768195
vn -0.469391 -0.268529 -0.841169
vn -0.380492 -0.156195 -0.911498
vn -0.253901 -0.271334 -0.928392
vn -0.149520 -0.641965 -0.752014
vn -0.063540 -0.744495 -0.664598
vn -0.420970 -0.083503 0.903223
vn -0.323327 -0.238912 0.915631
vn -0.121678 0.483577 0.866803
vn -0.127683 0.666196 0.734765
vn 0.745604 0.550456 -0.375598
vn 0.807414 0.566348 -0.165324
vn 0.307020 0.946990 0.094596
vn -0.408394 -0.905153 -0.117954
vn -0.600350 -0.788384 -0.134277
vn 0.068835 -0.829235 -0.554644
vn 0.113467 -0.828776 -0.547956
vn 0.197099 0.780481 -0.593297
vn 0.331469 0.656223 -0.677864
vn 0.830787 0.514579 0.212138
vn 0.808930 0.460385 0.365621
vn -0.383719 0.897384 -0.217859
vn -0.587847 0.601107 -0.541394
vn -0.755200 -0.651136 0.075463
vn -0.711937 -0.639089 0.291051
vn -0.093834 -0.976853 0.192232
vn 0.415202 0.298191 -0.859471
vn 0.069407 -0.918640 -0.388951
vn 0.532081 -0.222736 -0.816871
vn 0.500602 0.137473 0.854692
vn -0.504367 0.074731 0.860250
vn -0.495834 -0.036437 -0.867653
vn 0.830236 0.554893 0.052934
vn -0.127199 0.814959 0.565387
vn -0.822501 0.546646 0.157069
vn 0.054717 0.873015 -0.484614
vn -0.761840 -0.631606 -0.143785
vn 0.024062 -0.828006 -0.560203
vn 0.731925 -0.668347 -0.132661
vn 0.109316 -0.933369 0.341865

usemtl default
f 3/1/1 2/1/1 1/1/1
f 6/1/2 5/1/3 4/1/2
f 9/1/5 8/1/4 7/1/4
f 12/1/7 11/1/7 10/1/6
f 15/1/8 14/1/9 13/1/8
f 18/1/11 17/1/11 16/1/10
f 21/1/12 20/1/13 19/1/12
f 24/1/15 23/1/15 22/1/14
f 27/1/17 26/1/17 25/1/16
f 30/1/18 29/1/18 28/1/18
f 33/1/20 32/1/20 31/1/19
f 36/1/21 35/1/22 34/1/21
f 39/1/23 38/1/24 37/1/23
f 42/1/25 41/1/26 40/1/25
f 45/1/27 44/1/27 43/1/27
f 48/1/28 47/1/28 46/1/28
f 51/1/30 50/1/29 49/1/29
f 54/1/31 53/1/31 52/1/31
f 57/1/32 56/1/32 55/1/32
f 60/1/33 59/1/33 58/1/33
f 37/1/34 38/1/34 2/1/34 3/1/34 57/1/34 55/1/34 18/1/34 16/1/34 13/1/34 14/1/34
f 60/1/35 58/1/35 5/1/35 6/1/35 40/1/35 41/1/35 24/1/35 22/1/35 19/1/35 20/1/35
f 19/1/12 22/1/36 23/1/36 43/1/36 44/1/36 8/1/36 9/1/36 50/1/36 51/1/36 21/1/12
f 13/1/8 16/1/37 17/1/37 54/1/37 52/1/37 11/1/7 12/1/7 46/1/37 47/1/37 15/1/8
f 27/1/17 42/1/25 40/1/25 6/1/2 4/1/2 1/1/38 2/1/38 38/1/38 39/1/38 26/1/17
f 28/1/39 29/1/39 45/1/39 43/1/39 23/1/15 24/1/15 41/1/39 42/1/39 27/1/39 25/1/39
f 30/1/40 48/1/40 46/1/40 12/1/40 10/1/40 7/1/4 8/1/4 44/1/40 45/1/40 29/1/40
f 26/1/41 39/1/23 37/1/23 14/1/41 15/1/41 47/1/41 48/1/41 30/1/41 28/1/41 25/1/41
f 49/1/29 50/1/29 9/1/42 7/1/42 10/1/42 11/1/42 52/1/42 53/1/42 32/1/20 33/1/20
f 32/1/43 53/1/43 54/1/43 17/1/11 18/1/11 55/1/43 56/1/43 36/1/21 34/1/21 31/1/43
f 36/1/44 56/1/44 57/1/44 3/1/44 1/1/44 4/1/44 5/1/44 58/1/44 59/1/44 35/1/44
f 34/1/45 35/1/45 59/1/45 60/1/45 20/1/45 21/1/45 51/1/45 49/1/45 33/1/45 31/1/45

