# WaveFront *.obj file (generated by Cheetah3D)

mtllib poly_rock_1.mtl

g polyrock_1
v 2.950933 0.162390 -0.517489
v 2.681747 0.666656 -1.405416
v 2.533673 -0.451532 -1.237823
v 2.605947 0.266367 0.338496
v 2.272705 -0.154729 1.029985
v 2.075450 0.969233 1.001546
v -2.736968 0.286371 0.373179
v -2.073548 0.965117 1.009429
v -2.270833 -0.153806 1.034244
v -2.737780 0.128284 -0.519526
v -2.658933 -0.454909 -1.282031
v -2.610736 0.639670 -1.376401
v 0.000000 0.596556 -3.235679
v 0.521185 1.384403 -2.695742
v -0.489795 1.303762 -2.568587
v 0.000000 -0.483191 -3.056494
v -0.583737 -1.453713 -2.912178
v 0.488262 -1.255494 -2.512440
v 0.000000 0.324624 2.478834
v 0.471261 -0.823714 2.312879
v -0.470056 -0.810516 2.317782
v 0.000000 1.275875 2.149917
v -0.303954 1.767606 1.741603
v 0.307237 1.757274 1.751455
v 0.342127 2.977776 0.086962
v 0.944423 2.561226 -0.380288
v 1.014006 2.963032 0.492421
v -0.357355 3.074380 0.079204
v -0.863832 2.678733 0.451604
v -0.962240 2.594591 -0.389290
v -0.547982 -3.305643 0.067611
v -1.311108 -2.580485 -0.489349
v -1.495148 -2.842283 0.679408
v 0.514783 -3.079420 0.045556
v 1.419174 -2.724728 0.625221
v 1.429784 -2.783185 -0.525170
v 1.028589 1.409719 -1.790167
v 1.690177 1.176789 -1.417204
v 1.192319 1.935080 -1.041076
v 1.497510 1.622139 1.173085
v 0.799992 1.880276 1.440338
v 1.223564 2.604414 1.105142
v -0.775549 1.909094 1.415586
v -1.462739 1.664815 1.157059
v -0.942547 2.138877 0.887023
v -1.702924 1.185434 -1.394559
v -1.028236 1.406379 -1.792994
v -1.191558 1.934661 -1.042725
v -1.383147 -1.759308 1.114333
v -1.883733 -0.925525 1.358290
v -1.142638 -1.165055 1.893945
v -1.808322 -1.076608 -1.349403
v -1.375942 -1.784170 -1.083291
v -1.097495 -1.351342 -1.794263
v 1.098797 -1.354437 -1.791129
v 1.381075 -1.784501 -1.076192
v 1.812098 -1.072723 -1.347429
v 1.879098 -0.866102 1.403160
v 1.395728 -1.698394 1.190546
v 1.153222 -1.196531 1.867724

vt 0.000000 1.000000

vn 0.909529 -0.176820 -0.376153
vn 0.846985 0.161462 0.506503
vn 0.705428 0.173376 0.687249
vn -0.759201 0.147917 0.633825
vn -0.651853 0.165812 0.739996
vn -0.991303 0.032659 -0.127483
vn -0.146333 0.623271 -0.768193
vn -0.073508 0.741884 -0.666487
vn 0.507651 -0.198439 -0.838399
vn 0.383612 -0.357355 -0.851551
vn 0.003168 -0.141758 0.989896
vn -0.001620 0.638240 0.769836
vn -0.064058 0.708692 0.702604
vn 0.138608 0.861706 -0.488109
vn 0.272586 0.865510 -0.420225
vn -0.618447 0.785802 -0.006254
vn -0.698843 0.715273 0.001517
vn -0.556096 -0.788045 -0.264086
vn 0.336203 -0.940414 0.050888
vn 0.537584 0.630607 -0.559766
vn 0.468497 0.176376 0.865680
vn 0.408280 0.175824 0.895764
vn -0.291263 0.777197 0.557790
vn -0.447527 0.759758 0.471686
vn -0.537384 0.630034 -0.560602
vn -0.601667 -0.534814 0.593272
vn -0.582381 -0.572820 -0.576809
vn 0.584005 -0.572826 -0.575160
vn 0.616188 -0.510971 0.599350
vn 0.610971 -0.031424 -0.791029
vn 0.526590 0.176128 0.831674
vn -0.529437 0.179874 0.829061
vn -0.620583 0.026760 -0.783684
vn 0.797512 0.602868 -0.022906
vn -0.125639 0.769660 0.625969
vn -0.771204 0.636521 0.009271
vn 0.001502 0.838451 -0.544974
vn -0.889315 -0.454669 0.048942
vn 0.001510 -0.795146 -0.606416
vn 0.893944 -0.443044 0.067644
vn 0.018556 -0.664810 0.746782

usemtl default
f 3/1/1 2/1/1 1/1/1
f 6/1/3 5/1/3 4/1/2
f 9/1/5 8/1/5 7/1/4
f 12/1/6 11/1/6 10/1/6
f 15/1/8 14/1/8 13/1/7
f 18/1/9 17/1/10 16/1/9
f 21/1/11 20/1/11 19/1/11
f 24/1/13 23/1/13 22/1/12
f 27/1/15 26/1/14 25/1/14
f 30/1/17 29/1/17 28/1/16
f 33/1/18 32/1/18 31/1/18
f 36/1/19 35/1/19 34/1/19
f 39/1/20 38/1/20 37/1/20
f 42/1/22 41/1/21 40/1/21
f 45/1/23 44/1/24 43/1/23
f 48/1/25 47/1/25 46/1/25
f 51/1/26 50/1/26 49/1/26
f 54/1/27 53/1/27 52/1/27
f 57/1/28 56/1/28 55/1/28
f 60/1/29 59/1/29 58/1/29
f 37/1/30 38/1/30 2/1/30 3/1/30 57/1/30 55/1/30 18/1/9 16/1/9 13/1/30 14/1/30
f 60/1/31 58/1/31 5/1/3 6/1/3 40/1/21 41/1/21 24/1/31 22/1/31 19/1/31 20/1/31
f 19/1/32 22/1/32 23/1/32 43/1/32 44/1/32 8/1/5 9/1/5 50/1/32 51/1/32 21/1/32
f 13/1/33 16/1/33 17/1/33 54/1/33 52/1/33 11/1/33 12/1/33 46/1/33 47/1/33 15/1/33
f 27/1/34 42/1/34 40/1/34 6/1/34 4/1/34 1/1/34 2/1/34 38/1/34 39/1/34 26/1/34
f 28/1/35 29/1/35 45/1/23 43/1/23 23/1/13 24/1/13 41/1/35 42/1/35 27/1/35 25/1/35
f 30/1/17 48/1/36 46/1/36 12/1/36 10/1/36 7/1/36 8/1/36 44/1/36 45/1/36 29/1/17
f 26/1/14 39/1/37 37/1/37 14/1/8 15/1/8 47/1/37 48/1/37 30/1/37 28/1/37 25/1/14
f 49/1/38 50/1/38 9/1/38 7/1/38 10/1/38 11/1/38 52/1/38 53/1/38 32/1/38 33/1/38
f 32/1/39 53/1/39 54/1/39 17/1/39 18/1/39 55/1/39 56/1/39 36/1/39 34/1/39 31/1/39
f 36/1/40 56/1/40 57/1/40 3/1/40 1/1/40 4/1/40 5/1/40 58/1/40 59/1/40 35/1/40
f 34/1/41 35/1/41 59/1/41 60/1/41 20/1/41 21/1/41 51/1/41 49/1/41 33/1/41 31/1/41

