# WaveFront *.obj file (generated by Cheetah3D)

mtllib ringcone_r8_c4.mtl

g ring_cone_r8_c4
v 2.820000 0.000000 0.000000
v 2.820000 0.000000 1.500000
v 4.320001 0.000000 -0.000000
v 2.820000 0.000000 -1.500000
v 1.320000 0.000000 0.000000
v 2.820000 1.500000 0.000000
v 1.994041 0.000000 -1.994041
v 3.054701 0.000000 -0.933381
v 3.054701 0.000000 -3.054701
v 0.933381 0.000000 -3.054701
v 0.933381 0.000000 -0.933381
v 1.994041 1.500000 -1.994041
v -0.000000 0.000000 -2.820000
v 1.500000 0.000000 -2.820000
v -0.000000 0.000000 -4.320001
v -1.500000 0.000000 -2.820000
v -0.000000 0.000000 -1.320000
v -0.000000 1.500000 -2.820000
v -1.994041 0.000000 -1.994041
v -0.933381 0.000000 -3.054701
v -3.054701 0.000000 -3.054701
v -3.054701 0.000000 -0.933381
v -0.933381 0.000000 -0.933381
v -1.994041 1.500000 -1.994041
v -2.820000 0.000000 0.000000
v -2.820001 0.000000 -1.500000
v -4.320001 0.000000 0.000000
v -2.820000 0.000000 1.500000
v -1.320000 0.000000 0.000000
v -2.820000 1.500000 0.000000
v -1.994041 0.000000 1.994041
v -3.054701 0.000000 0.933381
v -3.054702 0.000000 3.054701
v -0.933381 0.000000 3.054701
v -0.933381 0.000000 0.933381
v -1.994041 1.500000 1.994041
v 0.000000 0.000000 2.820000
v -1.500000 0.000000 2.820000
v 0.000000 0.000000 4.320001
v 1.500000 0.000000 2.820000
v -0.000000 0.000000 1.320000
v 0.000000 1.500000 2.820000
v 1.994041 0.000000 1.994042
v 0.933381 0.000000 3.054702
v 3.054701 0.000000 3.054702
v 3.054701 0.000000 0.933382
v 0.933381 0.000000 0.933381
v 1.994041 1.500000 1.994042

vt 0.500000 0.500000
vt 0.500000 0.000000
vt 1.000000 0.500000
vt 0.500000 1.000000
vt 0.000000 0.500000
vt 0.250000 1.000000
vt 0.250000 0.000000
vt 0.000000 0.000000
vt 0.750000 1.000000
vt 0.750000 0.000000
vt 1.000000 1.000000
vt 1.000000 0.000000

vn 0.000000 -1.000000 0.000000
vn 0.577350 0.577350 0.577350
vn 0.577350 0.577350 -0.577350
vn -0.577350 0.577350 -0.577350
vn -0.577350 0.577350 0.577350
vn 0.816497 0.577350 0.000000
vn 0.000000 0.577350 -0.816497
vn -0.816497 0.577350 0.000000
vn 0.000000 0.577350 0.816497

usemtl border
f 3/3/1 2/2/1 1/1/1
f 4/4/1 3/3/1 1/1/1
f 5/5/1 4/4/1 1/1/1
f 2/2/1 5/5/1 1/1/1
f 2/8/2 3/7/2 6/6/2
f 3/7/3 4/2/3 6/4/3
f 4/2/4 5/10/4 6/9/4
f 5/10/5 2/12/5 6/11/5
f 9/3/1 8/2/1 7/1/1
f 10/4/1 9/3/1 7/1/1
f 11/5/1 10/4/1 7/1/1
f 8/2/1 11/5/1 7/1/1
f 8/8/6 9/7/6 12/6/6
f 9/7/7 10/2/7 12/4/7
f 10/2/8 11/10/8 12/9/8
f 11/10/9 8/12/9 12/11/9
f 15/3/1 14/2/1 13/1/1
f 16/4/1 15/3/1 13/1/1
f 17/5/1 16/4/1 13/1/1
f 14/2/1 17/5/1 13/1/1
f 14/8/3 15/7/3 18/6/3
f 15/7/4 16/2/4 18/4/4
f 16/2/5 17/10/5 18/9/5
f 17/10/2 14/12/2 18/11/2
f 21/3/1 20/2/1 19/1/1
f 22/4/1 21/3/1 19/1/1
f 23/5/1 22/4/1 19/1/1
f 20/2/1 23/5/1 19/1/1
f 20/8/7 21/7/7 24/6/7
f 21/7/8 22/2/8 24/4/8
f 22/2/9 23/10/9 24/9/9
f 23/10/6 20/12/6 24/11/6
f 27/3/1 26/2/1 25/1/1
f 28/4/1 27/3/1 25/1/1
f 29/5/1 28/4/1 25/1/1
f 26/2/1 29/5/1 25/1/1
f 26/8/4 27/7/4 30/6/4
f 27/7/5 28/2/5 30/4/5
f 28/2/2 29/10/2 30/9/2
f 29/10/3 26/12/3 30/11/3
f 33/3/1 32/2/1 31/1/1
f 34/4/1 33/3/1 31/1/1
f 35/5/1 34/4/1 31/1/1
f 32/2/1 35/5/1 31/1/1
f 32/8/8 33/7/8 36/6/8
f 33/7/9 34/2/9 36/4/9
f 34/2/6 35/10/6 36/9/6
f 35/10/7 32/12/7 36/11/7
f 39/3/1 38/2/1 37/1/1
f 40/4/1 39/3/1 37/1/1
f 41/5/1 40/4/1 37/1/1
f 38/2/1 41/5/1 37/1/1
f 38/8/5 39/7/5 42/6/5
f 39/7/2 40/2/2 42/4/2
f 40/2/3 41/10/3 42/9/3
f 41/10/4 38/12/4 42/11/4
f 45/3/1 44/2/1 43/1/1
f 46/4/1 45/3/1 43/1/1
f 47/5/1 46/4/1 43/1/1
f 44/2/1 47/5/1 43/1/1
f 44/8/9 45/7/9 48/6/9
f 45/7/6 46/2/6 48/4/6
f 46/2/7 47/10/7 48/9/7
f 47/10/8 44/12/8 48/11/8

usemtl default

