# WaveFront *.obj file (generated by Cheetah3D)

mtllib ringcone_r4_c6.mtl

g ring_cone_r4_c6
v 2.450002 0.000000 0.000000
v 2.450002 0.000000 2.500000
v 4.615066 0.000000 1.250000
v 4.615066 0.000000 -1.250000
v 2.450002 0.000000 -2.500000
v 0.284939 0.000000 -1.250000
v 0.284939 0.000000 1.250000
v 2.450002 1.500000 0.000000
v -0.000000 0.000000 -2.450002
v 2.500000 0.000000 -2.450003
v 1.250000 0.000000 -4.615066
v -1.250000 0.000000 -4.615066
v -2.500000 0.000000 -2.450002
v -1.250000 0.000000 -0.284939
v 1.250000 0.000000 -0.284939
v -0.000000 1.500000 -2.450002
v -2.450002 0.000000 0.000000
v -2.450003 0.000000 -2.500000
v -4.615066 0.000000 -1.250000
v -4.615066 0.000000 1.250000
v -2.450002 0.000000 2.500000
v -0.284939 0.000000 1.250000
v -0.284939 0.000000 -1.250000
v -2.450002 1.500000 0.000000
v 0.000000 0.000000 2.450002
v -2.500000 0.000000 2.450002
v -1.250000 0.000000 4.615066
v 1.250000 0.000000 4.615066
v 2.500000 0.000000 2.450002
v 1.250000 0.000000 0.284939
v -1.250000 0.000000 0.284939
v 0.000000 1.500000 2.450002

vt 0.500000 0.500000
vt 0.500000 0.000000
vt 0.933013 0.250000
vt 0.933013 0.750000
vt 0.500000 1.000000
vt 0.066987 0.750000
vt 0.066987 0.250000
vt 0.166667 1.000000
vt 0.166667 0.000000
vt 0.000000 0.000000
vt 0.333333 1.000000
vt 0.333333 0.000000
vt 0.666667 1.000000
vt 0.666667 0.000000
vt 0.833333 1.000000
vt 0.833333 0.000000
vt 1.000000 1.000000
vt 1.000000 0.000000

vn 0.000000 -1.000000 0.000000
vn 0.209657 0.907841 0.363137
vn 0.445566 0.857493 0.257248
vn -0.000000 0.857493 0.514496
vn 0.419314 0.907841 0.000000
vn 0.445566 0.857493 -0.257248
vn 0.209657 0.907841 -0.363137
vn -0.000000 0.857493 -0.514496
vn -0.209657 0.907841 -0.363137
vn -0.445566 0.857493 -0.257248
vn -0.419314 0.907841 0.000000
vn -0.445566 0.857493 0.257248
vn -0.209657 0.907841 0.363137
vn 0.363137 0.907841 -0.209657
vn 0.257248 0.857493 -0.445566
vn 0.514496 0.857493 0.000000
vn -0.000000 0.907841 -0.419314
vn -0.257248 0.857493 -0.445566
vn -0.363137 0.907841 -0.209657
vn -0.514496 0.857493 0.000000
vn -0.363137 0.907841 0.209657
vn -0.257248 0.857493 0.445566
vn 0.000000 0.907841 0.419314
vn 0.257248 0.857493 0.445566
vn 0.363137 0.907841 0.209657
vn 0.000000 0.857493 0.514496

usemtl border
f 3/3/1 2/2/1 1/1/1
f 4/4/1 3/3/1 1/1/1
f 5/5/1 4/4/1 1/1/1
f 6/6/1 5/5/1 1/1/1
f 7/7/1 6/6/1 1/1/1
f 2/2/1 7/7/1 1/1/1
f 2/10/4 3/9/3 8/8/2
f 3/9/3 4/12/6 8/11/5
f 4/12/6 5/2/8 8/5/7
f 5/2/8 6/14/10 8/13/9
f 6/14/10 7/16/12 8/15/11
f 7/16/12 2/18/4 8/17/13
f 11/3/1 10/2/1 9/1/1
f 12/4/1 11/3/1 9/1/1
f 13/5/1 12/4/1 9/1/1
f 14/6/1 13/5/1 9/1/1
f 15/7/1 14/6/1 9/1/1
f 10/2/1 15/7/1 9/1/1
f 10/10/16 11/9/15 16/8/14
f 11/9/15 12/12/18 16/11/17
f 12/12/18 13/2/20 16/5/19
f 13/2/20 14/14/22 16/13/21
f 14/14/22 15/16/24 16/15/23
f 15/16/24 10/18/16 16/17/25
f 19/3/1 18/2/1 17/1/1
f 20/4/1 19/3/1 17/1/1
f 21/5/1 20/4/1 17/1/1
f 22/6/1 21/5/1 17/1/1
f 23/7/1 22/6/1 17/1/1
f 18/2/1 23/7/1 17/1/1
f 18/10/8 19/9/10 24/8/9
f 19/9/10 20/12/12 24/11/11
f 20/12/12 21/2/26 24/5/13
f 21/2/26 22/14/3 24/13/2
f 22/14/3 23/16/6 24/15/5
f 23/16/6 18/18/8 24/17/7
f 27/3/1 26/2/1 25/1/1
f 28/4/1 27/3/1 25/1/1
f 29/5/1 28/4/1 25/1/1
f 30/6/1 29/5/1 25/1/1
f 31/7/1 30/6/1 25/1/1
f 26/2/1 31/7/1 25/1/1
f 26/10/20 27/9/22 32/8/21
f 27/9/22 28/12/24 32/11/23
f 28/12/24 29/2/16 32/5/25
f 29/2/16 30/14/15 32/13/14
f 30/14/15 31/16/18 32/15/17
f 31/16/18 26/18/20 32/17/19

usemtl default

