# WaveFront *.obj file (generated by Cheetah3D)

mtllib sign.mtl

g sign_body
v 0.250000 2.345005 2.500000
v 0.250000 3.500000 2.500000
v -0.099999 3.500000 2.500000
v -0.099999 2.345005 2.500000
v -0.099999 1.994988 2.280330
v 0.250000 1.994988 2.280330
v 0.599999 2.345005 2.500000
v 0.599999 3.500000 2.500000
v 0.250000 4.654995 2.500000
v -0.099999 4.654995 2.500000
v -0.206064 3.500000 2.280330
v -0.206064 2.345005 2.280330
v -0.174999 1.994988 2.125000
v 0.250000 1.896034 1.918363
v -0.099999 1.925827 2.027345
v 0.000000 1.945689 2.099999
v 0.599999 1.994988 2.280330
v 0.706064 2.345005 2.280330
v 0.706064 3.500000 2.280330
v 0.599999 4.654995 2.500000
v 0.250000 5.005012 2.280330
v -0.099999 5.005012 2.280330
v -0.206064 4.654995 2.280330
v -0.235157 2.345005 1.929147
v -0.235157 3.500000 1.929147
v -0.188410 1.994988 1.963111
v -0.148430 1.943629 1.992158
v 0.474062 1.850007 1.750000
v 0.599999 1.850007 1.750000
v 0.475527 1.851239 1.754508
v 0.674999 1.994988 2.125000
v 0.749998 2.345005 1.750000
v 0.749998 3.500000 1.750000
v 0.706064 4.654995 2.280330
v 0.599999 5.005012 2.280330
v -0.174999 5.005012 2.125000
v 0.250000 5.149993 1.750000
v -0.099999 5.149993 1.750000
v -0.235157 4.654995 1.929147
v 0.599999 1.850007 0.000000
v 0.293892 1.850007 1.195492
v 0.250000 1.850007 1.195492
v 0.250000 1.850007 0.000000
v 0.706064 1.994988 1.750000
v 0.749998 2.345005 0.000000
v 0.749998 3.500000 0.000000
v 0.749998 4.654995 1.750000
v 0.674999 5.005012 2.125000
v 0.599999 5.149993 1.750000
v -0.206064 5.005012 1.750000
v -0.206694 5.000000 1.750000
v -0.189079 5.000000 1.962625
v 0.250000 5.149993 0.000000
v -0.099999 5.149993 0.000000
v 0.599999 1.850007 -1.750000
v 0.250000 1.850007 -1.281634
v 0.475527 1.850007 -1.445490
v 0.376586 1.850007 -1.750000
v 0.706064 1.994988 0.000000
v -0.099999 1.850007 1.195493
v -0.099999 1.850007 0.000000
v 0.749998 2.345005 -1.750000
v 0.749998 3.500000 -1.750000
v 0.749998 4.654995 0.000000
v 0.706064 5.005012 1.750000
v 0.599999 5.149993 0.000000
v -0.249998 4.654995 0.000000
v -0.249998 4.654995 1.195493
v -0.206694 5.000000 1.195493
v -0.206694 5.000000 1.315511
v -0.206694 5.000000 1.667159
v -0.206064 5.005012 0.000000
v 0.250000 5.149993 -1.750000
v -0.099999 5.149993 -1.750000
v 0.293892 1.919583 -2.004505
v 0.250000 1.919583 -2.004505
v 0.250000 1.994988 -2.280330
v 0.599999 1.994988 -2.280330
v 0.706064 1.994988 -1.750000
v -0.099999 1.850007 -1.172652
v 0.000000 1.850007 -1.099999
v 0.000000 -5.000000 -1.099999
v 0.475527 -5.000000 -1.445490
v 0.293892 -5.000000 -2.004505
v -0.206064 1.994988 1.195493
v -0.206064 1.994988 0.000000
v 0.706064 2.345005 -2.280330
v 0.706064 3.500000 -2.280330
v 0.749998 4.654995 -1.750000
v 0.706064 5.005012 0.000000
v 0.599999 5.149993 -1.750000
v -0.249998 4.654995 -1.281633
v -0.206064 5.005012 -1.750000
v -0.206694 5.000000 -1.750000
v -0.206694 5.000000 -1.532839
v -0.206694 5.000000 -1.250170
v -0.249998 3.500000 0.000000
v -0.249998 3.500000 1.195493
v 0.250000 5.005012 -2.280330
v -0.099999 5.005012 -2.280330
v 0.674999 1.994988 -2.125000
v -0.293892 -5.000000 -2.004505
v -0.293892 5.000000 -2.004505
v -0.185610 5.000000 -2.004505
v -0.228914 4.654995 -2.004505
v -0.228914 3.500000 -2.004505
v -0.228914 2.345005 -2.004505
v -0.184981 1.994988 -2.004505
v -0.150900 1.948403 -2.004505
v -0.099999 1.919583 -2.004505
v -0.099999 1.994988 -2.280330
v 0.250000 2.345005 -2.500000
v 0.599999 2.345005 -2.500000
v -0.206064 1.994988 -1.249713
v -0.475527 -5.000000 -1.445489
v -0.249998 2.345005 -1.281633
v -0.249998 3.500000 -1.281633
v -0.475527 5.000000 -1.445489
v 0.000000 -5.000000 -1.599998
v -0.249998 2.345005 1.195493
v -0.249998 2.345005 0.000000
v 0.599999 3.500000 -2.500000
v 0.706064 4.654995 -2.280330
v 0.706064 5.005012 -1.750000
v 0.599999 5.005012 -2.280330
v -0.174999 5.005012 -2.125000
v -0.206064 4.654995 -2.280330
v -0.196693 5.000000 -1.870722
v 0.250000 4.654995 -2.500000
v -0.099999 4.654995 -2.500000
v -0.206064 3.500000 -2.280330
v -0.206064 2.345005 -2.280330
v -0.174999 1.994988 -2.125000
v -0.099999 2.345005 -2.500000
v 0.250000 3.500000 -2.500000
v 0.599999 4.654995 -2.500000
v 0.674999 5.005012 -2.125000
v -0.099999 3.500000 -2.500000
v 0.000000 -5.000000 2.099999
v 0.475527 -5.000000 1.754508
v -0.475527 -5.000000 1.754508
v -0.475527 5.000000 1.754508
v 0.000000 -5.000000 1.600000
v 0.293892 -5.000000 1.195492
v -0.293892 -5.000000 1.195493
v -0.293892 5.000000 1.195493

vt 0.000000 0.201171
vt 0.000000 0.500000
vt 0.374084 0.500000
vt 0.374084 0.201171
vt 0.374084 0.100586
vt 0.000000 0.100586
vt 0.748167 0.500000
vt 0.748167 0.201171
vt 0.000000 0.798829
vt 0.374084 0.798829
vt 0.874084 0.201171
vt 0.874084 0.500000
vt 1.000000 0.500000
vt 1.000000 0.201171
vt 1.000000 0.100586
vt 0.874084 0.100586
vt 0.106880 0.066383
vt 0.000000 0.052603
vt 0.374084 0.031933
vt 0.748167 0.100586
vt 0.748167 0.798829
vt 0.000000 0.899414
vt 0.374084 0.899414
vt 0.874084 0.798829
vt 1.000000 0.798829
vt 0.790702 0.500000
vt 0.790702 0.201171
vt 0.819725 0.100586
vt 0.918689 0.064954
vt 1.000000 0.052603
vt 0.615130 0.000855
vt 0.748167 0.000000
vt 0.613565 0.000000
vt 0.748167 0.899414
vt 0.874084 0.899414
vt 1.000000 0.899414
vt 0.000000 1.000000
vt 0.374084 1.000000
vt 0.790702 0.798829
vt 0.874084 0.064954
vt 0.374084 0.704141
vt 0.420996 0.704141
vt 0.613565 0.798829
vt 0.874084 0.000000
vt 0.748167 1.000000
vt 0.874084 1.000000
vt 0.819221 0.897974
vt 0.748167 0.897974
vt 0.509380 0.201171
vt 0.615130 0.253169
vt 0.374084 0.281149
vt 0.374084 0.000000
vt 0.000000 0.000000
vt 0.000000 0.704142
vt 1.000000 0.000000
vt 0.730459 0.897974
vt 0.655290 0.897974
vt 0.629635 0.897974
vt 0.629635 0.798829
vt 0.374084 0.048271
vt 0.327171 0.048271
vt 0.238787 0.000000
vt 0.106880 0.312165
vt 0.000000 0.299759
vt 0.000000 0.685001
vt 0.105146 0.685001
vt 0.200000 0.685001
vt 0.200000 0.000000
vt 0.308945 0.685001
vt 0.400000 0.691958
vt 0.400000 0.000000
vt 0.629635 0.000000
vt 0.629635 0.100586
vt 0.106845 0.897974
vt 0.046421 0.897974
vt 0.000000 0.897974
vt 0.100119 0.798829
vt 0.629635 0.500000
vt 0.414935 0.691958
vt 0.534026 0.691958
vt 0.551345 0.694840
vt 0.562942 0.699499
vt 0.577891 0.734500
vt 0.577891 0.850000
vt 0.577891 0.965499
vt 0.563156 1.000000
vt 0.600000 1.000000
vt 0.600000 0.000000
vt 0.748167 0.048271
vt 0.106942 0.100586
vt 0.123415 0.000000
vt 0.800000 1.000000
vt 0.913068 1.000000
vt 0.894854 0.965499
vt 0.894854 0.850000
vt 0.894854 0.734500
vt 0.913332 0.699499
vt 0.957942 0.685001
vt 1.000000 0.685001
vt 0.800000 0.000000
vt 0.500000 0.000000
vt 0.975528 0.345492
vt 0.500000 0.500000
vt 0.793893 0.904509
vt 0.629635 0.201171
vt 0.100119 0.500000
vt 1.000000 0.897974
vt 0.959744 0.897974
vt 0.914913 0.897974
vt 0.939573 0.798829
vt 0.303307 0.770725
vt 0.293306 0.650003
vt 0.293306 0.432841
vt 0.024472 0.345491
vt 0.206107 0.904508
vt 0.293306 0.150172
vt 0.314390 0.904508
vt 0.939573 0.500000
vt 0.939573 0.201171
vt 0.914543 0.100586
vt 0.914543 0.068265
vt 0.813657 0.048271
vt 0.874084 0.068265
vt 0.100119 0.201171
vt 0.000000 0.694569
vt 0.105146 0.689603
vt 0.200000 0.685124
vt 0.920476 1.000000
vt 0.901096 0.965499
vt 0.901096 0.850000
vt 0.901096 0.734500
vt 0.920758 0.699499
vt 0.937572 0.694363
vt 0.957942 0.692583
vt 1.000000 0.694569
vt 0.201613 0.685001
vt 0.400000 0.685001
vt 0.293306 0.350000
vt 0.310920 0.137374
vt 0.414935 0.685001
vt 0.534026 0.685001
vt 0.570116 0.699499
vt 0.585065 0.734500
vt 0.585065 0.850000
vt 0.585065 0.965499
vt 0.570330 1.000000
vt 0.293306 0.784490
vt 0.293306 0.904508

vn 0.000000 -0.276580 0.960991
vn 0.000000 0.000000 1.000000
vn 0.000000 -0.802934 0.596068
vn 0.000000 0.276580 0.960991
vn -0.960357 -0.099082 0.260570
vn -0.964767 0.000000 0.263106
vn -0.900523 0.000000 0.434809
vn -0.892546 -0.132806 0.430958
vn -0.723402 -0.595556 0.349288
vn -0.844744 -0.490109 0.214944
vn 0.000000 -0.964604 0.263703
vn -0.247346 -0.934631 0.255509
vn -0.174795 -0.854337 0.489443
vn 0.892546 -0.132806 0.430958
vn 0.900523 0.000000 0.434809
vn 0.964767 0.000000 0.263106
vn 0.960357 -0.099082 0.260570
vn 0.000000 0.802934 0.596068
vn -0.960357 0.099082 0.260570
vn -0.892546 0.132806 0.430957
vn -0.996586 0.000000 0.082560
vn -0.994658 -0.062182 0.082400
vn -0.920579 -0.337583 0.196395
vn -0.926521 -0.368329 0.076755
vn -0.658958 -0.736467 0.152940
vn -0.759507 -0.599237 0.253110
vn -0.511093 -0.786476 0.346754
vn -0.000000 -0.964604 0.263703
vn 0.174795 -0.854337 0.489443
vn 0.165602 -0.971242 0.171067
vn -0.000000 -0.991111 0.133034
vn 0.844744 -0.490109 0.214944
vn 0.723402 -0.595556 0.349288
vn 0.999146 0.000000 0.041315
vn 0.997203 -0.062340 0.041235
vn 0.892546 0.132806 0.430957
vn 0.960357 0.099082 0.260570
vn -0.844744 0.490109 0.214944
vn -0.723403 0.595556 0.349288
vn -0.165603 0.971242 0.171067
vn 0.000000 0.991111 0.133034
vn -0.174795 0.854337 0.489443
vn -0.994658 0.062182 0.082400
vn -0.000000 -1.000000 0.000000
vn 0.511094 -0.786476 0.346754
vn 0.759507 -0.599237 0.253110
vn 0.460664 -0.878907 0.123740
vn 0.928604 -0.369078 0.038409
vn 0.920579 -0.337583 0.196395
vn 1.000000 0.000000 0.000000
vn 0.998052 -0.062393 0.000000
vn 0.997203 0.062340 0.041235
vn 0.723403 0.595556 0.349288
vn 0.844744 0.490109 0.214944
vn 0.165603 0.971242 0.171067
vn 0.174795 0.854337 0.489443
vn -0.511094 0.786476 0.346754
vn -0.759507 0.599236 0.253110
vn -0.460664 0.878907 0.123740
vn -0.988879 0.124123 0.081921
vn -0.991380 0.124437 0.040995
vn -0.928604 0.369078 0.038409
vn -0.920580 0.337583 0.196395
vn 0.000000 1.000000 0.000000
vn -0.000000 -0.991111 -0.133034
vn 0.165602 -0.971242 -0.171067
vn 0.929317 -0.369283 0.000000
vn 0.807079 -0.590443 0.000000
vn 0.714535 -0.692146 0.101850
vn 0.000000 -1.000000 0.000000
vn 0.999146 0.000000 -0.041315
vn 0.997203 -0.062340 -0.041235
vn 0.998052 0.062393 0.000000
vn 0.920580 0.337583 0.196395
vn 0.928604 0.369078 0.038409
vn 0.759507 0.599236 0.253110
vn 0.511094 0.786476 0.346754
vn 0.460664 0.878907 0.123740
vn -0.714535 0.692146 0.101850
vn -0.929317 0.369282 0.000000
vn -0.992214 0.124542 -0.000000
vn -0.998052 0.062393 -0.000000
vn -0.998052 0.062393 0.000000
vn -0.165603 0.971242 -0.171067
vn 0.000000 0.991111 -0.133034
vn -0.807080 0.590442 0.000000
vn 0.174795 -0.854337 -0.489443
vn -0.000000 -0.802934 -0.596068
vn 0.000000 -0.964604 -0.263703
vn 0.928604 -0.369078 -0.038409
vn 0.714535 -0.692146 -0.101850
vn 0.587785 0.000000 0.809017
vn 0.951056 -0.000000 -0.309017
vn -0.807079 -0.590443 0.000000
vn -0.929317 -0.369283 -0.000000
vn 0.964767 0.000000 -0.263106
vn 0.960357 -0.099082 -0.260570
vn 0.997203 0.062340 -0.041235
vn 0.929317 0.369282 0.000000
vn 0.714535 0.692146 0.101850
vn 0.807080 0.590442 0.000000
vn 0.165603 0.971242 -0.171067
vn -0.992214 0.124542 0.000000
vn -0.991380 0.124437 -0.040995
vn -0.928604 0.369078 -0.038409
vn -1.000000 0.000000 0.000000
vn -0.174795 0.854337 -0.489443
vn 0.000000 0.802934 -0.596068
vn -0.714535 0.692146 -0.101850
vn 0.759507 -0.599237 -0.253110
vn 0.511094 -0.786476 -0.346754
vn 0.460664 -0.878907 -0.123740
vn 0.000000 -0.000000 -1.000000
vn -0.174795 -0.854337 -0.489443
vn -0.247347 -0.934631 -0.255510
vn -0.000000 -0.276580 -0.960991
vn 0.844744 -0.490109 -0.214944
vn -0.929317 -0.369283 0.000000
vn -0.587785 -0.000000 0.809017
vn -0.998052 -0.062393 -0.000000
vn 0.920579 -0.337583 -0.196396
vn 0.900523 0.000000 -0.434809
vn 0.892546 -0.132806 -0.430958
vn 0.960357 0.099082 -0.260570
vn 0.928604 0.369078 -0.038409
vn 0.714535 0.692146 -0.101850
vn 0.174795 0.854337 -0.489443
vn -0.988879 0.124123 -0.081921
vn -0.994658 0.062182 -0.082400
vn -0.960357 0.099082 -0.260570
vn -0.920580 0.337583 -0.196395
vn 0.000000 0.276580 -0.960991
vn -0.759507 0.599236 -0.253110
vn -0.511094 0.786476 -0.346754
vn -0.460664 0.878907 -0.123740
vn -0.844744 0.490109 -0.214944
vn 0.723402 -0.595556 -0.349288
vn -0.951057 0.000000 -0.309017
vn -0.996586 0.000000 -0.082560
vn -0.964767 0.000000 -0.263106
vn -0.994658 -0.062182 -0.082400
vn -0.960357 -0.099082 -0.260570
vn -0.926521 -0.368329 -0.076755
vn -0.920579 -0.337583 -0.196396
vn -0.658958 -0.736467 -0.152940
vn -0.844744 -0.490109 -0.214944
vn -0.511093 -0.786476 -0.346754
vn -0.759507 -0.599237 -0.253110
vn 0.000000 0.000000 -1.000000
vn -0.998052 -0.062393 0.000000
vn 0.892546 0.132806 -0.430957
vn 0.920580 0.337583 -0.196395
vn 0.844744 0.490109 -0.214944
vn 0.511094 0.786476 -0.346754
vn 0.759507 0.599236 -0.253110
vn 0.460664 0.878907 -0.123740
vn -0.892546 0.132806 -0.430957
vn -0.723403 0.595556 -0.349288
vn -0.900523 0.000000 -0.434809
vn -0.892546 -0.132806 -0.430958
vn -0.723402 -0.595556 -0.349288
vn 0.723403 0.595556 -0.349288
vn -0.587785 0.000000 0.809017
vn -0.000000 -0.000000 -1.000000

usemtl border
f 1/4/1 2/3/2 3/2/2 4/1/1
f 5/6/3 6/5/3 1/4/1 4/1/1
f 7/8/1 8/7/2 2/3/2 1/4/1
f 2/3/2 9/10/4 10/9/4 3/2/2
f 4/14/8 3/13/7 11/12/6 12/11/5
f 13/16/10 5/15/9 4/14/8 12/11/5
f 14/19/11 6/5/3 5/6/13 15/18/12 16/17/11
f 6/5/3 17/20/3 7/8/1 1/4/1
f 18/11/17 19/12/16 8/7/15 7/8/14
f 8/7/2 20/21/4 9/10/4 2/3/2
f 10/9/4 9/10/4 21/23/18 22/22/18
f 3/13/7 10/25/20 23/24/19 11/12/6
f 24/27/22 12/11/5 11/12/6 25/26/21
f 26/28/24 13/16/23 12/11/5 24/27/22
f 15/30/12 5/15/27 13/16/26 27/29/25
f 28/33/31 29/32/30 17/20/29 6/5/3 14/19/11 30/31/28
f 17/20/33 31/16/32 18/11/17 7/8/14
f 32/14/35 33/13/34 19/12/16 18/11/17
f 19/12/16 34/24/37 20/21/36 8/7/15
f 9/10/4 20/21/4 35/34/18 21/23/18
f 22/36/39 36/35/38 23/24/19 10/25/20
f 22/22/42 21/23/18 37/38/41 38/37/40
f 25/26/21 11/12/6 23/24/19 39/39/43
f 27/40/25 13/16/10 26/28/24
f 40/7/44 29/21/30 28/43/31 41/42/44 42/41/44 43/3/44
f 29/44/47 31/16/46 17/20/45
f 31/16/49 44/15/48 32/14/35 18/11/17
f 45/4/51 46/3/50 33/2/34 32/1/35
f 33/13/34 47/25/52 34/24/37 19/12/16
f 48/35/54 35/34/53 20/21/36 34/24/37
f 21/23/18 35/34/56 49/45/55 37/38/41
f 38/46/59 36/35/58 22/36/57
f 36/35/63 50/34/62 51/48/61 52/47/60 39/39/43 23/24/19
f 37/4/41 53/3/64 54/2/64 38/1/40
f 55/8/66 40/7/44 43/3/44 56/51/44 57/50/44 58/49/65
f 29/53/69 40/52/68 59/5/67 44/6/48
f 60/54/70 61/2/70 43/3/44 42/41/44
f 29/55/69 44/15/48 31/16/32
f 44/6/48 59/5/67 45/4/51 32/1/35
f 62/8/72 63/7/71 46/3/50 45/4/51
f 46/3/50 64/10/73 47/9/52 33/2/34
f 65/36/75 48/35/74 34/24/37 47/25/52
f 49/45/78 35/34/77 48/35/76
f 49/8/55 66/7/64 53/3/64 37/4/41
f 38/45/79 50/34/62 36/35/38
f 67/10/83 68/59/82 69/58/81 70/57/81 71/56/81 51/48/61 50/34/62 72/23/80
f 53/3/64 73/10/85 74/9/84 54/2/64
f 72/23/80 50/34/62 38/45/79 54/38/86
f 55/53/66 58/62/65 75/61/89 76/60/89 77/5/88 78/6/87
f 40/52/68 55/32/91 79/20/90 59/5/67
f 56/51/44 43/3/44 61/2/70 80/64/70 81/63/70
f 82/53/92 83/68/92 57/67/92 56/66/92 81/65/92
f 83/68/93 84/71/93 75/70/93 58/69/93 57/67/93
f 85/73/95 86/5/95 61/52/94 60/72/94
f 59/5/67 79/20/90 62/8/72 45/4/51
f 87/11/97 88/12/96 63/7/71 62/8/72
f 63/7/71 89/21/98 64/10/73 46/3/50
f 47/9/52 64/10/73 90/23/99 65/22/75
f 49/46/100 48/35/54 65/36/75
f 65/22/75 90/23/99 66/38/101 49/37/100
f 66/7/64 91/21/102 73/10/85 53/3/64
f 92/77/83 67/10/83 72/23/80 93/22/105 94/76/104 95/75/103 96/74/103
f 68/59/82 67/10/83 97/3/106 98/78/106
f 99/23/108 100/34/107 74/45/84 73/38/85
f 93/22/105 72/23/80 54/38/86 74/37/109
f 55/55/112 78/15/111 101/16/110
f 84/71/113 102/88/113 103/87/113 104/86/113 105/85/113 106/84/113 107/83/113 108/82/113 109/81/113 110/80/113 76/79/113 75/70/113
f 110/89/115 111/20/114 77/5/88 76/60/89
f 78/6/88 77/5/88 112/4/116 113/1/116
f 55/44/91 101/16/117 79/20/90
f 80/91/94 61/52/94 86/5/95 114/90/118
f 115/100/119 82/55/119 81/99/119 80/98/119 114/97/119 116/96/119 117/95/119 92/94/119 96/93/119 118/92/119
f 119/103/70 83/102/70 82/101/70
f 119/103/70 84/104/70 83/102/70
f 120/105/120 121/4/120 86/5/95 85/73/95
f 79/20/90 101/16/121 87/11/97 62/8/72
f 113/14/123 122/13/122 88/12/96 87/11/97
f 88/12/96 123/24/124 89/21/98 63/7/71
f 64/10/73 89/21/98 124/34/125 90/23/99
f 90/23/99 124/34/125 91/45/126 66/38/101
f 125/22/127 99/23/108 73/38/85 91/37/102
f 117/106/106 97/3/106 67/10/83 92/77/83
f 93/36/105 126/35/131 127/24/130 105/110/129 104/109/128 128/108/128 94/107/104
f 103/115/64 118/114/64 95/113/64 94/112/64 128/111/64
f 95/113/64 118/114/64 96/116/64
f 98/78/106 97/3/106 121/4/120 120/105/120
f 129/10/132 130/21/132 100/34/108 99/23/108
f 74/45/135 100/34/134 126/35/133
f 74/46/109 126/35/136 93/36/105
f 101/16/117 78/15/137 113/14/123 87/11/97
f 119/103/70 102/115/70 84/104/70
f 102/88/138 115/100/138 118/92/138 103/87/138
f 104/117/64 103/115/64 128/111/64
f 105/110/129 127/24/130 131/12/140 106/118/139
f 106/118/139 131/12/140 132/11/142 107/119/141
f 107/119/141 132/11/142 133/16/144 108/120/143
f 108/120/143 133/16/146 109/121/145
f 109/123/145 133/16/148 111/20/147 110/122/115
f 77/5/88 111/20/88 134/8/116 112/4/116
f 112/4/116 135/3/149 122/2/149 113/1/116
f 114/90/118 86/5/95 121/4/120 116/124/150
f 119/103/70 82/101/70 115/114/70
f 116/124/150 121/4/120 97/3/106 117/106/106
f 122/13/122 136/25/151 123/24/124 88/12/96
f 137/35/152 124/34/125 89/21/98 123/24/124
f 91/45/126 124/34/125 137/35/153
f 91/46/156 137/35/155 125/36/154
f 136/9/132 129/10/132 99/23/108 125/22/108
f 126/35/136 100/34/158 130/21/157 127/24/130
f 138/7/149 130/21/132 129/10/132 135/3/149
f 119/103/70 115/114/70 102/115/70
f 131/12/140 127/24/130 130/21/157 138/7/159
f 132/11/142 131/12/140 138/7/159 134/8/160
f 111/20/161 133/16/146 132/11/142 134/8/160
f 134/8/116 138/7/149 135/3/149 112/4/116
f 135/3/149 129/10/132 136/9/132 122/2/149
f 125/36/162 137/35/153 123/24/124 136/25/151
f 139/53/92 140/68/92 30/127/92 14/126/92 16/125/92
f 141/100/163 139/55/163 16/135/163 15/134/163 27/133/163 26/132/163 24/131/163 25/130/163 39/129/163 52/128/163 142/92/163
f 143/103/70 140/102/70 139/101/70
f 140/68/93 144/71/93 41/137/93 28/136/93 30/127/93
f 145/88/138 141/100/138 142/92/138 146/87/138
f 143/103/70 139/101/70 141/114/70
f 142/114/64 52/139/64 51/138/64 71/113/64
f 143/103/70 144/104/70 140/102/70
f 144/71/164 145/88/164 146/87/164 69/146/164 68/145/164 98/144/164 120/143/164 85/142/164 60/141/164 42/140/164 41/137/164
f 143/103/70 141/114/70 145/115/70
f 70/147/64 146/115/64 142/114/64 71/113/64
f 143/103/70 145/115/70 144/104/70
f 69/148/64 146/115/64 70/147/64

usemtl default

g sign
v 0.799998 4.619714 -1.724099
v 0.799998 4.619714 1.724099
v 0.799998 2.380199 -1.724099
v 0.799998 2.380199 1.724099

vt 0.000000 1.000000
vt 1.000000 1.000000
vt 1.000000 0.000000
vt 0.000000 0.000000

vn 1.000000 0.000000 0.000000

usemtl sign
f 148/152/165 150/151/165 149/150/165 147/149/165

usemtl default

