# WaveFront *.obj file (generated by Cheetah3D)

mtllib starfat_6.mtl

g starfat_6
v 3.699998 -0.500000 0.000000
v 3.699998 0.500000 0.000000
v 4.330127 0.500000 -2.499999
v 4.330127 -0.500000 -2.499999
v 1.849999 0.500000 -3.204291
v 1.849999 -0.500000 -3.204291
v 0.000000 0.500000 -4.999998
v 0.000000 -0.500000 -4.999998
v -1.849999 0.500000 -3.204291
v -1.849999 -0.500000 -3.204291
v -4.330127 0.500000 -2.499999
v -4.330127 -0.500000 -2.499999
v -3.699998 0.500000 -0.000000
v -3.699998 -0.500000 -0.000000
v -4.330127 0.500000 2.499999
v -4.330127 -0.500000 2.499999
v -1.849999 0.500000 3.204291
v -1.849999 -0.500000 3.204291
v -0.000000 0.500000 4.999998
v -0.000000 -0.500000 4.999998
v 1.849999 0.500000 3.204291
v 1.849999 -0.500000 3.204291
v 4.330127 0.500000 2.499999
v 4.330127 -0.500000 2.499999

vt 0.000000 1.000000
vt 1.000000 1.000000
vt 1.000000 -1.578189
vt 0.000000 -1.578189
vt 1.000000 -4.156379
vt 0.000000 -4.156379
vt 1.000000 -6.734568
vt 0.000000 -6.734568
vt 1.000000 -9.312757
vt 0.000000 -9.312757
vt 1.000000 -11.890946
vt 0.000000 -11.890946
vt 1.000000 -14.469136
vt 0.000000 -14.469136
vt 1.000000 -17.047325
vt 0.000000 -17.047325
vt 1.000000 -19.625515
vt 0.000000 -19.625515
vt 1.000000 -22.203705
vt 0.000000 -22.203705
vt 1.000000 -24.781893
vt 0.000000 -24.781893
vt 1.000000 -27.360083
vt 0.000000 -27.360083
vt 1.000000 -29.938272
vt 0.000000 -29.938272
vt -0.000000 1.000000
vt 1.849999 1.000000
vt -1.849999 1.000000
vt -4.330127 1.000000
vt -3.699998 1.000000
vt 4.330127 1.000000
vt 3.699998 1.000000

vn 1.000000 0.000000 -0.000000
vn 0.969673 0.000000 0.244407
vn 0.273173 0.000000 -0.961965
vn 0.500000 0.000000 -0.866026
vn 0.696499 0.000000 -0.717558
vn -0.696499 0.000000 -0.717558
vn -0.500000 0.000000 -0.866026
vn -0.273173 0.000000 -0.961965
vn -0.969673 0.000000 0.244407
vn -1.000000 0.000000 -0.000000
vn -0.969673 0.000000 -0.244407
vn -0.273173 0.000000 0.961965
vn -0.500000 0.000000 0.866026
vn -0.696499 0.000000 0.717558
vn 0.696499 0.000000 0.717558
vn 0.500000 0.000000 0.866026
vn 0.273173 0.000000 0.961965
vn 0.969673 0.000000 -0.244407
vn 0.000000 -1.000000 0.000000
vn -0.000000 1.000000 -0.000000

usemtl border
f 4/4/2 3/3/2 2/2/1 1/1/1
f 6/6/4 5/5/4 3/3/3 4/4/3
f 8/8/5 7/7/5 5/5/4 6/6/4
f 10/10/7 9/9/7 7/7/6 8/8/6
f 12/12/8 11/11/8 9/9/7 10/10/7
f 14/14/10 13/13/10 11/11/9 12/12/9
f 16/16/11 15/15/11 13/13/10 14/14/10
f 18/18/13 17/17/13 15/15/12 16/16/12
f 20/20/14 19/19/14 17/17/13 18/18/13
f 22/22/16 21/21/16 19/19/15 20/20/15
f 24/24/17 23/23/17 21/21/16 22/22/16
f 1/26/1 2/25/1 23/23/18 24/24/18
f 18/29/19 22/28/19 20/27/19
f 19/27/20 21/28/20 17/29/20
f 6/28/19 10/29/19 8/1/19
f 7/1/20 9/29/20 5/28/20
f 10/29/19 14/31/19 12/30/19
f 11/30/20 13/31/20 9/29/20
f 22/28/19 1/33/19 24/32/19
f 23/32/20 2/33/20 21/28/20
f 1/33/19 6/28/19 4/32/19
f 3/32/20 5/28/20 2/33/20
f 14/31/19 18/29/19 16/30/19
f 15/30/20 17/29/20 13/31/20
f 10/29/19 18/29/19 14/31/19
f 13/31/20 17/29/20 9/29/20
f 6/28/19 18/29/19 10/29/19
f 9/29/20 17/29/20 5/28/20
f 6/28/19 22/28/19 18/29/19
f 17/29/20 21/28/20 5/28/20
f 6/28/19 1/33/19 22/28/19
f 21/28/20 2/33/20 5/28/20

usemtl default

