# WaveFront *.obj file (generated by Cheetah3D)

mtllib star_5.mtl

g star_5
v 2.100000 0.000000 0.000000
v 2.100000 1.000000 0.000000
v 4.045085 1.000000 -2.938925
v 4.045085 -0.000000 -2.938925
v 0.648936 1.000000 -1.997218
v 0.648936 -0.000000 -1.997218
v -1.545085 1.000000 -4.755280
v -1.545085 -0.000000 -4.755280
v -1.698936 1.000000 -1.234349
v -1.698936 -0.000000 -1.234349
v -5.000000 1.000000 -0.000000
v -5.000000 -0.000000 -0.000000
v -1.698936 1.000000 1.234349
v -1.698936 0.000000 1.234349
v -1.545085 1.000000 4.755280
v -1.545085 0.000000 4.755280
v 0.648936 1.000000 1.997218
v 0.648936 0.000000 1.997218
v 4.045085 1.000000 2.938925
v 4.045085 0.000000 2.938925

vt 0.000000 1.000000
vt 1.000000 1.000000
vt 1.000000 -2.524292
vt 0.000000 -2.524292
vt 1.000000 -6.048585
vt 0.000000 -6.048585
vt 1.000000 -9.572877
vt 0.000000 -9.572877
vt 1.000000 -13.097168
vt 0.000000 -13.097168
vt 1.000000 -16.621460
vt 0.000000 -16.621460
vt 1.000000 -20.145754
vt 0.000000 -20.145754
vt 1.000000 -23.670046
vt 0.000000 -23.670046
vt 1.000000 -27.194336
vt 0.000000 -27.194336
vt 1.000000 -30.718630
vt 0.000000 -30.718630
vt 1.000000 -34.242920
vt 0.000000 -34.242920
vt -1.545085 1.000000
vt 0.648936 1.000000
vt -1.698936 1.000000
vt -5.000000 1.000000
vt 4.045085 1.000000
vt 2.100000 1.000000

vn 0.833905 0.000000 0.551908
vn -0.267205 0.000000 -0.963640
vn 0.782586 0.000000 -0.622542
vn -0.999047 -0.000000 -0.043654
vn -0.350240 0.000000 -0.936660
vn -0.350240 -0.000000 0.936660
vn -0.999047 -0.000000 0.043654
vn 0.782586 0.000000 0.622542
vn -0.267204 0.000000 0.963640
vn 0.833905 0.000000 -0.551908
vn 0.000000 -1.000000 0.000000
vn 0.000000 1.000000 -0.000000

usemtl border
f 4/4/1 3/3/1 2/2/1 1/1/1
f 6/6/2 5/5/2 3/3/2 4/4/2
f 8/8/3 7/7/3 5/5/3 6/6/3
f 10/10/4 9/9/4 7/7/4 8/8/4
f 12/12/5 11/11/5 9/9/5 10/10/5
f 14/14/6 13/13/6 11/11/6 12/12/6
f 16/16/7 15/15/7 13/13/7 14/14/7
f 18/18/8 17/17/8 15/15/8 16/16/8
f 20/20/9 19/19/9 17/17/9 18/18/9
f 1/22/10 2/21/10 19/19/10 20/20/10
f 14/25/11 18/24/11 16/23/11
f 15/23/12 17/24/12 13/25/12
f 6/24/11 10/25/11 8/23/11
f 7/23/12 9/25/12 5/24/12
f 10/25/11 14/25/11 12/26/11
f 11/26/12 13/25/12 9/25/12
f 18/24/11 1/28/11 20/27/11
f 19/27/12 2/28/12 17/24/12
f 1/28/11 6/24/11 4/27/11
f 3/27/12 5/24/12 2/28/12
f 1/28/11 10/25/11 6/24/11
f 5/24/12 9/25/12 2/28/12
f 18/24/11 10/25/11 1/28/11
f 2/28/12 9/25/12 17/24/12
f 18/24/11 14/25/11 10/25/11
f 9/25/12 13/25/12 17/24/12

usemtl default

