# WaveFront *.obj file (generated by Cheetah3D)

mtllib star_3.mtl

g star_3
v 2.575001 -0.500000 0.000000
v 2.575001 0.500000 0.000000
v 2.075001 0.500000 -2.684680
v 2.075001 -0.500000 -2.684680
v -0.500000 0.500000 -1.775352
v -0.500000 -0.500000 -1.775352
v -2.575001 0.500000 0.000000
v -2.575001 -0.500000 0.000000
v -0.500000 0.500000 1.775352
v -0.500000 -0.500000 1.775352
v 2.075001 0.500000 2.684680
v 2.075001 -0.500000 2.684680

vt 0.000000 1.000000
vt 1.000000 1.000000
vt 1.000000 -1.730843
vt 0.000000 -1.730843
vt 1.000000 -4.461686
vt 0.000000 -4.461686
vt 1.000000 -7.192530
vt 0.000000 -7.192530
vt 1.000000 -9.923372
vt 0.000000 -9.923372
vt 1.000000 -12.654215
vt 0.000000 -12.654215
vt 1.000000 -15.385057
vt 0.000000 -15.385057
vt -1.025000 2.000000
vt 2.050000 2.000000
vt 1.550000 2.000000
vt -3.100001 2.000000

vn 1.000000 -0.000000 0.000000
vn 0.983096 -0.000000 -0.183094
vn -0.332984 0.000000 -0.942932
vn -0.500000 0.000000 -0.866025
vn -0.650111 0.000000 -0.759839
vn -0.650111 0.000000 0.759839
vn -0.500000 0.000000 0.866025
vn -0.332984 0.000000 0.942932
vn 0.983096 0.000000 0.183094
vn 0.000000 -1.000000 -0.000000
vn -0.000000 1.000000 0.000000

usemtl border
f 4/4/2 3/3/2 2/2/1 1/1/1
f 6/6/4 5/5/4 3/3/3 4/4/3
f 8/8/5 7/7/5 5/5/4 6/6/4
f 10/10/7 9/9/7 7/7/6 8/8/6
f 12/12/8 11/11/8 9/9/7 10/10/7
f 1/14/1 2/13/1 11/11/9 12/12/9
f 4/17/10 1/16/10 6/15/10
f 5/15/11 2/16/11 3/17/11
f 12/17/10 10/15/10 1/16/10
f 2/16/11 9/15/11 11/17/11
f 1/16/10 10/15/10 6/15/10
f 5/15/11 9/15/11 2/16/11
f 10/15/10 8/18/10 6/15/10
f 5/15/11 7/18/11 9/15/11

usemtl default

