# WaveFront *.obj file (generated by Cheetah3D)

mtllib trap_1.mtl

g trap_lopoly
v 0.399998 1.250000 -2.500000
v -1.367768 1.250000 -1.767767
v -0.423579 1.250000 -0.823578
v -0.117768 1.250000 -1.414213
v 0.399999 1.250000 -1.585786
v 1.626169 1.250000 -1.992103
v 0.399998 -1.250000 -2.500000
v -1.367768 -1.250000 -1.767767
v -2.100000 1.250000 0.000000
v -0.850000 1.250000 0.000000
v 1.626169 -1.250000 -1.992103
v -0.423579 -1.250000 -0.823578
v 0.399999 -1.250000 -1.585786
v -0.117768 -1.250000 -1.414213
v -2.100000 -1.250000 0.000000
v -1.367766 1.250000 1.767767
v -0.423578 1.250000 0.823578
v -0.850000 -1.250000 0.000000
v -1.367766 -1.250000 1.767767
v 0.400001 1.250000 2.500000
v 0.400001 1.250000 1.585786
v -0.117766 1.250000 1.414214
v -0.423578 -1.250000 0.823578
v 0.400001 -1.250000 2.500000
v 1.626171 1.250000 1.992103
v 0.400001 -1.250000 1.585786
v -0.117766 -1.250000 1.414214
v 1.626171 -1.250000 1.992103

vt 0.500000 0.182843
vt 0.603553 0.217157
vt 0.664716 0.335284
vt 0.853553 0.146447
vt 0.500000 0.000000
vt 0.254766 0.101579
vt 0.000000 1.000000
vt 0.125000 1.000000
vt 0.125000 0.000000
vt 0.000000 0.000000
vt 0.750000 0.500000
vt 1.000000 0.500000
vt 0.913297 1.000000
vt 1.000000 1.000000
vt 1.000000 0.000000
vt 0.913297 0.000000
vt 0.250000 1.000000
vt 0.250000 0.000000
vt 0.664716 0.664716
vt 0.853553 0.853553
vt 0.375000 1.000000
vt 0.375000 0.000000
vt 0.603553 0.782843
vt 0.500000 0.817157
vt 0.500000 1.000000
vt 0.500000 1.000000
vt 0.254766 0.898421
vt 0.586703 0.000000
vt 0.586703 1.000000
vt 0.088388 0.000000
vt 0.088388 1.000000
vt 0.001685 1.000000
vt 0.001685 0.000000
vt 0.177205 0.000000
vt 0.177205 1.000000
vt 0.322795 0.000000
vt 0.322795 1.000000
vt 0.411612 1.000000
vt 0.411612 0.000000
vt 0.498315 0.000000
vt 0.498315 1.000000

vn -0.000000 1.000000 0.000000
vn -0.382684 0.000000 -0.923879
vn -0.707107 0.000000 -0.707106
vn 0.382684 0.000000 -0.923880
vn -0.000000 -1.000000 0.000000
vn -0.923880 0.000000 -0.382683
vn -0.923879 0.000000 0.382684
vn -0.707107 0.000000 0.707107
vn 0.000000 0.000000 1.000000
vn 0.382684 0.000000 0.923880
vn 0.314551 -0.000000 0.949241
vn 0.649183 -0.000000 0.760632
vn 0.888027 0.000000 0.459791
vn 0.888027 0.000000 -0.459791
vn 0.649183 0.000000 -0.760632
vn 0.314551 0.000000 -0.949241

usemtl border
f 1/5/1 2/4/1 3/3/1 4/2/1 5/1/1
f 6/6/1 1/5/1 5/1/1
f 7/10/2 8/9/3 2/8/3 1/7/2
f 3/3/1 2/4/1 9/12/1 10/11/1
f 11/16/4 7/15/4 1/14/4 6/13/4
f 12/3/5 8/4/5 7/5/5 13/1/5 14/2/5
f 8/9/3 15/18/6 9/17/6 2/8/3
f 10/11/1 9/12/1 16/20/1 17/19/1
f 13/1/5 7/5/5 11/6/5
f 18/11/5 15/12/5 8/4/5 12/3/5
f 15/18/7 19/22/8 16/21/8 9/17/7
f 16/20/1 20/25/1 21/24/1 22/23/1 17/19/1
f 23/19/5 19/20/5 15/12/5 18/11/5
f 19/22/8 24/5/9 20/26/9 16/21/8
f 21/24/1 20/25/1 25/27/1
f 26/24/5 24/25/5 19/20/5 23/19/5 27/23/5
f 25/29/10 20/26/9 24/5/9 28/28/10
f 28/27/5 24/25/5 26/24/5
f 11/33/11 6/32/11 5/31/11 4/8/12 14/9/12 13/30/11
f 14/9/12 4/8/12 3/35/13 10/17/13 18/18/13 12/34/13
f 18/18/14 10/17/14 17/37/14 22/21/15 27/22/15 23/36/14
f 25/41/16 28/40/16 26/39/16 27/22/15 22/21/15 21/38/16

usemtl default

