# WaveFront *.obj file (generated by Cheetah3D)

mtllib tree_1.mtl

g tree_1
v -0.028891 -0.680722 0.249999
v 0.208872 -0.680722 0.077254
v 0.208872 1.056102 0.077254
v 0.115906 1.022688 0.144797
v -0.028891 1.020963 0.249999
v -0.266654 -0.680722 0.077254
v -0.173688 1.005077 0.144797
v -0.266654 1.057140 0.077254
v -0.028891 -0.680722 -0.000000
v 0.118054 -0.680722 -0.202253
v 0.118054 1.054239 -0.202253
v 0.131618 1.042014 -0.160509
v 0.183770 1.058081 -0.000000
v -0.175837 -0.680722 -0.202253
v -0.241553 1.071906 -0.000000
v -0.189400 1.092562 -0.160509
v -0.175837 1.100516 -0.202253
v -0.028891 1.057307 -0.202253
v 0.727703 1.120883 0.756594
v -0.028891 1.093570 1.093658
v 0.919676 1.260979 -0.000000
v -0.028891 2.119500 1.036546
v 0.565007 1.955628 0.593898
v -0.840567 1.031002 0.811677
v 0.685947 1.189019 -0.714838
v 0.986630 2.101979 -0.000000
v -0.028891 2.345296 0.838751
v 0.450641 2.211471 0.479532
v -0.659877 1.999336 0.630986
v -0.936200 1.308584 0.000000
v -0.028891 1.268854 -0.941742
v 0.726898 2.146417 -0.755789
v 0.810286 2.345651 -0.000000
v -0.028891 2.698109 0.793375
v 0.520710 2.684673 0.549601
v -0.557381 2.269169 0.528490
v -0.986630 2.053828 0.000000
v -0.641952 1.355095 -0.613060
v -0.028891 2.065544 -0.971799
v 0.601945 2.389785 -0.630836
v 0.824766 2.748343 -0.000000
v -0.028891 2.994350 0.680115
v 0.438035 2.977865 0.466926
v -0.577964 2.684051 0.549073
v -0.835493 2.318506 0.000000
v -0.819290 2.187206 -0.790399
v -0.028891 2.505084 -1.030497
v 0.534775 2.701249 -0.563666
v 0.693100 3.029246 -0.000000
v -0.028891 3.369153 0.661128
v 0.428255 3.356965 0.457147
v -0.547289 3.038525 0.518398
v -0.639406 2.545725 0.000000
v -0.726566 2.468555 -0.697675
v -0.028891 2.772936 -0.883169
v 0.332826 2.853876 -0.361718
v 0.516515 3.272717 -0.000000
v -0.028891 3.630219 0.505656
v 0.387823 3.699940 0.416714
v -0.414007 3.272076 0.385116
v -0.858705 3.119099 0.000000
v -0.593403 2.702246 -0.564512
v -0.028891 3.027037 -0.719340
v 0.226355 3.119024 -0.255247
v 0.593434 3.727441 -0.000000
v -0.028891 3.975097 0.450761
v 0.327209 4.019131 0.356100
v -0.366847 3.607122 0.337956
v -0.555192 3.256797 0.000000
v -0.462611 2.938731 -0.433720
v -0.028891 3.251256 -0.519651
v 0.378582 3.689049 -0.407473
v 0.500964 4.041008 -0.000000
v -0.028891 4.480722 0.000000
v -0.319176 3.941567 0.290285
v -0.470241 3.576630 0.000000
v -0.362063 3.210859 -0.333172
v -0.028891 3.645066 -0.523474
v 0.335365 4.028742 -0.364256
v -0.432535 3.935833 0.000000
v -0.332329 3.566443 -0.303438
v -0.028891 3.986560 -0.464517
v -0.320710 3.943375 -0.291819

vt 0.000000 0.680674
vt 0.121800 0.681364
vt 0.200000 0.694730
vt 0.200000 0.000000
vt 0.000000 0.000000
vt 0.800000 0.695145
vt 0.878200 0.674320
vt 1.000000 0.680674
vt 1.000000 0.000000
vt 0.800000 0.000000
vt 0.500000 0.000000
vt 0.975528 0.345492
vt 0.500000 0.500000
vt 0.255279 0.695521
vt 0.370130 0.689094
vt 0.400000 0.693984
vt 0.400000 0.000000
vt 0.600000 0.712495
vt 0.629870 0.709314
vt 0.744721 0.701051
vt 0.600000 0.000000
vt 0.024472 0.345491
vt 0.793893 0.904509
vt 0.500000 0.695212
vt 0.206107 0.904508
vt 0.500000 0.385705
vt 0.853553 0.146447
vt 0.567663 0.432337
vt 0.612096 0.500000
vt 0.620706 0.463900
vt 1.000000 0.500000
vt 0.125000 0.125000
vt 0.125000 0.000000
vt 0.000000 0.125000
vt 0.436929 0.436929
vt 0.146447 0.146446
vt 0.853553 0.853553
vt 0.579386 0.579386
vt 0.250000 0.125000
vt 0.250000 0.000000
vt 0.125000 0.250000
vt 0.000000 0.250000
vt 1.000000 0.125000
vt 0.875000 0.000000
vt 0.875000 0.125000
vt 0.377896 0.466349
vt 0.382806 0.500000
vt 0.000000 0.500000
vt 0.500000 0.607382
vt 0.572678 0.602043
vt 0.500000 1.000000
vt 0.375000 0.125000
vt 0.375000 0.000000
vt 0.250000 0.250000
vt 0.125000 0.375000
vt 0.000000 0.375000
vt 1.000000 0.250000
vt 0.875000 0.250000
vt 0.750000 0.000000
vt 0.750000 0.125000
vt 0.407434 0.592566
vt 0.146447 0.853553
vt 0.415256 0.614108
vt 0.500000 0.125000
vt 0.375000 0.250000
vt 0.250000 0.375000
vt 0.125000 0.500000
vt 1.000000 0.375000
vt 0.875000 0.375000
vt 0.750000 0.250000
vt 0.625000 0.000000
vt 0.625000 0.125000
vt 0.500000 0.250000
vt 0.375000 0.375000
vt 0.250000 0.500000
vt 0.125000 0.625000
vt 0.000000 0.625000
vt 1.000000 0.500000
vt 0.875000 0.500000
vt 0.750000 0.375000
vt 0.625000 0.250000
vt 0.500000 0.375000
vt 0.375000 0.500000
vt 0.250000 0.625000
vt 0.125000 0.750000
vt 0.000000 0.750000
vt 1.000000 0.625000
vt 0.875000 0.625000
vt 0.750000 0.500000
vt 0.625000 0.375000
vt 0.375000 0.625000
vt 0.250000 0.750000
vt 0.125000 0.875000
vt 0.000000 0.875000
vt 1.000000 0.750000
vt 0.875000 0.750000
vt 0.750000 0.625000
vt 0.625000 0.500000
vt 0.500000 0.625000
vt 0.375000 0.750000
vt 0.250000 0.875000
vt 0.125000 1.000000
vt 1.000000 0.875000
vt 0.875000 0.875000
vt 0.750000 0.750000
vt 0.625000 0.625000
vt 0.500000 0.750000
vt 0.375000 0.875000
vt 0.250000 1.000000
vt 1.000000 1.000000
vt 0.750000 0.875000
vt 0.625000 0.750000
vt 0.500000 0.875000
vt 0.375000 1.000000
vt 0.875000 1.000000
vt 0.625000 0.875000
vt 0.500000 1.000000
vt 0.750000 1.000000
vt 0.625000 1.000000

vn 0.587785 -0.000000 0.809017
vn -0.587785 -0.000000 0.809017
vn 0.000000 -1.000000 0.000000
vn 0.951056 0.000000 -0.309017
vn -0.951057 -0.000000 -0.309017
vn -0.000000 -0.000000 -1.000000
vn 0.060468 -0.994494 0.085587
vn 0.170692 -0.985244 -0.012558
vn 0.265459 -0.962814 -0.050215
vn 0.264170 -0.958139 -0.110386
vn 0.687725 0.332222 0.645494
vn 0.733766 0.124131 0.667966
vn 0.505673 0.144689 0.850506
vn 0.566947 0.347752 0.746753
vn -0.136151 -0.985846 -0.097826
vn 0.125439 -0.982845 -0.135206
vn 0.942171 0.202213 0.267253
vn 0.998049 0.015648 0.060438
vn 0.687726 0.225572 0.690036
vn 0.579566 0.245558 0.777048
vn -0.487081 0.340948 0.804056
vn -0.440601 0.145549 0.885825
vn -0.599318 0.388495 0.699922
vn -0.310103 -0.910146 -0.274720
vn -0.312440 -0.917005 -0.247958
vn -0.147255 -0.950952 -0.272040
vn -0.020068 -0.961240 -0.274983
vn 0.921183 0.258757 -0.290631
vn 0.946470 -0.063993 -0.316385
vn 0.975535 0.215149 -0.045186
vn 0.782400 0.201136 0.589402
vn 0.791836 0.308186 0.527273
vn 0.675002 0.137164 0.724954
vn 0.455719 0.138691 0.879252
vn -0.503786 0.278957 0.817547
vn -0.714325 0.326582 0.618938
vn -0.716648 0.330951 0.613911
vn -0.780166 0.376219 0.499800
vn -0.947825 0.103833 0.301406
vn -0.999264 -0.035760 -0.013911
vn -0.971409 0.219634 0.090138
vn -0.293426 -0.924596 -0.242948
vn -0.272043 -0.925173 -0.264666
vn 0.003542 0.012211 -0.999919
vn -0.036860 -0.106722 -0.993605
vn 0.288110 -0.045447 -0.956518
vn 0.348564 0.058339 -0.935468
vn 0.793003 0.356443 -0.494060
vn 0.885171 0.339290 -0.318364
vn 0.847053 0.125628 0.516448
vn 0.671606 0.273683 0.688508
vn 0.200981 0.179021 0.963098
vn 0.166913 0.214694 0.962313
vn -0.402872 0.118170 0.907596
vn -0.612986 0.347820 0.709415
vn -0.628480 0.020916 0.777545
vn -0.912666 0.338843 0.228531
vn -0.883460 0.435729 0.172158
vn -0.991286 0.125282 -0.040709
vn -0.929235 -0.171005 -0.327537
vn -0.966894 0.130615 -0.219218
vn -0.341975 -0.035453 -0.939040
vn -0.357748 -0.156179 -0.920665
vn -0.137089 -0.040643 -0.989725
vn 0.219796 0.216166 -0.951295
vn 0.130984 0.071197 -0.988825
vn 0.650977 0.216567 -0.727549
vn 0.663857 0.478167 -0.575022
vn 0.716202 0.316432 -0.622033
vn 0.772849 0.405829 -0.487860
vn 0.855264 0.322994 0.405215
vn 0.351746 0.178569 0.918906
vn 0.561096 0.261085 0.785498
vn 0.407843 0.191891 0.892660
vn -0.135504 0.310601 0.940832
vn -0.147792 0.208827 0.966721
vn -0.386464 0.263152 0.883966
vn -0.950059 0.034930 0.310108
vn -0.766283 0.421489 0.484930
vn -0.983847 0.166402 0.065992
vn -0.866264 0.498972 -0.024775
vn -0.385114 0.315348 -0.867319
vn -0.126051 0.284367 -0.950393
vn 0.543255 0.536723 -0.645603
vn 0.467132 0.257020 -0.846007
vn 0.583418 0.573857 -0.574727
vn 0.520480 0.552544 -0.650996
vn 0.936602 0.125835 0.327020
vn 0.735726 0.344717 0.582990
vn 0.485366 0.270035 0.831565
vn 0.096383 0.239087 0.966203
vn 0.243013 0.250130 0.937219
vn -0.243751 0.332937 0.910900
vn -0.473094 0.462364 0.749934
vn -0.661445 0.430852 0.613887
vn -0.926092 -0.177256 0.333066
vn -0.839753 0.030706 0.542100
vn -0.997282 0.012094 0.072681
vn -0.992707 -0.114315 -0.038270
vn -0.958728 0.282374 -0.033251
vn -0.936121 0.291099 -0.197329
vn -0.461605 0.533308 -0.708875
vn 0.640317 0.589283 -0.492687
vn 0.606479 0.247232 -0.755685
vn 0.495165 0.433214 -0.753085
vn 0.916113 0.113250 0.384593
vn 0.164159 0.439086 0.883321
vn 0.005729 0.235319 0.971901
vn -0.054850 0.365225 0.929302
vn -0.503275 0.237760 0.830774
vn -0.482724 0.308749 0.819544
vn -0.765223 0.218582 0.605522
vn -0.523361 0.573177 0.630525
vn -0.550397 0.766442 0.331102
vn -0.786443 0.518305 0.335957
vn -0.829438 0.401417 -0.388456
vn -0.684713 0.365081 -0.630781
vn -0.644673 0.442234 -0.623559
vn -0.659717 0.370328 -0.653935
vn -0.503413 0.529456 -0.682826
vn 0.731367 0.468925 -0.495189
vn 0.730507 0.231398 -0.642506
vn 0.754998 -0.092306 -0.649197
vn 0.726454 -0.001066 -0.687214
vn 0.802941 -0.259275 -0.536715
vn 0.862737 -0.025231 -0.505023
vn 0.761207 0.507117 0.404222
vn 0.767049 0.196698 0.610693
vn 0.104091 0.745767 0.658024
vn 0.335607 0.574562 0.746490
vn -0.044269 0.519304 0.853442
vn -0.255559 0.342513 0.904088
vn -0.284671 0.234206 0.929575
vn -0.667341 0.324823 0.670184
vn -0.985835 0.146471 0.081703
vn -0.721075 0.424202 -0.547817
vn -0.505912 0.640537 -0.577725
vn -0.505562 0.567963 -0.649481
vn -0.640132 0.363167 -0.677008
vn -0.543707 0.293600 -0.786245
vn 0.366420 -0.027405 -0.930046
vn 0.465000 -0.212583 -0.859409
vn 0.634180 -0.013900 -0.773060
vn 0.649565 -0.027850 -0.759796
vn 0.776157 0.495003 -0.390580
vn 0.506325 0.809540 0.297119
vn 0.759742 0.626404 0.174384
vn 0.577477 0.598354 0.555421
vn -0.401101 0.670693 0.623930
vn -0.282877 0.507728 0.813752
vn -0.595721 0.472917 0.649205
vn -0.786039 0.314601 0.532136
vn -0.929613 0.368147 -0.016927
vn -0.896331 0.118149 -0.427354
vn -0.751446 0.097685 -0.652523
vn -0.552859 0.070243 -0.830309
vn 0.193575 0.438683 -0.877545
vn 0.509683 0.819104 -0.263232
vn 0.590191 0.598815 -0.541383
vn 0.771336 0.618287 -0.150869
vn -0.727654 0.638982 0.249445
vn -0.762087 0.462990 0.452618
vn -0.882848 0.455235 0.115500
vn -0.951325 0.280815 -0.126977
vn -0.985572 0.156932 -0.063403
vn -0.734478 0.359757 -0.575428
vn -0.536533 0.361283 -0.762632
vn 0.098515 0.767067 -0.633958
vn -0.036486 0.527702 -0.848646
vn 0.361097 0.580022 -0.730194
vn -0.734505 0.637752 -0.231894
vn -0.411679 0.681568 -0.604968
vn -0.332374 0.501471 -0.798783

usemtl brown
f 1/5/1 2/4/1 3/3/1 4/2/1 5/1/1
f 6/10/2 1/9/2 5/8/2 7/7/2 8/6/2
f 9/13/3 2/12/3 1/11/3
f 2/4/4 10/17/4 11/16/4 12/15/4 13/14/4 3/3/4
f 14/21/5 6/10/5 8/6/5 15/20/5 16/19/5 17/18/5
f 9/13/3 1/11/3 6/22/3
f 9/13/3 10/23/3 2/12/3
f 10/17/6 14/21/6 17/18/6 18/24/6 11/16/6
f 9/13/3 6/22/3 14/25/3
f 9/13/3 14/25/3 10/23/3

usemtl darkgreen
f 4/28/8 19/27/8 20/11/7 5/26/7
f 21/31/9 19/27/8 4/28/8 3/30/10 13/29/9
f 22/34/14 20/5/13 19/33/12 23/32/11
f 5/26/7 20/11/7 24/36/15 7/35/15
f 12/38/16 25/37/16 21/31/9 13/29/9
f 23/32/11 19/33/12 21/40/18 26/39/17
f 27/42/20 22/34/14 23/32/11 28/41/19
f 29/45/23 24/44/22 20/9/22 22/43/21
f 24/36/15 30/48/25 15/47/25 8/46/24 7/35/15
f 31/51/26 25/37/16 12/38/16 11/50/27 18/49/26
f 26/39/30 21/40/18 25/53/29 32/52/28
f 28/41/19 23/32/11 26/39/32 33/54/31
f 34/56/34 27/42/20 28/41/19 35/55/33
f 36/58/37 29/45/36 22/43/21 27/57/35
f 37/60/41 30/59/40 24/44/39 29/45/38
f 15/47/25 30/48/25 38/62/42 16/61/42
f 38/62/42 31/51/26 18/49/26 17/63/43 16/61/42
f 32/52/47 25/53/46 31/11/45 39/64/44
f 33/54/49 26/39/28 32/52/28 40/65/48
f 35/55/33 28/41/19 33/54/31 41/66/50
f 42/48/53 34/56/52 35/55/33 43/67/51
f 44/69/56 36/58/55 27/57/35 34/68/54
f 45/70/58 37/60/57 29/45/36 36/58/37
f 46/72/61 38/71/60 30/59/40 37/60/59
f 39/64/64 31/11/45 38/71/63 46/72/62
f 40/65/67 32/52/47 39/64/66 47/73/65
f 41/66/70 33/54/49 40/65/69 48/74/68
f 43/67/51 35/55/33 41/66/50 49/75/71
f 50/77/72 42/48/74 43/67/73 51/76/72
f 52/79/77 44/69/54 34/68/76 42/78/75
f 53/80/80 45/70/58 36/58/79 44/69/78
f 54/81/81 46/72/61 37/60/41 45/70/58
f 47/73/83 39/64/44 46/72/62 54/81/82
f 48/74/68 40/65/69 47/73/85 55/82/84
f 49/75/87 41/66/70 48/74/68 56/83/86
f 51/76/88 43/67/89 49/75/71 57/84/88
f 58/86/92 50/77/91 51/76/72 59/85/90
f 60/88/95 52/79/94 42/78/77 50/87/93
f 61/89/99 53/80/98 44/69/97 52/79/96
f 62/90/101 54/81/81 45/70/58 53/80/100
f 55/82/102 47/73/82 54/81/82 62/90/102
f 56/83/86 48/74/68 55/82/84 63/13/103
f 57/84/105 49/75/87 56/83/86 64/91/104
f 59/85/106 51/76/88 57/84/88 65/92/106
f 66/94/109 58/86/108 59/85/92 67/93/107
f 68/96/112 60/88/95 50/87/111 58/95/110
f 69/97/115 61/89/114 52/79/113 60/88/95
f 70/98/117 62/90/116 53/80/80 61/89/99
f 63/13/120 55/82/102 62/90/119 70/98/118
f 64/91/122 56/83/86 63/13/103 71/99/121
f 65/92/126 57/84/125 64/91/124 72/100/123
f 67/93/127 59/85/128 65/92/106 73/101/127
f 66/94/131 67/93/130 74/102/129
f 75/104/134 68/96/112 58/95/133 66/103/132
f 76/105/135 69/97/115 60/88/95 68/96/112
f 77/106/139 70/98/138 61/89/137 69/97/136
f 71/99/140 63/13/120 70/98/118 77/106/139
f 72/100/144 64/91/143 71/99/142 78/107/141
f 73/101/145 65/92/126 72/100/123 79/108/145
f 67/93/148 73/101/147 74/109/146
f 75/104/151 66/103/150 74/110/149
f 80/111/153 76/105/135 68/96/112 75/104/152
f 81/112/155 77/106/139 69/97/136 76/105/154
f 78/107/156 71/99/140 77/106/139 81/112/155
f 79/108/157 72/100/141 78/107/141 82/113/157
f 73/101/160 79/108/159 74/114/158
f 80/111/163 75/104/162 74/115/161
f 83/116/166 81/112/155 76/105/165 80/111/164
f 82/113/167 78/107/156 81/112/155 83/116/166
f 79/108/170 82/113/169 74/117/168
f 83/116/166 80/111/153 74/118/171
f 82/113/173 83/116/166 74/119/172

usemtl default

