# WaveFront *.obj file (generated by Cheetah3D)

mtllib tube_6.mtl

g tube_6
v 0.000000 -0.500000 1.250000
v 0.000000 -0.500000 2.500000
v 2.165064 -0.500000 1.250000
v 1.082532 -0.500000 0.625000
v 2.165063 -0.500000 -1.250000
v 1.082532 -0.500000 -0.625000
v -0.000000 -0.500000 -2.500000
v -0.000000 -0.500000 -1.250000
v -2.165064 -0.500000 -1.250000
v -1.082532 -0.500000 -0.625000
v -2.165064 -0.500000 1.250000
v -1.082532 -0.500000 0.625000
v 0.000000 0.500000 1.250000
v 1.082532 0.500000 0.625000
v 2.165064 0.500000 1.250000
v 0.000000 0.500000 2.500000
v 1.082532 0.500000 -0.625000
v 2.165063 0.500000 -1.250000
v -0.000000 0.500000 -1.250000
v -0.000000 0.500000 -2.500000
v -1.082532 0.500000 -0.625000
v -2.165064 0.500000 -1.250000
v -1.082532 0.500000 0.625000
v -2.165064 0.500000 1.250000

vt 0.500000 0.250000
vt 0.500000 0.000000
vt 0.933013 0.250000
vt 0.716506 0.375000
vt 0.933013 0.750000
vt 0.716506 0.625000
vt 0.500000 1.000000
vt 0.500000 0.750000
vt 0.066987 0.750000
vt 0.283494 0.625000
vt 0.066987 0.250000
vt 0.283494 0.375000
vt 0.000000 0.000000
vt 0.000000 1.000000
vt 0.166667 1.000000
vt 0.166667 0.000000
vt 0.333333 1.000000
vt 0.333333 0.000000
vt 0.666667 1.000000
vt 0.666667 0.000000
vt 0.833333 1.000000
vt 0.833333 0.000000
vt 1.000000 1.000000
vt 1.000000 0.000000
vt 0.500000 1.000000

vn -0.000000 -1.000000 0.000000
vn -0.000000 1.000000 0.000000
vn 0.500000 0.000000 0.866025
vn 1.000000 0.000000 -0.000000
vn 0.500000 0.000000 -0.866025
vn -0.500000 0.000000 -0.866025
vn -1.000000 0.000000 0.000000
vn -0.500000 0.000000 0.866025

usemtl border
f 4/4/1 3/3/1 2/2/1 1/1/1
f 6/6/1 5/5/1 3/3/1 4/4/1
f 8/8/1 7/7/1 5/5/1 6/6/1
f 10/10/1 9/9/1 7/7/1 8/8/1
f 12/12/1 11/11/1 9/9/1 10/10/1
f 1/1/1 2/2/1 11/11/1 12/12/1
f 16/2/2 15/3/2 14/4/2 13/1/2
f 15/3/2 18/5/2 17/6/2 14/4/2
f 18/5/2 20/7/2 19/8/2 17/6/2
f 20/7/2 22/9/2 21/10/2 19/8/2
f 22/9/2 24/11/2 23/12/2 21/10/2
f 24/11/2 16/2/2 13/1/2 23/12/2
f 3/16/3 15/15/3 16/14/3 2/13/3
f 5/18/4 18/17/4 15/15/4 3/16/4
f 7/2/5 20/7/5 18/17/5 5/18/5
f 9/20/6 22/19/6 20/7/6 7/2/6
f 11/22/7 24/21/7 22/19/7 9/20/7
f 2/24/8 16/23/8 24/21/8 11/22/8
f 13/14/6 14/15/6 4/16/6 1/13/6
f 14/15/7 17/17/7 6/18/7 4/16/7
f 17/17/8 19/25/8 8/2/8 6/18/8
f 19/25/3 21/19/3 10/20/3 8/2/3
f 21/19/4 23/21/4 12/22/4 10/20/4
f 23/21/5 13/23/5 1/24/5 12/22/5

usemtl default

