# WaveFront *.obj file (generated by Cheetah3D)

mtllib tube_8.mtl

g tube_8
v 0.000000 -0.500000 1.250000
v 0.000000 -0.500000 2.500000
v 1.767767 -0.500000 1.767767
v 0.883883 -0.500000 0.883883
v 2.500000 -0.500000 -0.000000
v 1.250000 -0.500000 -0.000000
v 1.767767 -0.500000 -1.767767
v 0.883883 -0.500000 -0.883883
v -0.000000 -0.500000 -2.500000
v -0.000000 -0.500000 -1.250000
v -1.767767 -0.500000 -1.767767
v -0.883884 -0.500000 -0.883883
v -2.500000 -0.500000 0.000000
v -1.250000 -0.500000 0.000000
v -1.767766 -0.500000 1.767768
v -0.883883 -0.500000 0.883884
v 0.000000 0.500000 1.250000
v 0.883883 0.500000 0.883883
v 1.767767 0.500000 1.767767
v 0.000000 0.500000 2.500000
v 1.250000 0.500000 -0.000000
v 2.500000 0.500000 -0.000000
v 0.883883 0.500000 -0.883883
v 1.767767 0.500000 -1.767767
v -0.000000 0.500000 -1.250000
v -0.000000 0.500000 -2.500000
v -0.883884 0.500000 -0.883883
v -1.767767 0.500000 -1.767767
v -1.250000 0.500000 0.000000
v -2.500000 0.500000 0.000000
v -0.883883 0.500000 0.883884
v -1.767766 0.500000 1.767768

vt 0.500000 0.250000
vt 0.500000 0.000000
vt 0.853553 0.146447
vt 0.676777 0.323223
vt 1.000000 0.500000
vt 0.750000 0.500000
vt 0.853553 0.853553
vt 0.676777 0.676777
vt 0.500000 1.000000
vt 0.500000 0.750000
vt 0.146447 0.853553
vt 0.323223 0.676777
vt 0.000000 0.500000
vt 0.250000 0.500000
vt 0.146447 0.146446
vt 0.323223 0.323223
vt 0.000000 0.000000
vt 0.000000 1.000000
vt 0.125000 1.000000
vt 0.125000 0.000000
vt 0.250000 1.000000
vt 0.250000 0.000000
vt 0.375000 1.000000
vt 0.375000 0.000000
vt 0.500000 1.000000
vt 0.625000 1.000000
vt 0.625000 0.000000
vt 0.750000 1.000000
vt 0.750000 0.000000
vt 0.875000 1.000000
vt 0.875000 0.000000
vt 1.000000 1.000000
vt 1.000000 0.000000

vn 0.000000 -1.000000 0.000000
vn -0.000000 1.000000 0.000000
vn 0.000000 0.000000 1.000000
vn 0.707107 0.000000 0.707107
vn 1.000000 -0.000000 -0.000000
vn 0.707107 -0.000000 -0.707107
vn -0.000000 -0.000000 -1.000000
vn -0.707107 -0.000000 -0.707107
vn -0.923880 0.000000 -0.382683
vn -0.923879 0.000000 0.382684
vn -0.382683 0.000000 0.923880
vn -1.000000 0.000000 0.000000
vn -0.707107 0.000000 0.707107
vn 0.923880 0.000000 0.382683
vn 0.923879 0.000000 -0.382684
vn 0.382683 0.000000 -0.923880

usemtl border
f 4/4/1 3/3/1 2/2/1 1/1/1
f 6/6/1 5/5/1 3/3/1 4/4/1
f 8/8/1 7/7/1 5/5/1 6/6/1
f 10/10/1 9/9/1 7/7/1 8/8/1
f 12/12/1 11/11/1 9/9/1 10/10/1
f 14/14/1 13/13/1 11/11/1 12/12/1
f 16/16/1 15/15/1 13/13/1 14/14/1
f 1/1/1 2/2/1 15/15/1 16/16/1
f 20/2/2 19/3/2 18/4/2 17/1/2
f 19/3/2 22/5/2 21/6/2 18/4/2
f 22/5/2 24/7/2 23/8/2 21/6/2
f 24/7/2 26/9/2 25/10/2 23/8/2
f 26/9/2 28/11/2 27/12/2 25/10/2
f 28/11/2 30/13/2 29/14/2 27/12/2
f 30/13/2 32/15/2 31/16/2 29/14/2
f 32/15/2 20/2/2 17/1/2 31/16/2
f 3/20/4 19/19/4 20/18/3 2/17/3
f 5/22/5 22/21/5 19/19/4 3/20/4
f 7/24/6 24/23/6 22/21/5 5/22/5
f 9/2/7 26/25/7 24/23/6 7/24/6
f 11/27/8 28/26/8 26/25/7 9/2/7
f 13/29/9 30/28/9 28/26/8 11/27/8
f 15/31/10 32/30/10 30/28/10 13/29/10
f 2/33/3 20/32/3 32/30/11 15/31/11
f 17/18/7 18/19/8 4/20/8 1/17/7
f 18/19/8 21/21/12 6/22/12 4/20/8
f 21/21/12 23/23/13 8/24/13 6/22/12
f 23/23/13 25/25/3 10/2/3 8/24/13
f 25/25/3 27/26/4 12/27/4 10/2/3
f 27/26/4 29/28/14 14/29/14 12/27/4
f 29/28/15 31/30/15 16/31/15 14/29/15
f 31/30/16 17/32/7 1/33/7 16/31/16

usemtl default

