# WaveFront *.obj file (generated by Cheetah3D)

mtllib tube_3.mtl

g tube_3
v 0.000000 -0.500000 0.625000
v 0.000000 -0.500000 1.875000
v 2.165064 -0.500000 -1.875000
v 1.082532 -0.500000 -1.250000
v -2.165064 -0.500000 -1.875000
v -1.082532 -0.500000 -1.250000
v 0.000000 0.500000 0.625000
v 1.082532 0.500000 -1.250000
v 2.165064 0.500000 -1.875000
v 0.000000 0.500000 1.875000
v -1.082532 0.500000 -1.250000
v -2.165064 0.500000 -1.875000

vt 0.500000 0.250000
vt 0.500000 0.000000
vt 0.933013 0.750000
vt 0.716506 0.625000
vt 0.066987 0.750000
vt 0.283494 0.625000
vt 0.000000 0.000000
vt 0.000000 1.000000
vt 0.333333 1.000000
vt 0.333333 0.000000
vt 0.666667 1.000000
vt 0.666667 0.000000
vt 1.000000 1.000000
vt 1.000000 0.000000

vn 0.000000 -1.000000 0.000000
vn 0.000000 1.000000 0.000000
vn 0.866025 0.000000 0.500000
vn -0.000000 0.000000 -1.000000
vn -0.866025 0.000000 0.500000
vn -0.866025 0.000000 -0.500000
vn 0.000000 0.000000 1.000000
vn 0.866025 0.000000 -0.500000

usemtl border
f 4/4/1 3/3/1 2/2/1 1/1/1
f 6/6/1 5/5/1 3/3/1 4/4/1
f 1/1/1 2/2/1 5/5/1 6/6/1
f 10/2/2 9/3/2 8/4/2 7/1/2
f 9/3/2 12/5/2 11/6/2 8/4/2
f 12/5/2 10/2/2 7/1/2 11/6/2
f 3/10/3 9/9/3 10/8/3 2/7/3
f 5/12/4 12/11/4 9/9/4 3/10/4
f 2/14/5 10/13/5 12/11/5 5/12/5
f 7/8/6 8/9/6 4/10/6 1/7/6
f 8/9/7 11/11/7 6/12/7 4/10/7
f 11/11/8 7/13/8 1/14/8 6/12/8

usemtl default

